<svg width="1920" height="1200" viewBox="0 0 1920 1200" fill="none" xmlns="http://www.w3.org/2000/svg">
<g opacity="0.6" clip-path="url(#clip0_118_9860)">
<rect width="1920" height="1200" fill="url(#paint0_linear_118_9860)"/>
<g opacity="0.7">
<path opacity="0.1" d="M1743.23 160.298C1711.52 174.922 1697.62 212.37 1712.18 243.941C1726.74 275.511 1764.25 289.25 1795.96 274.626C1827.67 260.002 1841.57 222.554 1827.01 190.983C1812.45 159.413 1774.94 145.674 1743.23 160.298Z" fill="#82BBFF"/>
<path opacity="0.15" d="M1206.01 298.2C1285.57 292.768 1352.83 334.161 1384.97 403.83C1412.62 463.801 1403.29 531.857 1367.09 584.765C1364.3 588.835 1345.25 611.549 1342.9 613.87C1304.09 657.766 1302.5 724.416 1341.61 770.131C1384.62 820.24 1460.27 825.891 1510.4 782.962C1560.79 739.914 1566.71 664.458 1523.83 614.604C1485.62 568.162 1488.37 500.665 1537.94 463.256C1557.22 449.107 1570.71 430.506 1578.59 409.851C1579 408.73 1579.56 407.237 1579.97 406.116C1580.67 404.249 1581.36 402.382 1581.79 400.634C1587.74 381.179 1589.08 359.825 1584.24 338.539C1569.35 273.915 1504.7 233.48 1439.59 248.655C1421.03 252.884 1406.69 251.45 1393.42 248.286C1367.27 241.467 1347.23 225.642 1332.07 203.545C1323.64 191.339 1316.9 174.023 1314.49 155.326C1301.24 90.8765 1238.15 49.1039 1173.22 62.6482C1108.54 76.0743 1066.44 139.127 1079.81 203.832C1090.02 253.593 1129.96 289.642 1177.39 297.473C1183.16 298.526 1203.59 299.009 1205.99 298.828L1206.01 298.2Z" fill="#82BBFF"/>
<path opacity="0.1" d="M-210.09 293.886C-130.538 288.454 -63.2702 329.848 -31.1387 399.516C-3.47967 459.487 -12.8096 527.543 -49.018 580.452C-51.8032 584.522 -70.8556 607.235 -73.2042 609.556C-112.015 653.452 -113.601 720.103 -74.4896 765.817C-31.4865 815.926 44.1631 821.578 94.2985 778.648C144.69 735.601 150.607 660.145 107.722 610.291C69.5177 563.848 72.2674 496.352 121.841 458.943C141.113 444.793 154.603 426.192 162.482 405.537C162.898 404.417 163.452 402.923 163.868 401.803C164.561 399.936 165.254 398.069 165.691 396.32C171.638 376.865 172.979 355.512 168.135 334.226C153.249 269.601 88.5989 229.167 23.4872 244.341C4.92343 248.57 -9.41406 247.136 -22.6845 243.973C-48.8305 237.153 -68.8724 221.329 -84.0369 199.231C-92.4639 187.025 -99.2067 169.709 -101.613 151.013C-114.864 86.5629 -177.956 44.7903 -242.887 58.3346C-307.562 71.7607 -349.66 134.813 -336.291 199.518C-326.085 249.279 -286.147 285.328 -238.71 293.159C-232.94 294.212 -212.514 294.695 -210.111 294.515L-210.09 293.886Z" fill="#82BBFF"/>
<path opacity="0.1" d="M1364.22 629.448C1358.12 678.507 1324.97 714.551 1278.77 725.864C1239 735.602 1198.68 721.871 1170.76 693.574C1168.62 691.398 1157.05 677.114 1155.91 675.41C1133.79 646.596 1093.41 637.744 1060.97 656.14C1025.38 676.384 1012.99 721.757 1033.19 757.35C1053.43 793.113 1098.65 805.641 1134.07 785.439C1166.85 767.682 1207.6 777.342 1224.5 811.939C1230.84 825.343 1240.56 835.754 1252.2 842.993C1252.83 843.379 1253.68 843.893 1254.31 844.279C1255.36 844.922 1256.42 845.564 1257.43 846.037C1268.57 851.958 1281.4 855.301 1294.93 854.871C1336.02 853.458 1368.28 818.894 1366.74 777.47C1366.37 765.672 1368.93 757.115 1372.43 749.413C1379.67 734.307 1391.67 723.981 1406.92 717.366C1415.34 713.681 1426.68 711.626 1438.34 712.374C1479.13 711.934 1512.02 678.478 1511.45 637.357C1510.93 596.405 1477.54 563.324 1436.58 563.804C1405.09 564.129 1378.42 584.17 1368.05 612.115C1366.72 615.502 1364.01 627.877 1363.84 629.361L1364.22 629.448Z" fill="#82BBFF"/>
<path opacity="0.2" d="M851.931 18.8963C883.391 57.0336 886.813 105.884 863.299 147.231C843.057 182.823 805.386 202.689 765.646 203.539C762.589 203.604 744.262 202.201 742.244 201.855C706.107 198.139 671.94 221.401 663.019 257.619C653.289 297.385 677.752 337.557 717.491 347.33C757.382 357.19 797.55 332.931 807.195 293.317C816.811 257.294 851.824 234.313 888.577 245.795C902.667 250.401 916.913 250.486 930.169 247.001C930.883 246.806 931.836 246.546 932.551 246.351C933.742 246.027 934.934 245.702 935.973 245.291C947.925 241.265 959.173 234.232 968.153 224.106C995.351 193.272 992.39 146.088 961.234 118.746C952.4 110.915 947.947 103.171 944.75 95.3396C938.748 79.6986 939.488 63.8836 945.151 48.2625C948.26 39.6082 954.554 29.9582 963.109 21.9954C990.809 -7.95096 989.086 -54.833 958.816 -82.6723C928.699 -110.425 881.719 -108.882 853.933 -78.7845C832.536 -55.6755 828.785 -22.5307 841.965 4.20784C843.517 7.49608 850.649 17.9662 851.607 19.1127L851.931 18.8963Z" fill="#B4D9FF"/>
<path opacity="0.1" d="M1503.89 -18.0732C1516.55 -49.0402 1501.82 -84.3651 1470.99 -96.9735C1440.16 -109.582 1404.9 -94.6992 1392.24 -63.7322C1379.57 -32.7651 1394.3 2.55974 1425.14 15.1681C1455.97 27.7765 1491.23 12.8939 1503.89 -18.0732Z" fill="#82BBFF"/>
<path opacity="0.15" d="M117.615 721.161C156.384 651.484 227.734 617.612 303.661 628.609C369.02 638.076 421.014 682.968 445.666 742.153C447.562 746.706 456.235 775.056 456.902 778.29C472.579 834.749 527.611 872.381 587.25 864.477C652.695 855.703 698.635 795.335 689.936 729.905C681.279 664.196 621.219 618.135 556.053 626.949C496.298 633.695 441.189 594.626 436.814 532.674C435.444 508.804 427.191 487.36 414.16 469.501C413.447 468.542 412.496 467.264 411.783 466.305C410.595 464.707 409.406 463.108 408.178 461.79C395.101 446.206 377.923 433.451 357.433 425.92C295.129 403.206 226.008 435.404 203.274 498.278C196.71 516.15 187.699 527.394 177.818 536.8C157.86 555.014 133.673 563.204 106.883 563.887C92.0564 564.307 73.8622 560.531 56.8715 552.366C-4.39617 528.376 -73.7895 558.538 -97.7933 620.372C-121.757 681.927 -91.8049 751.576 -30.2591 775.607C17.0317 794.149 69.0149 780.289 101.418 744.769C105.443 740.503 116.972 723.635 118.13 721.521L117.615 721.161Z" fill="#82BBFF"/>
<path opacity="0.1" d="M556.624 881.972C562.694 903.48 584.973 916.017 606.387 909.974C627.801 903.931 640.239 881.597 634.17 860.089C628.1 838.581 605.82 826.044 584.406 832.087C562.993 838.13 550.554 860.464 556.624 881.972Z" fill="#82BBFF"/>
<path opacity="0.15" d="M1890.89 800.644C1843.7 754.926 1831.96 690.913 1856.9 632.827C1878.38 582.827 1925.19 551.019 1977.55 544.021C1981.58 543.483 2005.99 542.627 2008.71 542.785C2056.99 542.35 2098.67 506.574 2105.1 457.421C2112.07 403.462 2073.82 354.023 2019.89 346.991C1965.75 339.867 1916.28 377.845 1909.4 431.592C1902.03 480.59 1859.18 516.119 1808.95 506.388C1789.66 502.388 1770.83 504.383 1753.84 510.946C1752.92 511.309 1751.7 511.793 1750.79 512.156C1749.26 512.761 1747.73 513.366 1746.42 514.062C1731.23 521.147 1717.42 532.098 1707.05 546.8C1675.69 591.545 1686.58 653.426 1731.77 684.93C1744.59 693.966 1751.62 703.536 1757 713.406C1767.24 733.176 1768.6 754.173 1763.43 775.642C1760.6 787.532 1753.72 801.208 1743.6 812.989C1711.44 856.636 1720.65 918.3 1764.74 950.593C1808.62 982.794 1870.44 973.81 1902.69 929.95C1927.53 896.266 1927.59 851.936 1906.23 818.57C1903.69 814.456 1892.72 801.683 1891.29 800.31L1890.89 800.644Z" fill="#5D9EF6"/>
<path opacity="0.05" d="M622.383 345.141C658.821 368.124 706.908 357.345 729.79 321.066C752.671 284.787 741.682 236.745 705.244 213.762C668.806 190.779 620.718 201.558 597.837 237.837C574.955 274.117 585.945 322.158 622.383 345.141Z" fill="#82BBFF"/>
<path opacity="0.1" d="M523.633 -58.8336C498.361 -2.31566 445.465 28.7119 385.993 25.3437C334.799 22.4444 291.545 -8.76028 268.472 -52.8704C266.697 -56.2634 258.071 -77.6049 257.336 -80.0611C241.39 -122.67 196.277 -148.053 150.682 -137.904C100.656 -126.689 69.2074 -76.8867 80.3629 -26.8664C91.5059 23.3727 141.077 54.9351 190.885 43.7077C236.648 34.4461 281.918 60.9359 289.493 108.558C292.169 126.929 300.003 142.957 311.291 155.889C311.908 156.582 312.73 157.507 313.346 158.2C314.373 159.356 315.401 160.512 316.44 161.449C327.609 172.617 341.759 181.321 358.117 185.759C407.845 199.112 459.13 169.53 472.46 119.359C476.327 105.091 482.536 95.7846 489.542 87.8402C503.747 72.4014 521.9 64.4298 542.576 62.0887C554.016 60.761 568.344 62.4505 582.038 67.6162C631.051 82.0256 682.684 53.9997 697.066 4.5477C711.436 -44.6855 683.556 -96.531 634.326 -110.953C596.492 -122.095 557.222 -107.856 534.563 -78.1895C531.738 -74.6179 523.962 -60.7905 523.209 -59.0771L523.633 -58.8336Z" fill="#3E85F4"/>
</g>
</g>
<defs>
<linearGradient id="paint0_linear_118_9860" x1="960" y1="1200" x2="960" y2="1.86417e-06" gradientUnits="userSpaceOnUse">
<stop stop-color="white"/>
<stop offset="0.979167" stop-color="#E3F0FF"/>
</linearGradient>
<clipPath id="clip0_118_9860">
<rect width="1920" height="1200" fill="white"/>
</clipPath>
</defs>
</svg>
