<svg width="105" height="98" viewBox="0 0 105 98" fill="none" xmlns="http://www.w3.org/2000/svg">
<path d="M32.4409 25.5265C37.9973 25.5265 42.5016 21.0478 42.5016 15.5231C42.5016 9.99843 37.9973 5.51978 32.4409 5.51978C26.8845 5.51978 22.3801 9.99843 22.3801 15.5231C22.3801 21.0478 26.8845 25.5265 32.4409 25.5265Z" fill="url(#paint0_linear_109_3583)"/>
<path d="M32.4409 93.6106C37.9973 93.6106 42.5016 89.132 42.5016 83.6072C42.5016 78.0825 37.9973 73.6039 32.4409 73.6039C26.8845 73.6039 22.3801 78.0825 22.3801 83.6072C22.3801 89.132 26.8845 93.6106 32.4409 93.6106Z" fill="url(#paint1_linear_109_3583)"/>
<path d="M90.2732 63.3963C97.9464 63.3963 104.167 57.2115 104.167 49.5822C104.167 41.9528 97.9464 35.768 90.2732 35.768C82.6001 35.768 76.3798 41.9528 76.3798 49.5822C76.3798 57.2115 82.6001 63.3963 90.2732 63.3963Z" fill="url(#paint2_linear_109_3583)"/>
<path d="M7.66535 57.2038C11.8988 57.2038 15.3307 53.7915 15.3307 49.5822C15.3307 45.3729 11.8988 41.9606 7.66535 41.9606C3.4319 41.9606 0 45.3729 0 49.5822C0 53.7915 3.4319 57.2038 7.66535 57.2038Z" fill="url(#paint3_linear_109_3583)"/>
<path d="M73.8132 69.2827C64.7791 65.8462 59.4749 57.8843 59.4749 48.5955C59.4749 40.5996 63.9578 33.5904 70.6308 29.6095C71.1441 29.3033 74.395 27.7721 74.7714 27.636C81.2733 24.7779 84.8322 17.5306 82.8474 10.5214C80.6573 2.83178 72.6155 -1.6255 64.916 0.552099C57.1822 2.7297 52.6993 10.7256 54.8894 18.3812C56.7373 25.4244 53.0073 32.7058 45.6499 34.3049C42.8096 34.8834 40.38 36.2444 38.4636 38.1157C38.361 38.2178 38.2241 38.3539 38.1214 38.456C37.9503 38.6261 37.7792 38.7963 37.6424 38.9664C35.9998 40.8037 34.7679 43.0834 34.2203 45.6693C32.5777 53.5291 37.6424 61.2528 45.5815 62.886C47.84 63.3623 49.3457 64.247 50.6461 65.2677C53.1784 67.3433 54.5814 70.0993 55.1289 73.2976C55.4369 75.0669 55.3 77.3126 54.6156 79.4902C52.802 87.2479 57.627 95.0396 65.4635 96.843C73.2657 98.6463 81.1022 93.8488 82.9158 86.057C84.3189 80.0686 81.7524 74.0802 76.9273 70.8138C76.3455 70.4055 74.1212 69.3167 73.8475 69.2146L73.8132 69.2827Z" fill="url(#paint4_linear_109_3583)"/>
<defs>
<linearGradient id="paint0_linear_109_3583" x1="32.4409" y1="5.51978" x2="32.4409" y2="25.5265" gradientUnits="userSpaceOnUse">
<stop offset="0.208333" stop-color="#0040BC"/>
<stop offset="0.635417" stop-color="#3E85F4"/>
<stop offset="1" stop-color="#82BDFF"/>
</linearGradient>
<linearGradient id="paint1_linear_109_3583" x1="32.4409" y1="73.6039" x2="32.4409" y2="93.6106" gradientUnits="userSpaceOnUse">
<stop offset="0.208333" stop-color="#0040BC"/>
<stop offset="0.635417" stop-color="#3E85F4"/>
<stop offset="1" stop-color="#82BDFF"/>
</linearGradient>
<linearGradient id="paint2_linear_109_3583" x1="90.2732" y1="35.768" x2="90.2732" y2="63.3963" gradientUnits="userSpaceOnUse">
<stop offset="0.208333" stop-color="#0040BC"/>
<stop offset="0.635417" stop-color="#3E85F4"/>
<stop offset="1" stop-color="#82BDFF"/>
</linearGradient>
<linearGradient id="paint3_linear_109_3583" x1="7.66535" y1="41.9606" x2="7.66535" y2="57.2038" gradientUnits="userSpaceOnUse">
<stop offset="0.208333" stop-color="#0040BC"/>
<stop offset="0.635417" stop-color="#3E85F4"/>
<stop offset="1" stop-color="#82BDFF"/>
</linearGradient>
<linearGradient id="paint4_linear_109_3583" x1="58.6537" y1="0" x2="58.6537" y2="97.2222" gradientUnits="userSpaceOnUse">
<stop offset="0.208333" stop-color="#0040BC"/>
<stop offset="0.635417" stop-color="#3E85F4"/>
<stop offset="1" stop-color="#82BDFF"/>
</linearGradient>
</defs>
</svg>
