<svg width="500" height="98" viewBox="0 0 500 98" fill="none" xmlns="http://www.w3.org/2000/svg">
<g clip-path="url(#clip0_6_54)">
<path d="M32.4409 25.5265C37.9973 25.5265 42.5016 21.0478 42.5016 15.5231C42.5016 9.99843 37.9973 5.51978 32.4409 5.51978C26.8845 5.51978 22.3801 9.99843 22.3801 15.5231C22.3801 21.0478 26.8845 25.5265 32.4409 25.5265Z" fill="url(#paint0_linear_6_54)"/>
<path d="M32.4409 93.6106C37.9973 93.6106 42.5016 89.132 42.5016 83.6072C42.5016 78.0825 37.9973 73.6039 32.4409 73.6039C26.8845 73.6039 22.3801 78.0825 22.3801 83.6072C22.3801 89.132 26.8845 93.6106 32.4409 93.6106Z" fill="url(#paint1_linear_6_54)"/>
<path d="M90.2732 63.3963C97.9464 63.3963 104.167 57.2115 104.167 49.5822C104.167 41.9528 97.9464 35.768 90.2732 35.768C82.6001 35.768 76.3798 41.9528 76.3798 49.5822C76.3798 57.2115 82.6001 63.3963 90.2732 63.3963Z" fill="url(#paint2_linear_6_54)"/>
<path d="M7.66535 57.2038C11.8988 57.2038 15.3307 53.7915 15.3307 49.5822C15.3307 45.3729 11.8988 41.9606 7.66535 41.9606C3.4319 41.9606 0 45.3729 0 49.5822C0 53.7915 3.4319 57.2038 7.66535 57.2038Z" fill="url(#paint3_linear_6_54)"/>
<path d="M73.8132 69.2827C64.7791 65.8462 59.4749 57.8843 59.4749 48.5955C59.4749 40.5996 63.9578 33.5904 70.6308 29.6095C71.1441 29.3033 74.395 27.7721 74.7714 27.636C81.2733 24.7779 84.8322 17.5306 82.8474 10.5214C80.6573 2.83178 72.6155 -1.6255 64.916 0.552099C57.1822 2.7297 52.6993 10.7256 54.8894 18.3812C56.7373 25.4244 53.0073 32.7058 45.6499 34.3049C42.8096 34.8834 40.38 36.2444 38.4636 38.1157C38.361 38.2178 38.2241 38.3539 38.1214 38.456C37.9503 38.6261 37.7792 38.7963 37.6424 38.9664C35.9998 40.8037 34.7679 43.0834 34.2203 45.6693C32.5777 53.5291 37.6424 61.2528 45.5815 62.886C47.84 63.3623 49.3457 64.247 50.6461 65.2677C53.1784 67.3433 54.5814 70.0993 55.1289 73.2976C55.4369 75.0669 55.3 77.3126 54.6156 79.4902C52.802 87.2479 57.627 95.0396 65.4635 96.843C73.2657 98.6463 81.1022 93.8488 82.9158 86.057C84.3189 80.0686 81.7524 74.0802 76.9273 70.8138C76.3455 70.4055 74.1212 69.3167 73.8475 69.2146L73.8132 69.2827Z" fill="url(#paint4_linear_6_54)"/>
<path d="M149.489 41.5044H152.283C154.872 41.5044 156.745 40.6961 157.87 39.0794L174.903 14.6605C175.891 13.347 176.981 12.4713 178.14 11.966C179.298 11.4608 180.729 11.2251 182.466 11.2251H197.728L175.312 41.4371C173.711 43.5253 172.008 45.041 170.168 45.9503C171.463 46.4219 172.689 47.0955 173.745 47.9375C174.835 48.7796 175.823 49.891 176.743 51.272L199.568 85.9636H183.897C182.875 85.9636 182.023 85.8962 181.342 85.7615C180.627 85.6268 180.013 85.4247 179.502 85.1552C178.991 84.8858 178.549 84.549 178.14 84.1448C177.765 83.7406 177.39 83.3028 177.05 82.7975L159.914 56.7957C159.301 55.8526 158.517 55.179 157.563 54.7748C156.609 54.3706 155.315 54.1685 153.713 54.1685H149.455V85.9636H131.944V11.2251H149.489V41.5044Z" fill="#00256D"/>
<path d="M261.196 72.1206V85.9636H215.648V11.2251H233.193V72.1206H261.196Z" fill="#00256D"/>
<path d="M348.306 85.9636H334.713C333.18 85.9636 331.954 85.6268 331.034 84.9195C330.114 84.2122 329.399 83.3364 328.888 82.225L324.425 69.1904H295.672L291.209 82.225C290.834 83.168 290.153 84.0437 289.165 84.8184C288.177 85.5931 286.951 85.9636 285.52 85.9636H271.825L301.089 11.2251H319.042L348.306 85.9636ZM320.439 57.4019L313.421 36.9238C312.91 35.6102 312.331 34.0946 311.752 32.3432C311.173 30.5917 310.594 28.6719 309.98 26.6174C309.469 28.7056 308.924 30.6254 308.311 32.4105C307.698 34.1956 307.153 35.7113 306.642 37.0248L299.692 57.4019H320.439Z" fill="#00256D"/>
<path d="M406.425 26.4153C405.914 27.2236 405.369 27.8636 404.79 28.2677C404.211 28.6719 403.495 28.874 402.575 28.874C401.792 28.874 400.906 28.6382 400.02 28.133C399.1 27.6278 398.078 27.0889 396.92 26.4826C395.762 25.8764 394.433 25.3038 392.968 24.8322C391.469 24.327 389.8 24.0913 387.892 24.0913C384.622 24.0913 382.169 24.7986 380.568 26.1795C378.967 27.5604 378.149 29.4466 378.149 31.8043C378.149 33.3199 378.626 34.5661 379.614 35.5429C380.568 36.5533 381.862 37.3953 383.43 38.1026C384.997 38.8099 386.802 39.4836 388.812 40.0898C390.822 40.6961 392.9 41.3697 395.012 42.077C397.125 42.818 399.203 43.66 401.213 44.6705C403.223 45.6809 405.028 46.9271 406.595 48.4764C408.162 50.0258 409.457 51.8782 410.411 54.1012C411.365 56.3241 411.876 58.9513 411.876 62.0836C411.876 65.5528 411.263 68.7862 410.07 71.7838C408.878 74.7814 407.106 77.4086 404.79 79.6652C402.473 81.9218 399.646 83.6733 396.273 84.9531C392.9 86.233 389.051 86.873 384.792 86.873C382.442 86.873 380.057 86.6372 377.604 86.1657C375.185 85.6941 372.8 85.0205 370.518 84.1448C368.235 83.2691 366.089 82.225 364.079 81.0461C362.069 79.8673 360.332 78.52 358.833 77.0381L364.011 68.9209C364.42 68.3483 364.965 67.8431 365.646 67.4726C366.328 67.0684 367.043 66.8664 367.861 66.8664C368.883 66.8664 369.939 67.2032 370.995 67.8431C372.051 68.483 373.243 69.224 374.572 69.9987C375.901 70.7734 377.434 71.5143 379.171 72.1543C380.909 72.7942 382.953 73.131 385.303 73.131C388.471 73.131 390.958 72.4237 392.73 71.0428C394.501 69.6619 395.387 67.4726 395.387 64.4413C395.387 62.6899 394.91 61.2753 393.922 60.1975C392.968 59.1197 391.674 58.2103 390.107 57.4693C388.54 56.762 386.734 56.1221 384.724 55.5832C382.714 55.0443 380.67 54.438 378.558 53.7644C376.446 53.0907 374.402 52.2824 372.392 51.3056C370.382 50.3289 368.61 49.049 367.009 47.466C365.442 45.883 364.147 43.8958 363.194 41.5044C362.24 39.1131 361.729 36.1828 361.729 32.7136C361.729 29.9181 362.308 27.1562 363.432 24.4954C364.59 21.8346 366.26 19.4433 368.474 17.355C370.688 15.2668 373.414 13.6164 376.616 12.3702C379.818 11.124 383.532 10.4841 387.654 10.4841C389.97 10.4841 392.219 10.6525 394.433 11.023C396.648 11.3935 398.726 11.8987 400.702 12.606C402.678 13.3133 404.517 14.1553 406.221 15.1321C407.924 16.1088 409.457 17.2203 410.82 18.4328L406.459 26.4826L406.425 26.4153Z" fill="#00256D"/>
<path d="M498.611 85.9636H485.018C483.485 85.9636 482.259 85.6268 481.339 84.9195C480.419 84.2122 479.704 83.3364 479.193 82.225L474.73 69.1904H445.977L441.514 82.225C441.14 83.168 440.458 84.0437 439.47 84.8184C438.482 85.5931 437.256 85.9636 435.825 85.9636H422.13L451.394 11.2251H469.347L498.611 85.9636ZM470.744 57.4019L463.726 36.9238C463.215 35.6102 462.636 34.0946 462.057 32.3432C461.478 30.5917 460.899 28.6719 460.285 26.6174C459.774 28.7056 459.229 30.6254 458.616 32.4105C458.003 34.1956 457.458 35.7113 456.947 37.0248L449.997 57.4019H470.744Z" fill="#00256D"/>
</g>
<defs>
<linearGradient id="paint0_linear_6_54" x1="32.4409" y1="5.51978" x2="32.4409" y2="25.5265" gradientUnits="userSpaceOnUse">
<stop offset="0.208333" stop-color="#0040BC"/>
<stop offset="0.635417" stop-color="#3E85F4"/>
<stop offset="1" stop-color="#82BDFF"/>
</linearGradient>
<linearGradient id="paint1_linear_6_54" x1="32.4409" y1="73.6039" x2="32.4409" y2="93.6106" gradientUnits="userSpaceOnUse">
<stop offset="0.208333" stop-color="#0040BC"/>
<stop offset="0.635417" stop-color="#3E85F4"/>
<stop offset="1" stop-color="#82BDFF"/>
</linearGradient>
<linearGradient id="paint2_linear_6_54" x1="90.2732" y1="35.768" x2="90.2732" y2="63.3963" gradientUnits="userSpaceOnUse">
<stop offset="0.208333" stop-color="#0040BC"/>
<stop offset="0.635417" stop-color="#3E85F4"/>
<stop offset="1" stop-color="#82BDFF"/>
</linearGradient>
<linearGradient id="paint3_linear_6_54" x1="7.66535" y1="41.9606" x2="7.66535" y2="57.2038" gradientUnits="userSpaceOnUse">
<stop offset="0.208333" stop-color="#0040BC"/>
<stop offset="0.635417" stop-color="#3E85F4"/>
<stop offset="1" stop-color="#82BDFF"/>
</linearGradient>
<linearGradient id="paint4_linear_6_54" x1="58.6537" y1="0" x2="58.6537" y2="97.2222" gradientUnits="userSpaceOnUse">
<stop offset="0.208333" stop-color="#0040BC"/>
<stop offset="0.635417" stop-color="#3E85F4"/>
<stop offset="1" stop-color="#82BDFF"/>
</linearGradient>
<clipPath id="clip0_6_54">
<rect width="500" height="97.2222" fill="white"/>
</clipPath>
</defs>
</svg>
