<svg width="1861" height="1200" viewBox="0 0 1861 1200" fill="none" xmlns="http://www.w3.org/2000/svg">
<g opacity="0.7">
<path opacity="0.1" d="M793.106 1114.81C793.106 1087.73 771.242 1065.77 744.27 1065.77C717.299 1065.77 695.435 1087.73 695.435 1114.81C695.435 1141.9 717.299 1163.86 744.27 1163.86C771.242 1163.86 793.106 1141.9 793.106 1114.81Z" fill="#82BBFF"/>
<path opacity="0.15" d="M870.502 691.597C848.482 749.398 797.466 783.335 737.948 783.335C686.714 783.335 641.803 754.653 616.295 711.959C614.333 708.675 604.522 687.875 603.65 685.467C585.337 643.868 538.899 621.098 493.988 633.796C444.716 647.809 416.156 699.26 430.109 748.523C444.062 798.004 495.296 826.685 544.349 812.673C589.479 800.85 636.134 824.715 646.381 871.787C650.087 889.96 658.808 905.505 670.799 917.765C671.453 918.422 672.325 919.298 672.979 919.955C674.069 921.05 675.159 922.144 676.249 923.02C688.022 933.529 702.629 941.411 719.199 944.914C769.56 955.424 819.05 923.02 829.515 872.225C832.567 857.775 838.235 848.142 844.776 839.822C858.075 823.62 875.734 814.643 896.228 811.14C907.565 809.17 921.954 810.046 935.907 814.424C985.614 826.028 1035.54 795.157 1047.09 745.019C1058.65 695.1 1027.91 644.963 977.984 633.359C939.613 624.382 901.242 640.803 880.313 671.674C877.696 675.396 870.72 689.627 870.066 691.378L870.502 691.597Z" fill="#82BBFF"/>
<path opacity="0.1" d="M1314.17 896.112C1328.31 943.032 1312.71 988.999 1275.36 1017.78C1243.21 1042.56 1201.16 1046.28 1164.5 1031.82C1161.68 1030.71 1145.46 1022.4 1143.75 1021.32C1112.13 1004.07 1071.98 1012.24 1049.94 1041.92C1025.8 1074.54 1032.77 1120.64 1065.35 1144.81C1098.04 1169.11 1144.06 1162.33 1168.07 1129.82C1190.67 1100.57 1231.49 1092.99 1260.69 1117.57C1271.81 1127.18 1284.8 1132.72 1298.25 1134.61C1298.98 1134.71 1299.95 1134.84 1300.68 1134.93C1301.89 1135.09 1303.11 1135.25 1304.22 1135.27C1316.69 1136.18 1329.67 1134.06 1341.76 1128.24C1378.44 1110.48 1393.83 1066.22 1375.82 1029.28C1370.75 1018.74 1369.64 1009.95 1369.72 1001.57C1370.23 984.968 1376.97 970.795 1388.14 958.686C1394.3 951.967 1403.75 945.558 1414.63 941.558C1451.43 924.801 1467.83 881.285 1450.83 844.234C1433.93 807.321 1390.39 790.725 1353.44 807.587C1325.02 820.51 1308.89 849.371 1310.69 878.865C1310.85 882.466 1313.35 894.77 1313.79 896.185L1314.17 896.112Z" fill="#82BBFF"/>
<path opacity="0.1" d="M585.749 695.424C553.171 675.186 538.55 640.126 545.592 603.907C551.653 572.729 574.424 548.792 603.428 538.321C605.659 537.515 619.48 534.006 621.049 533.76C648.537 527.537 667.89 501.972 665.474 473.139C662.773 441.498 634.834 418.031 603.199 420.694C571.43 423.332 547.911 451.116 550.637 482.625C552.494 511.486 532.449 537.055 502.584 537.721C491.085 537.827 480.591 541.295 471.71 547.141C471.233 547.461 470.596 547.889 470.119 548.209C469.324 548.743 468.529 549.277 467.866 549.836C460.077 555.757 453.551 563.714 449.459 573.382C437.104 602.786 450.973 636.736 480.653 649.113C489.087 652.68 494.28 657.269 498.571 662.233C506.859 672.243 510.234 684.051 509.942 696.937C509.8 704.069 507.565 712.721 503.249 720.694C490.305 749.57 503.19 783.604 532.341 796.567C561.358 809.504 595.513 796.729 608.483 767.72C618.486 745.432 613.03 720.139 596.716 703.751C594.76 701.718 586.923 695.789 585.934 695.184L585.749 695.424Z" fill="#82BBFF"/>
<path opacity="0.2" d="M1182.3 532.919C1145.22 542.689 1109.69 529.23 1088.2 499.233C1069.71 473.412 1067.95 440.423 1080.26 412.154C1081.21 409.979 1088.15 397.526 1089.05 396.217C1103.41 371.969 1098.12 340.344 1075.51 322.294C1050.66 302.521 1014.41 306.702 994.614 331.519C974.707 356.415 978.745 392.591 1003.52 412.255C1025.77 430.731 1030.59 462.86 1010.55 485.019C1002.73 493.447 998.044 503.455 996.192 513.924C996.097 514.491 995.971 515.247 995.876 515.814C995.718 516.758 995.559 517.703 995.511 518.568C994.464 528.296 995.764 538.503 999.98 548.118C1012.86 577.294 1047.07 590.538 1076.45 577.473C1084.84 573.795 1091.74 573.174 1098.29 573.466C1111.26 574.32 1122.16 579.979 1131.33 589.043C1136.41 594.045 1141.17 601.613 1144 610.226C1156.09 639.467 1189.68 653.484 1219.13 641.206C1248.46 629.007 1262.64 595.414 1250.46 566.063C1241.14 543.484 1219.01 530.074 1195.89 530.671C1193.07 530.696 1183.37 532.318 1182.26 532.62L1182.3 532.919Z" fill="#B4D9FF"/>
<path opacity="0.1" d="M996.524 1004.17C1014.23 1023.15 1043.9 1024.25 1062.8 1006.63C1081.69 989.007 1082.67 959.335 1064.97 940.355C1047.26 921.375 1017.59 920.275 998.694 937.896C979.795 955.518 978.823 985.19 996.524 1004.17Z" fill="#82BBFF"/>
<path opacity="0.15" d="M926.164 -212.483C962.653 -162.537 963.333 -101.274 930.917 -51.3637C903.013 -8.40052 854.495 13.6397 804.792 11.7771C800.969 11.6338 778.179 8.53257 775.684 7.95214C730.818 0.652661 686.428 27.1923 672.618 71.7698C657.536 120.719 685.137 172.691 734.056 187.821C783.159 203.07 835.12 175.728 850.084 126.961C864.746 82.6776 910.174 56.5514 955.238 73.5965C972.499 80.3858 990.287 81.5393 1007.1 78.1619C1008.01 77.9711 1009.22 77.7168 1010.13 77.5261C1011.64 77.2082 1013.15 76.8903 1014.48 76.4532C1029.7 72.3046 1044.27 64.3483 1056.23 52.3617C1092.48 15.8536 1092.25 -43.2952 1055.35 -79.7355C1044.89 -90.1651 1039.9 -100.165 1036.48 -110.181C1030.13 -130.158 1032.22 -149.855 1040.44 -168.948C1044.97 -179.528 1053.54 -191.118 1064.81 -200.433C1101.62 -235.797 1102.91 -294.476 1067.15 -331.473C1031.58 -368.35 972.779 -369.88 935.854 -334.333C907.427 -307.046 900.302 -265.926 914.796 -231.561C916.493 -227.34 924.63 -213.739 925.743 -212.237L926.164 -212.483Z" fill="#82BBFF"/>
<path opacity="0.1" d="M670.244 44.513C653.121 41.8012 637.05 53.4222 634.35 70.4692C631.65 87.5162 643.342 103.534 660.466 106.246C677.589 108.957 693.66 97.3364 696.36 80.2894C699.06 63.2424 687.368 47.2248 670.244 44.513Z" fill="#82BBFF"/>
<path opacity="0.15" d="M294.031 1010.8C341.569 992.409 390.479 1004.93 423.294 1041.37C451.542 1072.74 458.738 1116.05 446.656 1155.21C445.727 1158.22 438.398 1175.7 437.404 1177.56C422.026 1211.71 433.684 1252.69 466.223 1273.19C501.969 1295.63 549.225 1284.75 571.7 1249.04C594.31 1213.22 583.627 1166.04 548 1143.73C515.878 1122.62 504.77 1080.9 527.948 1048.67C537.033 1036.38 541.745 1022.47 542.642 1008.37C542.684 1007.61 542.739 1006.59 542.781 1005.83C542.85 1004.56 542.92 1003.28 542.855 1002.13C542.8 989.132 539.573 975.843 532.583 963.767C511.253 927.139 464.123 914.704 427.246 936.302C416.714 942.4 407.689 944.241 398.988 944.824C381.734 945.614 366.5 939.751 353.056 929.136C345.598 923.281 338.201 913.988 333.19 903.031C312.89 866.2 266.459 852.653 229.383 873.221C192.442 893.669 178.686 940.134 199.106 977.099C214.764 1005.54 245.976 1019.98 276.421 1015.77C280.142 1015.32 292.704 1011.75 294.137 1011.18L294.031 1010.8Z" fill="#5D9EF6"/>
<path opacity="0.2" d="M1027.06 265.236C999.027 283.436 990.996 320.811 1009.12 348.715C1027.24 376.619 1064.66 384.486 1092.69 366.285C1120.72 348.085 1128.75 310.71 1110.62 282.806C1092.5 254.902 1055.09 247.036 1027.06 265.236Z" fill="#82BBFF"/>
<path opacity="0.2" d="M1727.49 413.52C1687.65 439.385 1676.24 492.5 1702 532.156C1727.75 571.811 1780.92 582.991 1820.76 557.125C1860.59 531.26 1872 478.145 1846.25 438.49C1820.49 398.834 1767.32 387.655 1727.49 413.52Z" fill="#82BBFF"/>
<path opacity="0.1" d="M1343.73 326.917C1312.12 290.754 1307.45 243.414 1329.15 202.616C1347.82 167.497 1383.86 147.167 1422.43 145.244C1425.39 145.096 1443.23 145.953 1445.2 146.233C1480.4 148.843 1512.94 125.312 1520.6 89.8978C1528.95 51.016 1504.09 12.6841 1465.22 4.29172C1426.21 -4.18045 1387.87 20.4839 1379.6 59.2164C1371.25 94.4607 1337.89 117.743 1301.88 107.608C1288.07 103.524 1274.23 103.836 1261.45 107.586C1260.76 107.795 1259.84 108.073 1259.16 108.282C1258.01 108.63 1256.86 108.978 1255.86 109.406C1244.37 113.646 1233.64 120.785 1225.2 130.866C1199.63 161.557 1203.81 207.292 1234.82 232.98C1243.62 240.34 1248.16 247.737 1251.48 255.253C1257.74 270.275 1257.45 285.652 1252.39 300.977C1249.6 309.466 1243.76 319.01 1235.67 326.978C1209.59 356.821 1212.56 402.297 1242.73 428.493C1272.74 454.61 1318.32 451.814 1344.48 421.822C1364.62 398.792 1367.35 366.504 1353.81 340.905C1352.21 337.755 1345 327.785 1344.03 326.698L1343.73 326.917Z" fill="#3E85F4"/>
</g>
</svg>
