<svg width="444" height="300" viewBox="0 0 444 300" fill="none" xmlns="http://www.w3.org/2000/svg">
<path d="M429.594 131.466C426.53 123.689 421.817 115.913 415.69 108.843C401.551 92.3473 380.342 82.2142 358.662 82.6855C327.791 83.1568 299.984 83.6281 273.59 64.0687C249.789 46.3946 218.447 32.7266 189.226 26.8352C168.252 22.5934 145.629 24.0073 127.248 35.0831C108.396 46.6302 91.4287 63.3618 94.7279 86.6916C96.3775 98.71 100.384 111.435 95.9062 122.747C90.0148 137.593 72.812 143.956 57.2587 147.962C41.7055 151.732 24.267 155.739 15.3121 168.935C6.59289 181.896 9.42075 199.806 17.9043 212.767C26.3879 225.728 39.3489 234.919 52.31 243.874C62.9145 251.179 72.3407 258.72 81.7669 267.675C85.066 270.738 89.5435 274.273 91.9 278.044C94.9636 282.757 93.7853 289.591 98.0271 293.597C102.505 297.839 107.925 295.011 114.052 295.011C134.082 295.011 154.349 295.246 174.379 295.246C222.217 295.482 270.291 295.718 318.129 295.718C324.727 295.718 332.033 297.603 338.395 296.425C347.35 295.011 344.287 295.011 349.235 288.177C355.598 279.222 363.846 273.33 372.801 267.203C414.512 238.689 448.682 180.011 429.594 131.466Z" fill="#E3F0FF"/>
<path d="M107.561 184.411C106.383 179.934 105.205 173.336 105.205 164.616C105.205 164.616 105.205 164.381 104.026 165.795C104.262 173.1 105.205 178.52 106.147 182.526C108.268 190.303 108.739 200.436 106.147 207.977C103.084 216.46 98.135 221.174 96.0141 222.587C96.2498 223.059 95.7784 222.116 96.0141 222.587C96.0141 222.587 102.848 219.053 106.854 207.741C109.446 200.436 109.682 192.188 107.561 184.411Z" fill="#5D9EF6"/>
<path d="M72.2131 211.276C72.2131 211.276 59.959 205.384 50.7685 221.88C50.7685 221.88 67.2644 214.575 67.9713 224.001C67.9713 224.001 71.9775 235.784 82.1106 237.669C82.1106 237.669 88.002 215.753 72.2131 211.276Z" fill="#03C9BC"/>
<path d="M71.9775 212.219C85.6455 215.989 83.0533 233.192 82.1106 237.434C82.1106 237.434 88.002 215.518 72.2131 211.04C72.2131 211.04 59.959 205.149 50.7685 221.645C50.7685 221.645 51.0042 221.645 51.2398 221.409C60.4304 206.563 71.9775 212.219 71.9775 212.219Z" fill="#5D9EF6"/>
<path d="M85.8809 260.764C85.6452 260.764 85.6452 260.764 85.8809 260.764C85.1739 252.987 88.2374 245.682 91.0653 238.612C93.1862 233.428 95.3071 228.243 96.2497 222.823C96.721 219.76 96.721 216.696 96.9567 213.633V212.455C97.428 200.2 98.3706 187.946 100.256 175.928C100.256 175.692 100.491 175.692 100.491 175.692C100.727 175.692 100.727 175.928 100.727 175.928C98.8419 187.946 97.6636 200.201 97.428 212.219V213.397C97.428 216.461 97.1923 219.524 96.721 222.588C95.7784 228.008 93.6575 233.428 91.5366 238.612C88.7087 245.682 85.6452 252.752 86.1165 260.293C86.1165 260.764 85.8809 260.764 85.8809 260.764Z" fill="#0037A2"/>
<path d="M92.479 256.051C92.479 256.051 92.479 255.815 92.479 256.051C90.8294 245.446 93.1859 236.256 99.0773 230.6C101.905 227.772 105.44 225.887 108.739 224.002C112.981 221.645 117.458 219.289 120.051 215.282C120.051 215.282 120.286 215.047 120.286 215.282C120.286 215.282 120.522 215.518 120.286 215.518C117.458 219.524 112.981 222.116 108.739 224.473C105.44 226.358 101.905 228.244 99.0773 230.836C93.4216 236.491 91.0651 245.446 92.479 255.815C92.9503 255.815 92.7146 256.051 92.479 256.051C92.7146 256.051 92.7146 256.051 92.479 256.051Z" fill="#0037A2"/>
<path d="M88.2375 248.981C88.2375 248.981 88.0018 248.981 88.2375 248.981C85.6452 244.268 85.8809 238.612 86.3522 234.37C86.3522 233.192 86.5879 232.25 86.8235 231.071C87.2948 227.301 87.7661 223.53 87.2948 219.76C86.5879 213.868 83.76 208.213 79.2825 204.442C76.4547 201.85 72.9199 200.2 69.385 198.315C68.2068 197.608 66.7928 196.901 65.6146 196.194C59.4875 192.895 55.9527 189.36 54.3031 185.118C54.3031 184.883 54.3031 184.883 54.5388 184.883C54.7744 184.883 54.7744 184.883 54.7744 185.118C56.424 189.125 59.9588 192.659 65.8502 195.959C67.0285 196.666 68.4424 197.373 69.6207 198.08C72.9199 199.729 76.4547 201.614 79.5182 204.207C83.9957 208.213 87.0592 213.868 87.7661 219.76C88.2375 223.53 87.7661 227.536 87.2948 231.071C87.0592 232.25 87.0592 233.192 86.8235 234.37C86.3522 238.612 86.1166 244.032 88.4731 248.51C88.4731 248.745 88.4731 248.981 88.2375 248.981C88.2375 248.981 88.4731 248.981 88.2375 248.981Z" fill="#0037A2"/>
<path d="M91.772 258.879C91.772 258.879 91.5363 258.643 91.772 258.879C90.8293 253.459 88.0015 248.745 85.6449 244.739L71.5056 220.938C70.7986 219.76 70.3273 218.817 69.1491 218.11C67.7351 217.168 66.0855 216.932 64.6716 216.696C62.0794 216.461 59.4872 216.696 57.1306 217.403C56.895 217.403 56.895 217.403 56.895 217.168C56.895 216.932 56.895 216.932 57.1306 216.932C59.7228 216.225 62.3151 215.989 64.9073 216.225C66.3212 216.225 68.2064 216.461 69.6204 217.639C70.7986 218.346 71.5056 219.524 71.9769 220.703L86.1162 244.504C88.7084 248.745 91.5363 253.459 92.0076 258.643C92.0076 258.643 92.0076 258.879 91.772 258.879Z" fill="#0037A2"/>
<path d="M105.204 164.616C105.204 164.616 73.8622 195.958 96.0137 222.823C96.0137 222.823 102.848 219.288 106.854 207.977C109.682 200.436 109.682 192.188 107.561 184.411C106.147 179.934 104.969 173.335 105.204 164.616Z" fill="#03C9BC"/>
<path d="M111.332 215.046C113.217 213.868 115.338 213.161 117.694 212.69C120.522 212.218 125.235 210.569 128.063 204.442C128.063 204.442 128.299 205.384 128.299 207.034C128.299 204.913 128.063 203.499 128.063 203.499C125.235 209.626 120.522 211.276 117.694 211.747C115.338 212.218 113.217 212.69 111.332 214.104C103.791 218.817 102.612 223.294 102.848 225.886C103.084 223.058 104.733 219.288 111.332 215.046Z" fill="#5D9EF6"/>
<path d="M128.299 203.499C128.299 203.499 132.776 224.472 103.555 228.243C103.555 228.243 99.0777 221.644 111.332 214.104C113.217 212.925 115.338 212.218 117.694 211.747C120.758 211.276 125.235 209.626 128.299 203.499Z" fill="#03C9BC"/>
<path d="M87.5305 214.811C87.5305 214.811 51.2396 206.092 50.0613 174.75C50.0613 174.75 56.8953 183.469 66.7929 185.59C66.5572 185.59 88.4731 195.959 87.5305 214.811Z" fill="#03C9BC"/>
<path d="M104.969 297.291H80.6965C77.8686 297.291 75.5121 295.17 75.0408 292.342L68.6781 247.567H115.573L110.625 292.106C110.389 295.17 108.032 297.291 104.969 297.291Z" fill="white"/>
<path d="M111.803 283.386L115.102 252.044H69.3849L69.8563 255.343L111.803 283.386Z" fill="#E3F0FF"/>
<path d="M104.969 297.761H80.6963C77.6328 297.761 75.0406 295.405 74.5692 292.577L67.9709 247.331H116.045L111.096 292.341C110.86 295.405 108.268 297.761 104.969 297.761ZM69.1492 248.274L75.5119 292.341C75.9832 294.933 78.1041 296.819 80.6963 296.819H104.969C107.561 296.819 109.918 294.933 110.153 292.106L115.102 248.038H69.1492V248.274Z" fill="#0037A2"/>
<path d="M118.872 245.682H65.6144V252.987H118.872V245.682Z" fill="white"/>
<path d="M119.344 253.458H65.1434V245.21H119.344V253.458ZM66.086 252.515H118.401V246.153H66.086V252.515Z" fill="#0037A2"/>
<path d="M402.366 251.562C405.429 246.378 411.321 243.315 417.212 242.136C423.103 241.194 429.23 242.136 435.122 243.55C432.294 247.321 433.237 252.505 433.001 257.218C433.001 262.638 431.351 268.058 428.052 272.064C426.167 274.421 423.575 276.306 420.511 277.249C417.448 278.192 414.855 277.72 411.792 277.72C410.142 277.72 408.493 278.192 407.079 277.72C404.958 277.013 403.78 274.657 403.073 272.536C402.601 270.651 402.601 268.765 401.894 266.88C401.423 265.23 400.48 263.817 400.009 261.931C399.773 258.632 400.48 254.626 402.366 251.562Z" fill="#B4D9FF"/>
<path d="M371.73 246.849C373.851 242.608 376.915 238.837 379.507 234.831C382.099 230.589 383.985 226.112 385.398 221.163C388.462 228.94 397.653 232.475 402.837 239.073C405.9 243.079 407.079 248.028 407.079 252.977C406.843 258.397 405.193 263.581 401.423 267.587C401.187 267.823 401.187 268.058 400.952 268.058C399.773 269.237 398.831 270.415 397.652 271.593C397.181 272.065 396.474 272.772 395.532 272.772C395.06 272.772 394.825 272.536 394.589 272.536C392.232 271.593 389.64 271.829 387.048 271.358C384.691 270.886 382.335 270.179 380.214 269.237C375.972 267.587 371.966 264.995 370.317 260.517C368.667 256.276 369.61 251.091 371.73 246.849Z" fill="#1964F1"/>
<path d="M403.78 285.026L402.837 284.555C408.493 271.358 415.327 257.69 426.874 248.971L427.345 249.678C416.034 258.397 409.436 271.829 403.78 285.026Z" fill="#0037A2"/>
<path d="M394.825 281.491L393.883 281.255C395.768 266.88 393.411 251.563 387.049 238.366L387.991 237.895C394.354 251.563 396.71 266.88 394.825 281.491Z" fill="#0037A2"/>
<path d="M186.742 25.8046C188.156 31.9317 194.518 37.1161 200.645 37.1161C206.772 37.1161 210.543 32.1673 209.129 25.8046C207.715 19.6776 201.352 14.4932 195.225 14.4932C189.098 14.4932 185.092 19.4419 186.742 25.8046Z" fill="#03BCB0"/>
<path d="M194.99 30.2824L191.926 26.2762L194.754 24.1553L195.932 25.8049L201.588 21.0918L203.473 23.4483L194.99 30.2824Z" fill="white"/>
<path d="M333.555 141.275H332.612V290.209H333.555V141.275Z" fill="#E3F0FF"/>
<path d="M332.612 141.275H324.6V290.209H332.612V141.275Z" fill="#E3F0FF"/>
<path d="M324.835 141.275H316.823V290.209H324.835V141.275Z" fill="#E3F0FF"/>
<path d="M316.823 141.275H308.81V290.209H316.823V141.275Z" fill="#E3F0FF"/>
<path d="M308.811 141.275H300.798V290.209H308.811V141.275Z" fill="#E3F0FF"/>
<path d="M301.034 141.275H293.022V290.209H301.034V141.275Z" fill="#E3F0FF"/>
<path d="M293.022 141.275H285.009V290.209H293.022V141.275Z" fill="#F7FAFF"/>
<path d="M285.009 141.275H276.997V290.209H285.009V141.275Z" fill="#E3F0FF"/>
<path d="M277.233 141.275H269.221V290.209H277.233V141.275Z" fill="#E3F0FF"/>
<path d="M269.221 141.275H261.208V290.209H269.221V141.275Z" fill="#E3F0FF"/>
<path d="M261.208 141.275H253.196V290.209H261.208V141.275Z" fill="#E3F0FF"/>
<path d="M253.432 141.275H245.419V290.209H253.432V141.275Z" fill="#E3F0FF"/>
<path d="M245.419 141.275H237.407V290.209H245.419V141.275Z" fill="#F7FAFF"/>
<path d="M237.407 141.275H229.395V290.209H237.407V141.275Z" fill="#E3F0FF"/>
<path d="M229.63 141.275H221.618V290.209H229.63V141.275Z" fill="#F7FAFF"/>
<path d="M221.618 141.275H213.606V290.209H221.618V141.275Z" fill="#F7FAFF"/>
<path d="M213.606 141.275H205.594V290.209H213.606V141.275Z" fill="white"/>
<path d="M205.829 141.275H197.817V290.209H205.829V141.275Z" fill="#F7FAFF"/>
<path d="M197.817 141.275H189.805V290.209H197.817V141.275Z" fill="#F7FAFF"/>
<path d="M190.04 141.275H182.028V290.209H190.04V141.275Z" fill="white"/>
<path d="M182.028 141.275H174.016V290.209H182.028V141.275Z" fill="white"/>
<path d="M174.016 141.275H166.003V290.209H174.016V141.275Z" fill="white"/>
<path d="M166.239 141.275H158.227V290.209H166.239V141.275Z" fill="white"/>
<path d="M158.227 141.275H150.215V290.209H158.227V141.275Z" fill="white"/>
<path d="M150.215 141.275H142.202V290.209H150.215V141.275Z" fill="white"/>
<path d="M133.555 288.559H333.155L309.825 145.752C309.354 142.925 306.762 140.804 303.934 140.804H114.467C111.639 140.804 109.754 142.925 110.225 145.752L133.555 288.559Z" fill="#E3F0FF"/>
<path d="M334.026 290.445H133.483L110.153 147.402C109.918 145.517 110.625 143.632 112.51 142.454L115.574 140.568H115.809L304.569 141.511C307.632 141.511 310.46 143.868 310.932 146.931L334.026 290.445ZM134.426 289.502H333.083L309.753 147.167C309.282 144.575 306.926 142.454 304.333 142.454L115.809 141.511L112.981 143.161C111.567 143.868 110.86 145.517 111.096 146.931L134.426 289.502Z" fill="#0037A2"/>
<path d="M136.547 288.56H336.147L312.817 145.753C312.345 142.926 309.753 140.805 306.925 140.805H117.459C114.631 140.805 112.746 142.926 113.217 145.753L136.547 288.56Z" fill="#1964F1"/>
<path d="M335.911 289.031C335.675 289.031 335.44 288.796 335.44 288.56L312.11 145.753C311.639 143.161 309.282 141.04 306.69 141.04H117.459C116.281 141.04 115.338 141.511 114.631 142.218C113.924 143.161 113.688 144.103 113.924 145.282L135.369 276.542C135.369 276.777 135.133 277.013 134.897 277.013C134.662 277.013 134.426 276.777 134.426 276.542L112.981 145.282C112.746 143.868 112.981 142.454 113.924 141.276C114.867 140.333 116.045 139.626 117.459 139.626H306.926C309.989 139.626 312.817 141.983 313.288 145.046L336.618 287.853C336.618 288.796 336.382 289.031 335.911 289.031C336.147 289.031 336.147 289.031 335.911 289.031Z" fill="#0037A2"/>
<path d="M326.72 280.548L305.04 149.053H121.7L143.145 280.548H326.72Z" fill="#B4D9FF"/>
<path d="M140.317 297.279H413.206C417.683 297.279 421.218 293.745 421.218 289.267C421.218 284.79 417.683 281.255 413.206 281.255H140.317C135.84 281.255 132.305 284.79 132.305 289.267C132.069 293.745 135.84 297.279 140.317 297.279Z" fill="white"/>
<path d="M140.317 291.624H413.206C416.741 291.624 419.569 289.503 420.747 286.439C420.982 287.382 421.218 288.325 421.218 289.267C421.218 293.745 417.683 297.28 413.206 297.28H140.317C135.84 297.28 132.305 293.745 132.305 289.267C132.305 288.325 132.541 287.382 132.776 286.439C133.954 289.503 136.782 291.624 140.317 291.624Z" fill="#F7FAFF"/>
<path d="M335.911 286.439H354.056C357.591 286.439 360.89 284.318 362.304 281.255H327.427C329.077 284.554 332.376 286.439 335.911 286.439Z" fill="#B4D9FF"/>
<path d="M413.206 297.75H140.317C135.604 297.75 131.833 293.98 131.833 289.267C131.833 284.554 135.604 280.783 140.317 280.783H413.206C417.919 280.783 421.689 284.554 421.689 289.267C421.689 293.98 417.919 297.75 413.206 297.75ZM140.317 281.726C136.075 281.726 132.776 285.025 132.776 289.267C132.776 293.509 136.075 296.808 140.317 296.808H413.206C417.447 296.808 420.747 293.509 420.747 289.267C420.747 285.025 417.447 281.726 413.206 281.726H140.317Z" fill="#0037A2"/>
<path d="M140.317 297.279H282.653C287.13 297.279 290.665 293.745 290.665 289.267C290.665 284.79 287.13 281.255 282.653 281.255H140.317C135.84 281.255 132.305 284.79 132.305 289.267C132.069 293.745 135.84 297.279 140.317 297.279Z" fill="white"/>
<path d="M282.417 297.75H140.317C135.604 297.75 131.833 293.98 131.833 289.267C131.833 284.554 135.604 280.783 140.317 280.783H282.653C287.366 280.783 291.136 284.554 291.136 289.267C291.136 293.98 287.13 297.75 282.417 297.75ZM140.317 281.726C136.075 281.726 132.776 285.025 132.776 289.267C132.776 293.509 136.075 296.808 140.317 296.808H282.653C286.894 296.808 290.194 293.509 290.194 289.267C290.194 285.025 286.894 281.726 282.653 281.726H140.317Z" fill="#0037A2"/>
<path d="M158.934 287.382H146.444V290.917H158.934V287.382Z" fill="#0037A2"/>
<path d="M174.016 287.382H161.526V290.917H174.016V287.382Z" fill="#0037A2"/>
<g opacity="0.3">
<path d="M299.385 266.88H323.657C318.473 259.81 310.46 243.55 310.225 243.079C307.161 235.773 301.977 227.29 300.092 219.749C300.092 219.513 287.838 140.333 287.838 140.333H166.239L177.08 210.323C180.143 230.589 188.155 250.148 199.938 266.88H223.975H225.153H248.719H249.897H273.463H274.641H298.206H299.385Z" fill="#00256D"/>
</g>
<path d="M315.173 259.575H191.454C179.672 242.844 171.659 223.284 168.596 203.018L148.565 72.4648H272.284L292.315 203.018C295.378 223.52 303.155 242.844 315.173 259.575Z" fill="#0040BC"/>
<path d="M277.94 236.953H302.212C301.977 236.717 301.977 236.246 301.741 236.01H277.469C274.405 228.705 271.813 221.164 270.163 213.623H294.436C294.436 213.387 294.2 212.916 294.2 212.68H269.928C269.221 209.617 268.749 206.789 268.278 203.725L266.157 190.293H290.194L289.958 189.35H265.921L262.622 166.963H286.659L286.423 166.02H262.387L259.087 143.633H283.124L282.889 142.69H258.852L255.553 120.303H279.589L279.354 119.361H255.317L252.018 96.9733H276.055L275.819 96.0307H251.782L248.247 72.9365H247.305L250.84 96.0307H227.038L223.504 72.9365H222.561L226.096 96.0307H202.295L198.76 72.9365H197.817L201.352 96.0307H177.551L174.016 73.1722H173.073L176.608 96.0307H152.1L152.336 96.9733H176.844L180.143 119.361H155.635L155.871 120.303H180.379L183.678 142.69H159.17L159.405 143.633H183.913L187.213 166.02H162.94L163.176 166.963H187.448L190.747 189.35H166.475L166.711 190.293H190.983L193.104 203.725C193.575 206.789 194.047 209.852 194.754 212.68H170.481C170.481 212.916 170.717 213.387 170.717 213.623H194.989C196.875 221.399 199.231 228.705 202.295 236.01H178.022C178.258 236.246 178.258 236.717 178.493 236.953H202.766C206.301 244.965 210.542 252.741 215.727 260.047H216.905C216.905 260.047 216.905 260.047 216.905 259.811C211.956 252.741 207.479 244.965 203.944 236.953H227.745C231.28 244.965 235.522 252.741 240.706 259.811H241.885C236.7 252.741 232.458 244.965 228.924 236.953H252.725C256.26 244.965 260.501 252.741 265.45 259.811H266.628C261.68 252.741 257.202 244.965 253.667 236.953H277.469C281.003 244.965 285.245 252.741 290.194 259.811H291.372C285.717 252.506 281.475 244.965 277.94 236.953ZM267.1 203.725C267.571 206.789 268.042 209.617 268.749 212.444H244.948C244.241 209.381 243.77 206.553 243.299 203.489L241.178 190.057H264.979L267.1 203.725ZM233.165 143.162L236.465 165.549H212.663L209.364 143.162H233.165ZM209.364 142.219L206.065 119.832H229.866L233.165 142.219H209.364ZM236.7 166.727L239.999 189.115H216.198L212.899 166.727H236.7ZM240.471 190.057L242.592 203.725C243.063 206.789 243.534 209.617 244.241 212.68H220.44C219.733 209.617 219.262 206.553 218.79 203.489L216.67 190.057H240.471ZM264.979 189.115H241.178L237.879 166.727H261.68L264.979 189.115ZM261.444 165.785H237.643L234.344 143.397H258.145L261.444 165.785ZM257.909 142.455H234.108L230.809 120.068H254.61L257.909 142.455ZM250.84 96.502L254.139 118.889H230.338L227.038 96.502H250.84ZM226.096 96.502L229.395 118.889H205.594L202.295 96.502H226.096ZM177.551 96.502H201.352L204.651 118.889H180.85L177.551 96.502ZM181.086 119.832H204.887L208.186 142.219H184.385L181.086 119.832ZM184.62 143.162H208.422L211.721 165.549H187.92L184.62 143.162ZM188.155 166.492H211.956L215.256 188.879H191.454L188.155 166.492ZM193.811 203.254L191.69 189.821H215.491L217.612 203.254C218.083 206.317 218.555 209.145 219.262 212.209H195.461C194.754 209.381 194.282 206.317 193.811 203.254ZM203.237 235.774C200.174 228.469 197.581 220.928 195.696 213.387H219.497C221.383 221.164 223.739 228.469 226.803 235.774H203.237ZM227.981 235.774C224.917 228.469 222.325 220.928 220.44 213.387H244.241C246.126 221.164 248.483 228.469 251.546 235.774H227.981ZM252.725 235.774C249.661 228.469 247.069 220.928 245.419 213.387H269.221C271.106 221.164 273.462 228.469 276.526 235.774H252.725Z" fill="#1964F1"/>
<g opacity="0.5">
<path d="M268.278 138.92L238.585 128.551L221.147 152.352L222.089 178.745L251.782 189.35L269.22 165.549L268.278 138.92Z" fill="#00256D"/>
</g>
<path d="M249.19 155.179L219.497 144.811L220.44 171.204L250.133 181.808L249.19 155.179Z" fill="#B4D9FF"/>
<path d="M236.936 121.01L219.498 144.811L249.19 155.18L266.629 131.379L236.936 121.01Z" fill="white"/>
<path d="M266.628 131.379L249.19 155.18L250.132 181.809L267.571 158.008L266.628 131.379Z" fill="#B4D9FF"/>
<path d="M250.133 173.796C249.897 173.796 249.661 173.56 249.661 173.325L248.954 155.179C248.954 154.944 249.19 154.708 249.426 154.708C249.661 154.708 249.897 154.944 249.897 155.179L250.604 173.325C250.604 173.56 250.368 173.796 250.133 173.796Z" fill="#03C9BC"/>
<path d="M248.483 171.675L250.133 173.089L251.547 171.439V172.853L250.133 174.503L248.483 172.853V171.675Z" fill="#03C9BC"/>
<path d="M249.19 155.651H248.954C248.719 155.415 248.719 155.18 248.954 154.944L258.381 142.219C258.616 141.983 258.852 141.983 259.088 142.219C259.323 142.454 259.323 142.69 259.088 142.926L249.661 155.651C249.426 155.651 249.426 155.651 249.19 155.651Z" fill="#0037A2"/>
<path d="M258.852 144.811L258.38 142.69L256.259 142.926L256.966 141.983L259.323 141.512L259.559 143.868L258.852 144.811Z" fill="#0037A2"/>
<path d="M249.19 155.651L233.637 150.231C233.401 150.231 233.165 149.759 233.401 149.524C233.401 149.288 233.872 149.052 234.108 149.288L249.661 154.708C249.897 154.708 250.132 155.179 249.897 155.415C249.661 155.651 249.425 155.651 249.19 155.651Z" fill="#1964F1"/>
<path d="M235.051 151.881L234.108 149.76L235.993 148.817L234.815 148.346L232.694 149.524L233.637 151.409L235.051 151.881Z" fill="#1964F1"/>
<path d="M368.432 278.98C372.099 285.806 372.099 296.809 372.099 296.809H319.651C319.651 296.809 319.416 290.999 319.651 286.993L368.432 278.98Z" fill="#0040BC"/>
<path d="M328.135 149.37C328.135 149.37 337.326 155.262 333.555 171.051C332.141 177.413 358.063 161.389 358.063 161.389C358.063 161.389 354.529 154.083 355.707 150.313L336.148 144.657L328.135 149.37Z" fill="white"/>
<path d="M334.733 173.171C339.918 173.171 355 163.981 358.299 161.86L358.77 161.624L358.534 161.153C358.534 161.153 355 154.083 356.414 150.313L356.649 149.842L336.383 143.95L327.428 149.135L328.135 149.606C328.135 149.606 336.854 155.733 333.319 170.815C333.084 171.758 333.555 172.229 333.791 172.464C334.026 173.171 334.262 173.171 334.733 173.171ZM357.592 161.389C349.58 166.337 336.383 173.643 334.262 172.229C334.262 172.229 334.026 171.993 334.262 171.522C337.325 158.09 331.198 151.491 329.313 149.606L336.618 145.364L355.471 150.784C354.528 154.319 356.885 159.739 357.592 161.389Z" fill="#0037A2"/>
<path d="M328.135 149.37C328.135 149.37 331.906 151.962 333.555 158.089L338.033 155.026L352.643 148.427L336.147 144.893L328.135 149.37Z" fill="#B4D9FF"/>
<path d="M333.555 112.843C333.555 112.843 328.37 114.257 327.192 116.378L325.543 119.913C324.364 122.741 323.657 125.804 323.422 128.868L318.237 139.708C317.766 140.415 318.237 141.593 319.18 141.829L321.536 142.3L320.829 153.376C320.358 157.147 324.6 159.739 327.663 157.618L337.561 152.669L355.706 150.548C355.706 150.548 355.235 141.122 359.241 137.823C359.241 137.587 369.61 112.372 333.555 112.843Z" fill="white"/>
<path d="M325.307 158.797C326.25 158.797 327.192 158.561 327.899 158.09L337.797 153.141C338.032 153.141 338.032 152.669 338.032 152.434C338.032 152.198 337.561 152.198 337.325 152.198L327.428 157.147C326.014 158.09 324.6 158.09 323.186 157.147C321.772 156.204 321.065 154.79 321.301 153.376L322.008 142.065L319.18 141.594C318.944 141.594 318.709 141.358 318.709 141.122C318.709 140.887 318.709 140.651 318.709 140.415L323.893 129.575V129.34C324.129 126.276 324.836 123.213 326.014 120.62L327.663 117.086C328.37 115.436 332.141 114.258 333.555 113.786C345.809 113.551 353.821 116.379 357.827 122.034C362.54 128.868 359.006 137.823 359.006 137.823C359.006 138.059 359.006 138.294 359.241 138.53C359.477 138.53 359.713 138.53 359.948 138.294C360.184 137.823 363.719 128.868 358.77 121.563C354.764 115.672 346.28 112.844 333.791 112.844C333.555 112.844 328.37 114.258 327.192 116.614L325.543 120.149C324.129 122.977 323.422 126.04 323.422 129.34L318.237 139.944C318.002 140.415 318.002 141.122 318.237 141.594C318.473 142.065 318.944 142.536 319.416 142.772L321.536 143.243L320.829 153.848C320.594 155.733 321.536 157.618 323.186 158.561C323.657 158.325 324.6 158.797 325.307 158.797Z" fill="#0037A2"/>
<path d="M362.776 119.913C362.541 119.206 362.069 118.263 361.598 117.792C358.535 113.55 352.407 114.729 347.93 113.786C343.688 112.843 339.682 110.958 335.44 110.016C331.199 109.073 326.25 109.073 322.951 112.136C321.301 113.55 320.83 115.671 321.537 117.557C322.008 118.735 322.715 119.677 323.658 120.62C324.129 121.091 324.6 121.798 325.307 122.27C326.014 122.741 326.721 122.977 327.428 123.448C329.313 124.391 335.205 125.097 336.147 127.218C337.326 129.575 333.791 134.759 333.319 137.352C332.612 140.886 332.377 144.421 331.905 147.956C331.905 148.427 331.67 148.663 331.434 149.134C330.963 149.841 330.02 149.606 329.078 149.37C328.842 147.956 328.606 146.542 328.135 145.364C327.899 144.186 327.428 143.007 326.485 142.3C324.365 140.886 321.301 141.829 320.123 143.95C319.651 144.892 319.651 146.071 319.651 147.249C319.651 150.313 319.416 153.14 319.416 156.204C319.416 157.618 319.416 159.032 320.358 160.21C321.301 161.388 322.951 161.388 324.6 161.388C327.192 161.388 329.785 159.974 332.377 159.032C334.733 158.325 336.619 156.911 338.739 155.497C340.153 154.554 341.567 153.376 342.51 151.726C343.453 150.077 343.453 147.956 342.274 146.542C340.86 144.892 338.033 144.657 337.326 142.3C336.619 140.179 337.797 137.587 338.975 135.938C339.682 134.759 340.625 133.817 342.039 133.817C342.981 133.817 343.924 134.524 344.395 135.231C346.045 137.823 345.809 141.829 346.28 144.657C346.752 147.485 347.459 150.077 350.287 151.02C352.643 151.962 355.707 152.433 358.063 151.02C360.184 149.841 360.655 146.306 361.362 143.95C363.248 137.587 363.955 130.989 363.719 124.39C363.248 122.977 363.248 121.327 362.776 119.913Z" fill="#03C9BC"/>
<path d="M350.051 261.542C350.051 261.542 373.145 250.23 391.29 241.276C398.124 237.741 400.481 229.021 396.003 222.659L362.776 180.712C358.299 175.056 349.815 173.878 343.924 178.356C337.325 183.304 336.854 192.966 342.745 198.858L369.139 224.308C370.317 225.487 370.081 227.608 368.667 228.55L342.745 249.995L350.051 261.542Z" fill="#0037A2"/>
<path d="M356.885 196.973C357.828 197.915 358.771 199.093 359.713 200.036C364.426 204.514 371.025 206.399 376.209 210.169C380.687 213.468 393.176 227.843 383.75 232.321C382.101 233.028 379.98 233.263 378.33 234.206C376.209 235.149 374.56 237.27 372.674 238.683C370.082 240.804 366.783 241.747 364.426 244.104C362.777 245.517 361.599 247.403 360.185 249.052C357.121 252.587 351.23 255.651 346.517 255.886L342.746 249.995L368.668 228.55C370.082 227.608 370.318 225.487 369.139 224.309L342.746 198.858C338.74 195.087 337.797 189.667 339.447 184.954C341.568 186.368 343.924 188.018 345.81 189.903C347.695 191.788 348.402 191.788 350.758 192.495C353.115 193.438 355 195.087 356.885 196.973Z" fill="#00256D"/>
<path d="M316.823 293.119L315.881 210.169C317.059 180.712 332.848 169.165 344.395 164.687C351.229 162.095 359.006 163.273 364.426 168.222C369.846 172.935 375.737 180.005 375.502 187.31C375.266 196.265 369.375 220.773 370.317 233.027C371.731 252.115 377.387 291.47 377.387 291.47C366.782 303.724 346.752 282.75 316.823 293.119Z" fill="#0037A2"/>
<path d="M355.707 281.573C358.534 284.872 359.477 289.349 360.184 293.591C360.184 293.827 360.184 294.062 360.42 294.534C349.58 292.177 334.969 286.993 316.824 293.355L315.881 210.405C317.059 180.948 332.848 169.401 344.395 164.923C347.93 163.509 351.7 163.274 355.235 163.981C358.299 170.108 359.948 176.942 357.356 183.069C355.942 186.368 353.821 189.196 351.465 192.024C347.223 197.444 343.453 203.1 341.096 209.462C338.975 215.825 338.504 223.13 341.332 229.257C343.453 233.97 347.694 237.977 348.637 243.161C349.58 248.11 347.459 253.294 345.573 258.007C343.924 262.956 342.746 268.612 345.573 272.853C348.166 276.624 352.879 278.274 355.707 281.573Z" fill="#00256D"/>
<path d="M290.979 174.438L290.468 175.264C290.324 175.713 289.804 175.794 289.355 175.651L259.024 158.301L256.178 157.144L259.388 151.738L261.723 153.72L290.52 173.549C290.969 173.693 291.05 174.213 290.979 174.438Z" fill="#0037A2"/>
<path d="M252.968 150.925C252.743 150.853 252.672 151.078 252.968 150.925C252.672 151.078 252.672 151.078 252.896 151.149L253.498 151.589L253.722 151.66L253.794 151.436L252.968 150.925Z" fill="#0037A2"/>
<path d="M253.049 151.446C252.896 151.15 253.121 151.221 253.192 150.997L259.459 151.513C259.622 152.555 257.137 156.462 256.249 156.92L253.049 151.446Z" fill="#0037A2"/>
<path d="M258.193 151.603C257.467 153.103 256.741 154.603 255.638 155.735C255.566 155.96 255.791 156.031 255.943 156.327C257.119 154.971 258.141 153.318 258.867 151.818C258.418 151.675 258.193 151.603 258.193 151.603Z" fill="#0037A2"/>
<path d="M256.479 151.551C255.896 152.602 255.385 153.428 254.802 154.479L254.955 154.775C255.762 153.796 256.345 152.745 256.928 151.694C256.479 151.551 256.479 151.551 256.479 151.551Z" fill="#0037A2"/>
<path d="M263.404 156.978C263.18 156.906 262.955 156.834 262.884 157.059L262.373 157.885C262.301 158.11 262.229 158.334 262.454 158.406L270.34 163.149C270.564 163.221 270.789 163.293 270.86 163.068L271.371 162.242C271.443 162.017 271.515 161.793 271.29 161.721L263.404 156.978Z" fill="#0037A2"/>
<path d="M263.18 156.906C262.956 156.835 262.731 156.763 262.659 156.988L262.148 157.814C262.077 158.038 262.005 158.263 262.229 158.335L270.115 163.078C270.34 163.15 270.564 163.221 270.636 162.997L271.147 162.171C271.219 161.946 271.29 161.722 271.066 161.65L263.18 156.906Z" fill="#0037A2"/>
<path d="M263.782 157.346C263.557 157.274 263.333 157.203 263.261 157.427L262.822 158.029C262.75 158.253 262.678 158.478 262.903 158.55L264.78 159.643C265.004 159.715 265.229 159.787 265.301 159.562L265.74 158.96C265.812 158.736 265.883 158.511 265.659 158.44L263.782 157.346Z" fill="#0037A2"/>
<path d="M271.868 166.111C271.868 166.111 271.797 166.335 271.725 166.56L262.473 159.896L262.177 160.049C261.074 161.181 261.623 163.335 263.204 164.582L269.68 169.865L262.172 165.489L261.876 165.642C260.997 166.846 261.618 168.776 263.423 170.094L266.657 172.363L262.544 171.298L262.554 172.043C262.501 173.758 263.337 175.014 264.755 175.219L264.98 175.291L269.536 181.94C270.453 183.717 271.667 185.341 272.951 186.741L276.347 190.051L305.748 234.36C307.195 236.801 309.198 235.807 311.639 234.36L352.879 201.368C357.24 198.555 359.813 197.875 357.592 193.208C354.607 187.06 349.668 188.966 344.356 193.208L314.109 217.442C307.666 208.954 290.868 194.934 284.468 183.986C282.868 181.248 281.617 176.644 280.915 174.193L279.998 160.79L279.774 160.719C278.355 160.513 276.965 162.543 276.994 164.778L276.869 166.718L274.811 163.092C274.047 161.611 272.843 160.732 271.558 159.333L264.112 153.987C263.663 153.844 263.367 153.997 263.223 154.446L262.65 156.242L270.646 163.742L271.868 166.111Z" fill="white"/>
<path d="M307.665 233.784C306.318 233.354 305.338 232.547 304.503 231.29L276.428 190.572L273.032 187.262C271.523 185.79 269.617 182.461 269.393 182.389L264.836 175.74C263.193 175.463 262.204 173.91 262.329 171.971L262.463 170.777L264.259 171.35L263.432 170.839C262.453 170.032 261.546 169 261.383 167.959C261.149 167.142 261.364 166.468 261.804 165.867L262.243 165.265L264.947 166.87L262.988 165.255C262.009 164.448 261.398 163.263 261.307 161.998C261.298 161.252 261.513 160.579 261.952 159.977L262.392 159.375L271.113 165.375L270.574 163.966L262.955 156.834C262.578 156.466 262.497 155.946 262.64 155.497L263.07 154.15C263.285 153.476 263.877 153.171 264.551 153.386L272.222 158.803C272.599 159.171 272.824 159.242 272.976 159.538C273.884 160.57 274.863 161.377 275.474 162.562L276.769 164.707L276.84 164.482C276.821 162.992 277.323 161.421 278.283 160.738C278.947 160.207 279.468 160.126 279.988 160.045L280.734 160.036L281.507 173.888C282.209 176.338 283.46 180.943 285.06 183.68C288.718 190.042 296.346 197.919 303.066 204.765C307.594 209.179 311.673 213.449 314.252 216.993L344.131 193.136C346.787 191.015 350.207 190.376 353.422 191.154C356.636 191.933 359.421 194.059 360.878 197.245C363.251 202.208 355.18 199.581 350.522 202.547L311.686 233.583C310.43 234.419 308.868 234.663 307.45 234.457C307.889 233.855 307.665 233.784 307.665 233.784ZM265.572 174.985L270.281 181.931C270.281 181.931 272.411 185.332 273.696 186.731L277.317 190.113L305.319 231.056C305.931 232.241 306.982 232.824 308.104 233.182C309.226 233.54 310.564 233.225 311.749 232.614L350.584 201.577C354.721 198.692 362.578 201.993 360.51 197.622C359.206 194.732 356.646 192.678 353.656 191.971C350.666 191.264 347.47 191.976 345.11 193.943L314.496 218.555L314.119 218.188C311.539 214.643 307.236 210.301 302.708 205.887C295.988 199.042 288.288 191.389 284.477 184.731C282.877 181.994 281.626 177.389 280.771 174.642L280.007 161.535C279.487 161.617 279.191 161.769 279.119 161.994C278.383 162.749 278.025 163.871 277.891 165.065L277.939 168.791L274.82 163.837C274.209 162.653 273.454 161.917 272.475 161.11C272.322 160.814 271.873 160.67 271.72 160.374L264.274 155.029L263.978 155.182L263.548 156.529C263.476 156.753 263.476 156.753 263.701 156.825L271.319 163.957L272.317 166.254C272.245 166.479 272.47 166.55 272.326 166.999L272.111 167.673L262.707 160.713C262.339 161.09 262.42 161.611 262.277 162.06C262.215 163.029 262.898 163.99 263.724 164.501L269.823 169.416C270.048 169.488 270.129 170.008 269.833 170.161C269.761 170.386 269.465 170.539 269.016 170.395L262.558 166.602C262.191 166.98 262.272 167.5 262.353 168.021C262.587 168.838 263.045 169.726 264.096 170.309L266.952 172.21C267.177 172.282 267.33 172.578 267.186 173.027C267.115 173.252 266.819 173.404 266.594 173.333L263.676 172.401C263.47 173.82 264.378 174.852 265.5 175.21L265.572 174.985Z" fill="#0037A2"/>
<g opacity="0.4">
<path d="M264.835 175.012C264.835 175.012 264.634 174.948 264.835 175.012C264.095 174.551 263.425 174.562 263.282 173.618C263.341 172.739 264.141 172.321 264.881 172.782C265.486 172.975 265.824 173.307 266.097 173.843C271.302 179.097 276.371 184.083 280.646 190.163C282.479 192.769 283.914 195.921 285.415 198.87C286.916 201.819 289.21 203.674 291.309 206.14C295.033 210.472 298.158 215.287 300.484 220.519C301.51 222.868 302.998 224.466 303.693 227.157C304.759 226.599 305.825 226.042 307.028 225.752C311.104 224.808 314.335 219.552 316.851 216.539C318.243 214.962 319.569 213.589 321.097 212.281C321.961 211.659 322.293 211.315 323.021 210.425C323.483 209.674 324.146 208.988 325.082 208.838C326.421 208.816 328.585 211.079 329.663 211.872C331.282 213.062 332.633 214.392 333.92 215.925L307.371 233.72C305.108 235.243 302.223 234.546 300.995 232.133L275.674 188.351L272.633 185.36C271.281 184.03 270.196 182.561 269.579 181.017C269.709 180.609 266.727 176.738 266.389 176.406C265.648 175.945 265.375 175.409 264.835 175.012Z" fill="#B4D9FF"/>
</g>
<path d="M276.526 192.966C276.526 192.966 289.251 215.353 299.385 232.792C303.155 239.39 312.11 241.04 318.237 236.327L357.827 200.743C363.247 195.794 363.719 187.31 359.005 181.89C353.585 175.763 343.924 175.763 338.503 181.89L314.702 209.697C313.524 211.111 311.403 210.876 310.46 209.462L287.602 184.718L276.526 192.966Z" fill="#0037A2"/>
<path d="M278.883 191.317C280.297 192.731 282.182 193.673 283.596 195.087C289.723 200.272 291.609 208.991 297.264 214.647C301.977 219.36 309.283 221.952 311.168 228.079C319.887 222.188 328.842 216.06 334.969 207.341C338.504 202.392 341.096 196.501 345.809 192.495C350.287 188.725 355.942 187.311 361.598 187.311C363.012 192.024 361.598 197.444 357.592 200.979L317.766 236.798C311.639 241.511 302.92 239.862 298.914 233.263C288.781 215.825 276.055 193.438 276.055 193.438L278.883 191.317Z" fill="#00256D"/>
<path d="M362.305 160.682C358.299 159.268 345.574 155.733 330.963 162.567C330.256 162.803 329.785 163.745 329.785 164.452L330.256 175.528C330.256 175.528 349.108 162.803 360.42 165.866C361.127 166.102 361.598 165.631 361.834 165.159L362.776 162.567C363.248 161.624 363.012 160.918 362.305 160.682Z" fill="white"/>
<path d="M279.424 97.2751L318.922 97.6795C324.565 97.6795 328.998 92.6242 327.991 86.9623L321.139 45.7109C320.333 40.6556 315.899 36.8136 310.861 36.8136L271.363 36.4092C265.72 36.4092 261.287 41.4645 262.294 47.1264L269.146 88.3777C269.952 93.4331 274.184 97.0729 279.424 97.2751Z" fill="#1964F1"/>
<path d="M295.673 82.8336L295.202 80.0057C291.902 79.5344 288.603 77.8848 285.54 75.5283L288.603 71.0508C290.96 72.7004 292.845 73.8787 294.495 74.35L293.552 68.4586C290.724 67.7517 288.603 66.809 287.189 65.6308C285.775 64.4525 284.833 62.8029 284.597 60.4464C284.361 58.3255 284.833 56.4402 286.011 55.0263C287.189 53.6123 289.075 52.6697 291.431 52.4341L291.195 50.5488H295.202L295.437 52.4341C298.029 52.9054 300.857 53.848 303.685 55.7333L301.093 60.2107C299.208 59.0324 297.558 58.3254 296.144 57.8541L296.851 63.5099C299.679 64.2168 302.036 65.1595 303.45 66.3377C304.863 67.516 305.806 69.1656 306.277 71.5221C306.513 73.643 306.042 75.5283 304.863 76.9422C303.685 78.3562 301.8 79.2988 299.208 79.5344L299.679 82.3623H295.673V82.8336ZM292.138 58.0898C291.195 58.5611 290.724 59.2681 290.724 60.2107C290.96 61.1533 291.431 62.0959 292.845 62.5672L292.138 58.0898ZM300.15 72.2291C300.15 71.7578 299.915 71.2865 299.443 70.8152C299.208 70.3439 298.501 70.1082 297.794 69.8726L298.501 74.5857C299.915 74.35 300.386 73.4074 300.15 72.2291Z" fill="white"/>
<path d="M441.249 297.751H3.40163C3.16598 297.751 2.93033 297.516 2.93033 297.28C2.93033 297.044 3.16598 296.809 3.40163 296.809H441.249C441.485 296.809 441.72 297.044 441.72 297.28C441.72 297.516 441.485 297.751 441.249 297.751Z" fill="#0037A2"/>
<g opacity="0.5">
<path d="M192.633 190.292C196.874 190.292 199.938 186.757 199.231 182.516L191.219 130.671H192.633C194.282 130.671 195.225 129.493 194.989 127.844L188.862 88.7248C188.627 87.0752 187.213 85.897 185.563 85.897H184.149L182.264 73.6429C181.793 70.5794 179.436 67.7515 176.608 66.5732H173.78H173.545H148.094L155.163 112.762V113.233L158.463 134.442H117.459C116.752 134.442 116.28 134.442 115.573 134.678H115.338C115.102 134.678 114.866 134.913 114.631 135.149H110.625H110.389V139.155C110.153 139.862 110.153 140.569 110.153 141.512L110.389 142.69L118.637 190.292H192.633V190.292Z" fill="#00256D"/>
</g>
<path d="M51.9465 184.872H178.729C182.971 184.872 186.034 181.337 185.327 177.096L168.36 68.2229C167.653 63.9811 163.647 60.4463 159.17 60.4463H32.3871C28.1454 60.4463 25.0818 63.9811 25.7888 68.2229L42.756 177.096C43.4629 181.337 47.4691 184.872 51.9465 184.872Z" fill="white"/>
<path d="M167.182 138.684H164.59C164.354 138.684 164.119 138.448 164.119 138.213C164.119 137.977 164.354 137.741 164.59 137.741H167.182C168.125 137.741 168.832 137.27 169.067 136.327C169.067 136.092 169.303 135.856 169.774 136.092C170.01 136.092 170.246 136.327 170.01 136.799C169.539 137.977 168.36 138.684 167.182 138.684ZM158.934 138.684H153.278C153.043 138.684 152.807 138.448 152.807 138.213C152.807 137.977 153.043 137.741 153.278 137.741H158.934C159.17 137.741 159.405 137.977 159.405 138.213C159.405 138.448 159.17 138.684 158.934 138.684ZM147.387 138.684H141.731C141.496 138.684 141.26 138.448 141.26 138.213C141.26 137.977 141.496 137.741 141.731 137.741H147.387C147.623 137.741 147.858 137.977 147.858 138.213C147.858 138.448 147.623 138.684 147.387 138.684ZM136.076 138.684H130.42C130.184 138.684 129.949 138.448 129.949 138.213C129.949 137.977 130.184 137.741 130.42 137.741H136.076C136.311 137.741 136.547 137.977 136.547 138.213C136.547 138.448 136.311 138.684 136.076 138.684ZM124.764 138.684H119.108C118.873 138.684 118.637 138.448 118.637 138.213C118.637 137.977 118.873 137.741 119.108 137.741H124.764C125 137.741 125.235 137.977 125.235 138.213C125.235 138.448 125 138.684 124.764 138.684ZM113.453 138.684H107.797C107.561 138.684 107.326 138.448 107.326 138.213C107.326 137.977 107.561 137.741 107.797 137.741H113.453C113.688 137.741 113.924 137.977 113.924 138.213C113.924 138.448 113.688 138.684 113.453 138.684ZM102.141 138.684H96.4856C96.2499 138.684 96.0143 138.448 96.0143 138.213C96.0143 137.977 96.2499 137.741 96.4856 137.741H102.141C102.377 137.741 102.613 137.977 102.613 138.213C102.613 138.448 102.377 138.684 102.141 138.684ZM90.5942 138.684H84.9385C84.7028 138.684 84.4671 138.448 84.4671 138.213C84.4671 137.977 84.7028 137.741 84.9385 137.741H90.5942C90.8298 137.741 91.0655 137.977 91.0655 138.213C91.0655 138.448 91.0655 138.684 90.5942 138.684ZM79.2827 138.684H73.627C73.3914 138.684 73.1557 138.448 73.1557 138.213C73.1557 137.977 73.3914 137.741 73.627 137.741H79.2827C79.5184 137.741 79.754 137.977 79.754 138.213C79.754 138.448 79.5184 138.684 79.2827 138.684ZM67.9713 138.684H62.3156C62.0799 138.684 61.8443 138.448 61.8443 138.213C61.8443 137.977 62.0799 137.741 62.3156 137.741H67.9713C68.2069 137.741 68.4426 137.977 68.4426 138.213C68.4426 138.448 68.2069 138.684 67.9713 138.684ZM56.6598 138.684H51.0041V138.213V137.741H56.6598C56.8955 137.741 57.1312 137.977 57.1312 138.213C57.1312 138.448 56.8955 138.684 56.6598 138.684ZM51.0041 138.213V137.741V138.213ZM47.4693 134.913C47.2336 134.913 46.998 134.678 46.998 134.442L46.0554 128.786C46.0554 128.551 46.291 128.315 46.5267 128.315C46.7623 128.315 46.998 128.551 46.998 128.786L47.9406 134.442C47.9406 134.442 47.9406 134.913 47.4693 134.913C47.4693 134.913 47.7049 134.913 47.4693 134.913ZM168.832 131.379C168.596 131.379 168.36 131.143 168.36 130.907L167.418 125.252C167.418 125.016 167.653 124.78 167.889 124.78C168.125 124.78 168.36 125.016 168.36 125.252L169.303 130.907C169.303 131.143 169.067 131.379 168.832 131.379ZM45.8197 123.602C45.584 123.602 45.3484 123.366 45.3484 123.131L44.4058 117.475C44.4058 117.239 44.6414 117.004 44.8771 117.004C45.1127 117.004 45.3484 117.239 45.3484 117.475L46.291 123.131C46.291 123.366 46.0554 123.602 45.8197 123.602ZM167.182 120.303C166.946 120.303 166.711 120.067 166.711 119.831L165.768 114.176C165.768 113.94 166.004 113.704 166.239 113.704C166.475 113.704 166.711 113.94 166.711 114.176L167.653 119.831C167.653 119.831 167.418 120.303 167.182 120.303ZM43.9345 112.526C43.6988 112.526 43.4631 112.291 43.4631 112.055L42.5205 106.399C42.5205 106.163 42.7562 105.928 42.9918 105.928C43.2275 105.928 43.4631 106.163 43.4631 106.399L44.4058 112.055C44.6414 112.055 44.4058 112.291 43.9345 112.526C43.9345 112.526 44.1701 112.526 43.9345 112.526ZM165.297 108.991C165.061 108.991 164.826 108.756 164.826 108.52L163.883 102.864C163.883 102.629 164.119 102.393 164.354 102.393C164.59 102.393 164.826 102.629 164.826 102.864L165.768 108.52C165.768 108.756 165.768 108.991 165.297 108.991ZM42.2849 101.215C42.0492 101.215 41.8136 100.979 41.8136 100.743L41.1066 96.266C41.1066 96.0303 41.1066 96.0303 41.1066 95.7947C41.1066 95.559 41.1066 95.0877 41.3423 94.852C41.3423 94.6164 41.5779 94.3807 42.0492 94.6164C42.2849 94.6164 42.5205 94.852 42.2849 95.3233C42.2849 95.559 42.2849 95.7946 42.2849 96.0303C42.2849 96.266 42.2849 96.266 42.2849 96.5016L42.9918 100.979C42.7562 100.979 42.5205 101.215 42.2849 101.215ZM163.647 97.9156C163.412 97.9156 163.176 97.6799 163.176 97.4442L162.94 96.5016C162.705 95.0877 161.526 94.1451 160.112 94.1451C159.877 94.1451 159.641 93.9094 159.641 93.6738C159.641 93.4381 159.877 93.2024 160.112 93.2024C161.998 93.2024 163.647 94.6164 163.883 96.5016L164.119 97.4442C164.119 97.4442 163.883 97.6799 163.647 97.9156C163.647 97.9156 163.647 97.6799 163.647 97.9156ZM154.457 93.9094H148.801C148.565 93.9094 148.33 93.6738 148.33 93.4381C148.33 93.2024 148.565 92.9668 148.801 92.9668H154.457C154.692 92.9668 154.928 93.2024 154.928 93.4381C154.928 93.6738 154.692 93.9094 154.457 93.9094ZM143.145 93.9094H137.49C137.254 93.9094 137.018 93.6738 137.018 93.4381C137.018 93.2024 137.254 92.9668 137.49 92.9668H143.145C143.381 92.9668 143.617 93.2024 143.617 93.4381C143.617 93.6738 143.381 93.9094 143.145 93.9094ZM131.834 93.9094H126.178C125.942 93.9094 125.707 93.6738 125.707 93.4381C125.707 93.2024 125.942 92.9668 126.178 92.9668H131.834C132.069 92.9668 132.305 93.2024 132.305 93.4381C132.305 93.6738 132.069 93.9094 131.834 93.9094ZM120.522 93.9094H114.867C114.631 93.9094 114.395 93.6738 114.395 93.4381C114.395 93.2024 114.631 92.9668 114.867 92.9668H120.522C120.758 92.9668 120.994 93.2024 120.994 93.4381C120.994 93.6738 120.758 93.9094 120.522 93.9094ZM108.975 93.9094H103.32C103.084 93.9094 102.848 93.6738 102.848 93.4381C102.848 93.2024 103.084 92.9668 103.32 92.9668H108.975C109.211 92.9668 109.447 93.2024 109.447 93.4381C109.447 93.6738 109.447 93.9094 108.975 93.9094ZM97.6638 93.9094H92.0081C91.7724 93.9094 91.5368 93.6738 91.5368 93.4381C91.5368 93.2024 91.7724 92.9668 92.0081 92.9668H97.6638C97.8995 92.9668 98.1352 93.2024 98.1352 93.4381C98.1352 93.6738 97.8995 93.9094 97.6638 93.9094ZM86.3524 93.9094H80.6967C80.461 93.9094 80.2253 93.6738 80.2253 93.4381C80.2253 93.2024 80.461 92.9668 80.6967 92.9668H86.3524C86.5881 92.9668 86.8237 93.2024 86.8237 93.4381C86.8237 93.6738 86.5881 93.9094 86.3524 93.9094ZM75.0409 93.9094H69.3852C69.1496 93.9094 68.9139 93.6738 68.9139 93.4381C68.9139 93.2024 69.1496 92.9668 69.3852 92.9668H75.0409C75.2766 92.9668 75.5122 93.2024 75.5122 93.4381C75.5122 93.6738 75.2766 93.9094 75.0409 93.9094ZM63.7295 93.9094H58.0738C57.8381 93.9094 57.6025 93.6738 57.6025 93.4381C57.6025 93.2024 57.8381 92.9668 58.0738 92.9668H63.7295C63.9652 92.9668 64.2008 93.2024 64.2008 93.4381C64.2008 93.6738 63.9652 93.9094 63.7295 93.9094ZM52.4181 93.9094H46.7623C46.5267 93.9094 46.291 93.6738 46.291 93.4381C46.291 93.2024 46.5267 92.9668 46.7623 92.9668H52.4181C52.6537 92.9668 52.8894 93.2024 52.8894 93.4381C52.8894 93.6738 52.6537 93.9094 52.4181 93.9094Z" fill="#0037A2"/>
<path d="M173.073 175.682H167.418C167.182 175.682 166.946 175.446 166.946 175.21C166.946 174.975 167.182 174.739 167.418 174.739H173.073C173.309 174.739 173.545 174.975 173.545 175.21C173.545 175.446 173.309 175.682 173.073 175.682ZM161.762 175.682H156.106C155.871 175.682 155.635 175.446 155.635 175.21C155.635 174.975 155.871 174.739 156.106 174.739H161.762C161.998 174.739 162.233 174.975 162.233 175.21C162.233 175.446 161.998 175.682 161.762 175.682ZM150.45 175.682H144.795C144.559 175.682 144.559 175.681 144.559 175.446C144.559 175.446 144.323 175.446 144.088 175.446C143.145 175.21 142.438 174.268 142.203 173.325L141.731 170.026C141.731 169.79 141.967 169.554 142.203 169.554C142.438 169.554 142.674 169.79 142.674 170.026L143.145 173.325C143.145 174.032 143.616 174.503 144.323 174.739C144.323 174.739 144.559 174.739 144.559 174.975H144.795H150.45C150.686 174.975 150.922 175.21 150.922 175.446C150.922 175.446 150.686 175.682 150.45 175.682ZM174.959 171.44C174.723 171.44 174.487 171.204 174.487 170.968L173.545 165.313C173.545 165.077 173.78 164.841 174.016 164.841C174.252 164.841 174.487 165.077 174.487 165.313L175.43 170.968C175.43 171.204 175.194 171.44 174.959 171.44ZM141.26 165.077C141.024 165.077 140.789 164.841 140.789 164.606L139.846 158.95C139.846 158.714 140.082 158.479 140.317 158.479C140.553 158.479 140.789 158.714 140.789 158.95L141.731 164.606C141.967 164.606 141.731 164.841 141.26 165.077C141.496 165.077 141.496 165.077 141.26 165.077ZM173.073 160.364C172.838 160.364 172.602 160.128 172.602 159.893L171.659 154.237C171.659 154.001 171.895 153.766 172.131 153.766C172.366 153.766 172.602 154.001 172.602 154.237L173.545 159.893C173.545 160.128 173.545 160.364 173.073 160.364C173.073 160.364 173.309 160.364 173.073 160.364ZM139.61 153.766C139.375 153.766 139.139 153.53 139.139 153.294L138.432 148.581C138.432 148.346 138.432 148.346 138.432 148.346C138.432 148.11 138.432 147.874 138.432 147.639C138.432 147.403 138.668 147.167 139.139 147.403C139.375 147.403 139.61 147.639 139.375 148.11C139.375 148.11 139.375 148.346 139.375 148.581V148.817L140.082 153.53C140.082 153.53 139.846 153.766 139.61 153.766ZM171.424 149.288C171.188 149.288 170.952 149.052 170.952 148.817V148.581C170.717 147.874 170.01 147.167 169.303 147.167H166.711C166.475 147.167 166.239 146.932 166.239 146.696C166.239 146.46 166.475 146.225 166.711 146.225H169.303C170.481 146.225 171.659 147.167 171.895 148.346V148.581C171.895 148.817 171.659 149.052 171.424 149.288ZM161.055 147.167H155.399C155.164 147.167 154.928 146.932 154.928 146.696C154.928 146.46 155.164 146.225 155.399 146.225H161.055C161.291 146.225 161.526 146.46 161.526 146.696C161.526 146.932 161.291 147.167 161.055 147.167ZM149.743 147.167H144.088C143.852 147.167 143.616 146.932 143.616 146.696C143.616 146.46 143.852 146.225 144.088 146.225H149.743C149.979 146.225 150.215 146.46 150.215 146.696C150.215 146.932 149.979 147.167 149.743 147.167Z" fill="#0037A2"/>
<path d="M128.77 175.682H123.115C122.879 175.682 122.643 175.446 122.643 175.21C122.643 174.975 122.879 174.739 123.115 174.739H128.77C129.006 174.739 129.242 174.975 129.242 175.21C129.242 175.446 129.006 175.682 128.77 175.682ZM117.459 175.682H111.803C111.568 175.682 111.332 175.446 111.332 175.21C111.332 174.975 111.568 174.739 111.803 174.739H117.459C117.695 174.739 117.93 174.975 117.93 175.21C117.93 175.446 117.695 175.682 117.459 175.682ZM106.147 175.682H100.492C100.256 175.682 100.256 175.681 100.256 175.446C100.256 175.446 100.02 175.446 99.7848 175.446C98.8421 175.21 98.1352 174.268 97.8995 173.325L97.4282 170.026C97.4282 169.79 97.6639 169.554 97.8995 169.554C98.1352 169.554 98.3708 169.79 98.3708 170.026L98.8421 173.325C98.8421 174.032 99.3134 174.503 100.02 174.739C100.02 174.739 100.256 174.739 100.256 174.975H100.492H106.147C106.383 174.975 106.619 175.21 106.619 175.446C106.619 175.446 106.383 175.682 106.147 175.682ZM130.656 171.44C130.42 171.44 130.184 171.204 130.184 170.968L129.242 165.313C129.242 165.077 129.477 164.841 129.713 164.841C129.949 164.841 130.184 165.077 130.184 165.313L131.127 170.968C131.127 171.204 130.891 171.44 130.656 171.44ZM96.9569 165.077C96.7212 165.077 96.4856 164.841 96.4856 164.606L95.543 158.95C95.543 158.714 95.7786 158.479 96.0143 158.479C96.2499 158.479 96.4856 158.714 96.4856 158.95L97.4282 164.606C97.6639 164.606 97.4282 164.841 96.9569 165.077C97.1926 165.077 97.1926 165.077 96.9569 165.077ZM128.77 160.364C128.535 160.364 128.299 160.128 128.299 159.893L127.356 154.237C127.356 154.001 127.592 153.766 127.828 153.766C128.063 153.766 128.299 154.001 128.299 154.237L129.242 159.893C129.242 160.128 129.242 160.364 128.77 160.364C128.77 160.364 129.006 160.364 128.77 160.364ZM95.3073 153.766C95.0716 153.766 94.836 153.53 94.836 153.294L94.129 148.581C94.129 148.346 94.129 148.346 94.129 148.346C94.129 148.11 94.129 147.874 94.129 147.639C94.129 147.403 94.3647 147.167 94.836 147.403C95.0717 147.403 95.3073 147.639 95.0717 148.11C95.0717 148.11 95.0717 148.346 95.0717 148.581V148.817L95.7786 153.53C95.7786 153.53 95.543 153.766 95.3073 153.766ZM127.121 149.288C126.885 149.288 126.649 149.052 126.649 148.817V148.581C126.414 147.874 125.707 147.167 125 147.167H122.408C122.172 147.167 121.936 146.932 121.936 146.696C121.936 146.46 122.172 146.225 122.408 146.225H125C126.178 146.225 127.356 147.167 127.592 148.346V148.581C127.592 148.817 127.356 149.052 127.121 149.288ZM116.752 147.167H111.096C110.861 147.167 110.625 146.932 110.625 146.696C110.625 146.46 110.861 146.225 111.096 146.225H116.752C116.988 146.225 117.223 146.46 117.223 146.696C117.223 146.932 116.988 147.167 116.752 147.167ZM105.44 147.167H99.7848C99.5491 147.167 99.3135 146.932 99.3135 146.696C99.3135 146.46 99.5491 146.225 99.7848 146.225H105.44C105.676 146.225 105.912 146.46 105.912 146.696C105.912 146.932 105.676 147.167 105.44 147.167Z" fill="#0037A2"/>
<path d="M84.4671 175.682H78.8114C78.5757 175.682 78.34 175.446 78.34 175.21C78.34 174.975 78.5757 174.739 78.8114 174.739H84.4671C84.7027 174.739 84.9384 174.975 84.9384 175.21C84.9384 175.446 84.7027 175.682 84.4671 175.682ZM73.1556 175.682H67.4999C67.2643 175.682 67.0286 175.446 67.0286 175.21C67.0286 174.975 67.2643 174.739 67.4999 174.739H73.1556C73.3913 174.739 73.6269 174.975 73.6269 175.21C73.6269 175.446 73.3913 175.682 73.1556 175.682ZM61.8442 175.682H56.1885C55.9528 175.682 55.9528 175.681 55.9528 175.446C55.9528 175.446 55.7172 175.446 55.4815 175.446C54.5389 175.21 53.8319 174.268 53.5963 173.325L53.125 170.026C53.125 169.79 53.3606 169.554 53.5963 169.554C53.8319 169.554 54.0676 169.79 54.0676 170.026L54.5389 173.325C54.5389 174.032 55.0102 174.503 55.7172 174.739C55.7172 174.739 55.9528 174.739 55.9528 174.975H56.1885H61.8442C62.0798 174.975 62.3155 175.21 62.3155 175.446C62.3155 175.446 62.0798 175.682 61.8442 175.682ZM86.3523 171.44C86.1167 171.44 85.881 171.204 85.881 170.968L84.9384 165.313C84.9384 165.077 85.174 164.841 85.4097 164.841C85.6454 164.841 85.881 165.077 85.881 165.313L86.8236 170.968C86.8236 171.204 86.588 171.44 86.3523 171.44ZM52.6536 165.077C52.418 165.077 52.1823 164.841 52.1823 164.606L51.2397 158.95C51.2397 158.714 51.4754 158.479 51.711 158.479C51.9467 158.479 52.1823 158.714 52.1823 158.95L53.125 164.606C53.3606 164.606 53.1249 164.841 52.6536 165.077C52.8893 165.077 52.8893 165.077 52.6536 165.077ZM84.4671 160.364C84.2314 160.364 83.9958 160.128 83.9958 159.893L83.0532 154.237C83.0532 154.001 83.2888 153.766 83.5245 153.766C83.7601 153.766 83.9958 154.001 83.9958 154.237L84.9384 159.893C84.9384 160.128 84.9384 160.364 84.4671 160.364C84.4671 160.364 84.7027 160.364 84.4671 160.364ZM51.0041 153.766C50.7684 153.766 50.5327 153.53 50.5327 153.294L49.8258 148.581C49.8258 148.346 49.8258 148.346 49.8258 148.346C49.8258 148.11 49.8258 147.874 49.8258 147.639C49.8258 147.403 50.0614 147.167 50.5327 147.403C50.7684 147.403 51.0041 147.639 50.7684 148.11C50.7684 148.11 50.7684 148.346 50.7684 148.581V148.817L51.4754 153.53C51.4754 153.53 51.2397 153.766 51.0041 153.766ZM82.8175 149.288C82.5818 149.288 82.3462 149.052 82.3462 148.817V148.581C82.1105 147.874 81.4036 147.167 80.6966 147.167H78.1044C77.8687 147.167 77.6331 146.932 77.6331 146.696C77.6331 146.46 77.8687 146.225 78.1044 146.225H80.6966C81.8749 146.225 83.0531 147.167 83.2888 148.346V148.581C83.2888 148.817 83.0532 149.052 82.8175 149.288ZM72.4487 147.167H66.7929C66.5573 147.167 66.3216 146.932 66.3216 146.696C66.3216 146.46 66.5573 146.225 66.7929 146.225H72.4487C72.6843 146.225 72.92 146.46 72.92 146.696C72.92 146.932 72.6843 147.167 72.4487 147.167ZM61.1372 147.167H55.4815C55.2458 147.167 55.0102 146.932 55.0102 146.696C55.0102 146.46 55.2458 146.225 55.4815 146.225H61.1372C61.3729 146.225 61.6085 146.46 61.6085 146.696C61.6085 146.932 61.3729 147.167 61.1372 147.167Z" fill="#0037A2"/>
<g opacity="0.5">
<path d="M147.151 170.968H176.137C177.08 170.968 177.787 170.261 177.551 169.083L173.78 144.339C173.545 143.397 172.602 142.454 171.66 142.454H142.674C141.731 142.454 141.024 143.161 141.26 144.339L145.031 169.083C145.266 170.261 145.973 170.968 147.151 170.968Z" fill="#B4D9FF"/>
</g>
<g opacity="0.5">
<path d="M58.5451 170.968H87.5307C88.4734 170.968 89.1803 170.261 88.9447 169.083L85.1742 144.339C84.9385 143.397 83.9959 142.454 83.0533 142.454H54.0677C53.1251 142.454 52.4181 143.161 52.6538 144.339L56.4242 169.083C56.6599 170.261 57.3669 170.968 58.5451 170.968Z" fill="#B4D9FF"/>
</g>
<path d="M149.272 168.612H178.258C179.201 168.612 179.907 167.905 179.672 166.727L175.901 141.983C175.666 141.04 174.723 140.098 173.78 140.098H144.795C143.852 140.098 143.145 140.805 143.381 141.983L147.151 166.727C147.387 167.905 148.094 168.612 149.272 168.612Z" fill="#03C9BC"/>
<path d="M60.6658 168.612H89.6513C90.5939 168.612 91.3009 167.905 91.0653 166.727L87.2948 141.983C87.0591 141.04 86.1165 140.098 85.1739 140.098H56.1883C55.2457 140.098 54.5387 140.805 54.7744 141.983L58.5449 166.727C58.7805 167.905 59.4875 168.612 60.6658 168.612Z" fill="#1964F1"/>
<path d="M102.769 163.85L101.905 157.771H103.129L103.469 160.163H105.875L105.536 157.771H106.76L107.623 163.85H106.399L106.017 161.19H103.618L104 163.85H102.769Z" fill="#0037A2"/>
<path d="M110.27 163.85L109.548 158.798H107.743L107.595 157.771H112.428L112.577 158.798H110.779L111.501 163.85H110.27Z" fill="#0037A2"/>
<path d="M114.07 163.85L113.207 157.771H115.047L116.738 161.918L117.24 157.771H119.08L119.944 163.85H118.804L118.125 159.067L117.601 163.85H116.42L114.537 159.067L115.216 163.85H114.07Z" fill="#0037A2"/>
<path d="M121.196 163.85L120.333 157.821H121.557L122.272 162.824H125.322L125.471 163.85H121.189H121.196Z" fill="#0037A2"/>
<path d="M151.621 157.148L149.036 151.971H150.169L152.025 155.804L152.748 151.971H153.857L152.742 157.148H151.621Z" fill="#00256D"/>
<path d="M154.381 151.971H155.424L155.822 154.773C155.888 155.219 155.936 155.509 155.984 155.641C156.057 155.852 156.189 156.021 156.376 156.153C156.563 156.286 156.804 156.346 157.093 156.346C157.382 156.346 157.605 156.286 157.738 156.165C157.87 156.045 157.943 155.894 157.949 155.719C157.955 155.545 157.931 155.249 157.87 154.84L157.467 151.971H158.509L158.895 154.689C158.985 155.31 159.015 155.75 158.997 156.009C158.979 156.268 158.907 156.485 158.78 156.66C158.654 156.834 158.473 156.979 158.232 157.081C157.991 157.184 157.666 157.238 157.256 157.238C156.762 157.238 156.376 157.184 156.105 157.069C155.834 156.955 155.611 156.804 155.436 156.623C155.261 156.443 155.135 156.25 155.062 156.051C154.954 155.756 154.857 155.316 154.773 154.737L154.381 151.971Z" fill="#00256D"/>
<path d="M160.347 157.148L159.612 151.971H163.451L163.577 152.845H160.787L160.95 153.99H163.547L163.674 154.864H161.076L161.275 156.274H164.168L164.294 157.148H160.347Z" fill="#00256D"/>
<path d="M165.168 157.148L165.03 156.153H166.024L166.162 157.148H165.168Z" fill="#00256D"/>
<path d="M168.314 151.971H169.356L169.82 155.249C169.881 155.677 169.893 156.009 169.85 156.238C169.79 156.539 169.645 156.78 169.404 156.961C169.163 157.142 168.826 157.232 168.392 157.232C167.88 157.232 167.47 157.087 167.151 156.804C166.831 156.521 166.638 156.099 166.554 155.545L167.524 155.43C167.579 155.726 167.651 155.936 167.747 156.057C167.886 156.244 168.073 156.334 168.302 156.334C168.531 156.334 168.687 156.268 168.766 156.135C168.844 156.003 168.85 155.726 168.79 155.31L168.314 151.971Z" fill="#00256D"/>
<path d="M170.7 155.46L171.7 155.364C171.809 155.707 171.972 155.955 172.182 156.117C172.393 156.28 172.659 156.358 172.972 156.358C173.309 156.358 173.55 156.286 173.701 156.147C173.852 156.009 173.912 155.84 173.888 155.647C173.87 155.527 173.822 155.418 173.737 155.334C173.653 155.249 173.514 155.171 173.327 155.111C173.201 155.069 172.912 154.99 172.46 154.882C171.881 154.743 171.459 154.575 171.206 154.37C170.851 154.086 170.64 153.737 170.58 153.327C170.543 153.062 170.58 152.815 170.7 152.586C170.821 152.357 171.007 152.182 171.273 152.062C171.538 151.941 171.869 151.881 172.267 151.881C172.918 151.881 173.424 152.025 173.797 152.309C174.171 152.592 174.394 152.972 174.478 153.448L173.442 153.496C173.358 153.231 173.237 153.038 173.074 152.923C172.912 152.809 172.683 152.749 172.387 152.749C172.092 152.749 171.857 152.809 171.7 152.935C171.604 153.014 171.562 153.122 171.58 153.255C171.598 153.375 171.664 153.484 171.779 153.568C171.923 153.677 172.261 153.797 172.791 153.912C173.321 154.026 173.713 154.159 173.972 154.285C174.231 154.412 174.448 154.587 174.617 154.81C174.786 155.033 174.894 155.31 174.942 155.635C174.985 155.93 174.942 156.208 174.816 156.467C174.689 156.726 174.484 156.919 174.201 157.045C173.918 157.172 173.55 157.232 173.104 157.232C172.448 157.232 171.923 157.081 171.532 156.78C171.14 156.479 170.863 156.039 170.712 155.46H170.7Z" fill="#00256D"/>
<path d="M67.1967 155.145L68.7604 155.567C68.6538 156.315 68.3606 156.864 67.8808 157.23C67.401 157.597 66.7613 157.772 65.9439 157.772C64.931 157.772 64.0514 157.461 63.2962 156.84C62.541 156.219 62.079 155.375 61.9102 154.301C61.7325 153.162 61.9102 152.278 62.4699 151.65C63.0297 151.021 63.8382 150.702 64.9044 150.702C65.8373 150.702 66.6369 150.949 67.2944 151.443C67.6853 151.737 68.0141 152.151 68.2718 152.7L66.7969 153.027C66.6458 152.669 66.4148 152.39 66.0949 152.191C65.7751 151.992 65.4108 151.88 65.0021 151.88C64.4335 151.88 64.007 152.064 63.7138 152.43C63.4206 152.796 63.3406 153.385 63.465 154.197C63.5983 155.065 63.8737 155.678 64.2824 156.044C64.6911 156.41 65.1709 156.594 65.7218 156.594C66.1305 156.594 66.4681 156.474 66.7258 156.243C66.9834 156.012 67.1345 155.646 67.1878 155.145H67.1967Z" fill="white"/>
<path d="M69.6667 155.431L71.1416 155.304C71.3015 155.758 71.5414 156.084 71.8524 156.299C72.1633 156.514 72.5543 156.617 73.0163 156.617C73.5138 156.617 73.8692 156.522 74.0914 156.339C74.3135 156.156 74.4023 155.933 74.3668 155.678C74.3401 155.519 74.2691 155.375 74.1447 155.264C74.0203 155.153 73.8159 155.049 73.5405 154.969C73.3539 154.914 72.9274 154.81 72.2611 154.667C71.4081 154.484 70.7862 154.261 70.413 153.99C69.8888 153.616 69.5778 153.154 69.489 152.613C69.4357 152.263 69.489 151.936 69.6667 151.634C69.8444 151.331 70.1198 151.1 70.5107 150.941C70.9017 150.782 71.3904 150.702 71.9768 150.702C72.9363 150.702 73.6827 150.893 74.2335 151.267C74.7844 151.642 75.1131 152.143 75.2375 152.772L73.7093 152.836C73.5849 152.485 73.4072 152.231 73.1673 152.079C72.9274 151.928 72.5898 151.849 72.1545 151.849C71.7191 151.849 71.3726 151.928 71.1416 152.095C70.9994 152.199 70.9372 152.342 70.9639 152.517C70.9905 152.677 71.0883 152.82 71.2571 152.931C71.4703 153.075 71.9679 153.234 72.7497 153.385C73.5316 153.536 74.1091 153.712 74.4912 153.879C74.8732 154.046 75.1931 154.277 75.4419 154.571C75.6906 154.866 75.8506 155.232 75.9217 155.662C75.9838 156.052 75.9217 156.418 75.7351 156.761C75.5485 157.103 75.2464 157.358 74.8288 157.525C74.4112 157.692 73.8692 157.772 73.2118 157.772C72.2433 157.772 71.4703 157.573 70.8928 157.175C70.3153 156.777 69.9066 156.195 69.6845 155.431H69.6667Z" fill="white"/>
<path d="M76.7746 155.431L78.2495 155.304C78.4094 155.758 78.6493 156.084 78.9603 156.299C79.2713 156.514 79.6622 156.617 80.1242 156.617C80.6218 156.617 80.9772 156.522 81.1993 156.339C81.4214 156.156 81.5103 155.933 81.4747 155.678C81.4481 155.519 81.377 155.375 81.2526 155.264C81.1282 155.153 80.9239 155.049 80.6484 154.969C80.4618 154.914 80.0354 154.81 79.369 154.667C78.516 154.484 77.8941 154.261 77.5209 153.99C76.9967 153.616 76.6858 153.154 76.5969 152.613C76.5436 152.263 76.5969 151.936 76.7746 151.634C76.9523 151.331 77.2277 151.1 77.6187 150.941C78.0096 150.782 78.4983 150.702 79.0847 150.702C80.0442 150.702 80.7906 150.893 81.3414 151.267C81.8923 151.642 82.2211 152.143 82.3454 152.772L80.8172 152.836C80.6928 152.485 80.5151 152.231 80.2753 152.079C80.0354 151.928 79.6977 151.849 79.2624 151.849C78.827 151.849 78.4805 151.928 78.2495 152.095C78.1073 152.199 78.0451 152.342 78.0718 152.517C78.0985 152.677 78.1962 152.82 78.365 152.931C78.5782 153.075 79.0758 153.234 79.8577 153.385C80.6395 153.536 81.2171 153.712 81.5991 153.879C81.9812 154.046 82.301 154.277 82.5498 154.571C82.7986 154.866 82.9585 155.232 83.0296 155.662C83.0918 156.052 83.0296 156.418 82.843 156.761C82.6564 157.103 82.3543 157.358 81.9367 157.525C81.5191 157.692 80.9772 157.772 80.3197 157.772C79.3512 157.772 78.5782 157.573 78.0007 157.175C77.4232 156.777 77.0145 156.195 76.7924 155.431H76.7746Z" fill="white"/>
<path d="M28.3811 85.8968L25.5532 68.4583C24.8462 64.2165 27.9098 60.6816 32.1515 60.6816H159.17C163.411 60.6816 167.653 64.2165 168.36 68.4583L171.188 85.8968H28.3811Z" fill="#1964F1"/>
<path d="M54.303 73.1717C54.5386 74.35 55.7169 75.2926 56.8952 75.2926C58.0735 75.2926 59.0161 74.35 58.7804 73.1717C58.5448 71.9934 57.3665 71.0508 56.1882 71.0508C55.0099 71.0508 54.0673 71.9934 54.303 73.1717Z" fill="#E3F0FF"/>
<path d="M44.877 73.1717C45.1126 74.35 46.2909 75.2926 47.4692 75.2926C48.6474 75.2926 49.5901 74.35 49.3544 73.1717C49.1187 71.9934 47.9405 71.0508 46.7622 71.0508C45.5839 71.0508 44.6413 71.9934 44.877 73.1717Z" fill="#E3F0FF"/>
<path d="M35.4508 73.1717C35.6865 74.35 36.8647 75.2926 38.043 75.2926C39.2213 75.2926 40.1639 74.35 39.9283 73.1717C39.6926 71.9934 38.5143 71.0508 37.3361 71.0508C35.9221 71.0508 35.2152 71.9934 35.4508 73.1717Z" fill="#E3F0FF"/>
<path opacity="0.5" d="M56.4241 131.378H172.602C174.252 131.378 175.194 130.2 174.959 128.55L168.832 89.4314C168.596 87.7818 167.182 86.6035 165.532 86.6035H49.3544C47.7048 86.6035 46.7622 87.7818 46.9979 89.4314L53.1249 128.55C53.3606 130.2 54.7745 131.378 56.4241 131.378Z" fill="#B4D9FF"/>
<path d="M62.5511 125.251H178.729C180.379 125.251 181.321 124.073 181.086 122.423L174.959 83.3044C174.723 81.6548 173.309 80.4766 171.659 80.4766H55.4814C53.8318 80.4766 52.8892 81.6548 53.1249 83.3044L59.2519 122.423C59.4876 124.073 60.9015 125.251 62.5511 125.251Z" fill="#0037A2"/>
<path d="M119.815 95.3229H120.286C120.993 95.3229 121.465 95.5586 121.7 96.2655L122.643 101.686C122.879 102.628 123.114 103.335 123.821 103.807C123.35 104.278 123.114 104.985 123.114 105.692L124.057 111.347C124.057 111.819 123.585 112.29 122.407 112.29L122.879 115.354H124.292C126.885 115.354 128.063 114.175 127.592 111.583L126.649 106.163C126.649 105.456 126.649 104.985 127.12 104.985H128.299L127.827 101.921H126.649C126.178 101.921 125.942 101.45 125.942 100.743L124.999 95.5586C124.528 92.9664 123.114 91.7881 120.522 91.7881H119.344L119.815 95.3229Z" fill="white"/>
<path d="M119.108 111.583C119.579 111.112 119.579 110.64 119.579 109.934C119.579 109.227 119.108 108.755 118.637 108.284C118.165 107.813 117.458 107.577 116.987 107.577C116.28 107.577 115.809 107.813 115.573 108.284C115.102 108.755 115.102 109.227 115.102 109.934C115.102 110.64 115.573 111.112 116.045 111.583C116.516 112.054 117.223 112.29 117.694 112.29C118.165 112.054 118.637 111.819 119.108 111.583Z" fill="white"/>
<path d="M111.567 111.583C112.038 111.112 112.038 110.64 112.038 109.934C112.038 109.227 111.567 108.755 111.096 108.284C110.624 107.813 109.917 107.577 109.446 107.577C108.739 107.577 108.268 107.813 108.032 108.284C107.561 108.755 107.561 109.227 107.561 109.934C107.561 110.64 108.032 111.112 108.504 111.583C108.975 112.054 109.682 112.29 110.153 112.29C110.624 112.054 111.331 111.819 111.567 111.583Z" fill="white"/>
<path d="M104.026 111.583C104.497 111.112 104.497 110.64 104.497 109.934C104.497 109.227 104.026 108.755 103.555 108.284C103.083 107.813 102.377 107.577 101.905 107.577C101.198 107.577 100.727 107.813 100.491 108.284C100.02 108.755 100.02 109.227 100.02 109.934C100.02 110.64 100.491 111.112 100.963 111.583C101.434 112.054 102.141 112.29 102.612 112.29C103.319 112.054 103.79 111.819 104.026 111.583Z" fill="white"/>
<path d="M96.7208 111.583C97.1921 111.112 97.1921 110.64 97.1921 109.934C97.1921 109.227 96.7208 108.755 96.2495 108.284C95.7782 107.813 95.0712 107.577 94.5999 107.577C93.8929 107.577 93.4216 107.813 93.186 108.284C92.7147 108.755 92.7146 109.227 92.7146 109.934C92.7146 110.64 93.186 111.112 93.6573 111.583C94.1286 112.054 94.8356 112.29 95.3069 112.29C95.7782 112.054 96.2495 111.819 96.7208 111.583Z" fill="white"/>
<path d="M89.1798 111.583C89.6511 111.112 89.6511 110.64 89.6511 109.934C89.6511 109.227 89.1798 108.755 88.7085 108.284C88.2372 107.813 87.5302 107.577 87.0589 107.577C86.352 107.577 85.8806 107.813 85.645 108.284C85.1737 108.755 85.1737 109.227 85.1737 109.934C85.1737 110.64 85.645 111.112 86.1163 111.583C86.5876 112.054 87.2946 112.29 87.7659 112.29C88.2372 112.054 88.7085 111.819 89.1798 111.583Z" fill="white"/>
<path d="M81.6389 111.583C82.1102 111.112 82.1102 110.64 82.1102 109.934C82.1102 109.227 81.6389 108.755 81.1676 108.284C80.6962 107.813 79.9893 107.577 79.518 107.577C78.811 107.577 78.3397 107.813 78.104 108.284C77.6327 108.755 77.6327 109.227 77.6327 109.934C77.6327 110.64 78.104 111.112 78.5753 111.583C79.0466 112.054 79.7536 112.29 80.2249 112.29C80.6962 112.054 81.1675 111.819 81.6389 111.583Z" fill="white"/>
<path d="M75.0405 112.526H74.5692C73.8622 112.526 73.3909 112.29 73.1553 111.583L72.2126 106.163C71.977 105.22 71.7413 104.513 71.0344 104.042C71.5057 103.571 71.7413 102.864 71.7413 102.157L70.7987 96.5012C70.7987 96.0299 71.27 95.5586 72.4483 95.5586L71.977 92.4951H70.5631C67.9709 92.4951 66.7926 93.6733 67.2639 96.2655L68.2065 101.686C68.2065 102.393 68.2065 102.864 67.7352 102.864H66.5569L67.0282 105.927H68.2065C68.6778 105.927 68.9135 106.399 68.9135 107.106L69.8561 112.29C70.3274 114.882 71.7413 116.061 74.3335 116.061H75.7475L75.0405 112.526Z" fill="white"/>
<path d="M337.561 103.336C338.268 103.336 339.21 104.043 339.21 104.75C339.446 105.457 338.975 106.164 338.268 106.164C337.561 106.164 336.618 105.457 336.618 104.75C336.382 103.807 336.854 103.336 337.561 103.336Z" fill="#0037A2"/>
<path d="M417.448 216.921C418.155 216.921 419.097 217.628 419.097 218.335C419.333 219.042 418.862 219.749 418.155 219.749C417.448 219.749 416.505 219.042 416.505 218.335C416.269 217.628 416.741 216.921 417.448 216.921Z" fill="#0037A2"/>
<path d="M9.99983 139.862C10.7068 139.862 11.6494 140.569 11.6494 141.276C11.8851 141.983 11.4138 142.69 10.7068 142.69C9.99983 142.69 9.05721 141.983 9.05721 141.276C8.5859 140.334 9.05721 139.862 9.99983 139.862Z" fill="#0037A2"/>
<path d="M104.026 54.3193C104.733 54.3193 105.676 55.0263 105.676 55.7333C105.912 56.4402 105.44 57.1472 104.733 57.1472C104.026 57.1472 103.084 56.4402 103.084 55.7333C102.612 55.0263 103.084 54.3193 104.026 54.3193Z" fill="#0037A2"/>
<path d="M269.928 47.0137C270.635 47.0137 271.577 47.7206 271.577 48.4276C271.813 49.1346 271.342 49.8415 270.635 49.8415C269.928 49.8415 268.985 49.1346 268.985 48.4276C268.749 47.7206 269.221 47.0137 269.928 47.0137Z" fill="#0037A2"/>
<path d="M144.323 11.1943C145.03 11.1943 145.737 11.9013 145.973 12.6083C146.208 13.3152 145.737 14.0222 145.03 14.0222C144.323 14.0222 143.616 13.3152 143.381 12.6083C142.909 11.9013 143.381 11.1943 144.323 11.1943Z" fill="#0037A2"/>
<path d="M180.85 60.918C181.321 60.918 182.028 61.3893 182.028 61.8606C182.264 62.3319 181.792 62.8032 181.321 62.8032C180.85 62.8032 180.143 62.3319 180.143 61.8606C179.907 61.3893 180.378 60.918 180.85 60.918Z" fill="#0037A2"/>
<path d="M109.211 247.792C109.682 247.792 110.389 248.263 110.389 248.735C110.625 249.206 110.154 249.677 109.682 249.677C109.211 249.677 108.504 249.206 108.504 248.735C108.504 248.263 108.504 247.792 109.211 247.792Z" fill="#0037A2"/>
<path d="M378.093 95.5586C379.507 95.5586 381.157 96.7369 381.393 98.1508C381.864 99.5647 380.921 100.743 379.272 100.743C377.858 100.743 376.208 99.5647 375.973 98.1508C375.737 96.7369 376.68 95.5586 378.093 95.5586Z" fill="#03C9BC"/>
<path d="M250.368 25.8047C251.311 25.8047 252.253 26.5116 252.489 27.4543C252.725 28.3969 252.018 29.1039 251.075 29.1039C250.133 29.1039 249.19 28.3969 248.954 27.4543C248.954 26.5116 249.426 25.8047 250.368 25.8047Z" fill="#03C9BC"/>
<path d="M170.717 22.2705C171.659 22.2705 172.602 22.9775 172.838 23.9201C173.073 24.8627 172.366 25.5697 171.424 25.5697C170.481 25.5697 169.538 24.8627 169.303 23.9201C169.303 22.9775 169.774 22.2705 170.717 22.2705Z" fill="#03C9BC"/>
<path d="M38.75 144.575C39.6926 144.575 40.6352 145.282 40.8709 146.225C41.1065 147.167 40.3996 147.874 39.4569 147.874C38.5143 147.874 37.5717 147.167 37.336 146.225C37.336 145.282 37.8073 144.575 38.75 144.575Z" fill="#03C9BC"/>
<path d="M103.365 234.359C104.308 234.359 105.25 235.066 105.486 236.009C105.722 236.952 105.015 237.659 104.072 237.659C103.129 237.659 102.187 236.952 101.951 236.009C101.715 235.066 102.422 234.359 103.365 234.359Z" fill="#03C9BC"/>
<path d="M398.124 124.545C399.067 124.545 399.774 125.252 400.009 126.195C400.245 127.137 399.774 127.844 398.831 127.844C397.888 127.844 397.181 127.137 396.946 126.195C396.71 125.252 397.181 124.545 398.124 124.545Z" fill="#1964F1"/>
<path d="M275.583 12.8438C276.761 12.8438 278.175 13.7864 278.411 15.2003C278.647 16.3786 277.94 17.5569 276.761 17.5569C275.583 17.5569 274.169 16.6142 273.934 15.2003C273.462 13.7864 274.169 12.8438 275.583 12.8438Z" fill="#1964F1"/>
<path d="M408.964 185.344C409.436 185.344 409.907 185.815 409.907 186.051C409.907 186.522 409.671 186.758 409.2 186.758C408.729 186.758 408.257 186.286 408.257 186.051C408.022 185.815 408.493 185.344 408.964 185.344Z" fill="#03C9BC"/>
<path d="M417.212 161.542C418.391 161.542 419.804 162.485 420.04 163.899C420.276 165.077 419.569 166.255 418.391 166.255C417.212 166.255 415.798 165.312 415.563 163.899C415.327 162.485 416.034 161.542 417.212 161.542Z" fill="#1964F1"/>
<path d="M117.739 239.073C118.918 239.073 120.331 240.016 120.567 241.43C120.803 242.608 120.096 243.786 118.918 243.786C117.739 243.786 116.325 242.844 116.09 241.43C115.854 240.016 116.561 239.073 117.739 239.073Z" fill="#1964F1"/>
<path d="M55.4811 250.856C55.9525 250.856 56.6594 251.328 56.6594 251.799C56.8951 252.27 56.4238 252.742 55.9524 252.742C55.4811 252.742 54.7742 252.27 54.7742 251.799C54.7742 251.328 54.7742 250.856 55.4811 250.856Z" fill="#0037A2"/>
<path d="M44.4509 264.995C45.3936 264.995 46.3362 265.702 46.5718 266.645C46.8075 267.587 46.1005 268.294 45.1579 268.294C44.2153 268.294 43.2727 267.587 43.037 266.645C42.8014 265.702 43.5083 264.995 44.4509 264.995Z" fill="#03C9BC"/>
<path d="M42.7559 242.608C43.9342 242.608 45.3481 243.551 45.5838 244.965C45.8194 246.143 45.1125 247.322 43.9342 247.322C42.7559 247.322 41.342 246.379 41.1063 244.965C40.8707 243.551 41.5776 242.608 42.7559 242.608Z" fill="#1964F1"/>
<path d="M122.407 37.8232C123.586 37.8232 125 38.7659 125.235 40.1798C125.471 41.3581 124.764 42.5363 123.586 42.5363C122.407 42.5363 120.993 41.5937 120.758 40.1798C120.522 38.7659 121.229 37.8232 122.407 37.8232Z" fill="#1964F1"/>
<path d="M30.9734 178.273C32.1516 178.273 33.5656 179.216 33.8012 180.63C34.0369 181.808 33.3299 182.987 32.1516 182.987C30.9734 182.987 29.5594 182.044 29.3238 180.63C28.8525 179.216 29.7951 178.273 30.9734 178.273Z" fill="#1964F1"/>
</svg>
