<svg width="444" height="300" viewBox="0 0 444 300" fill="none" xmlns="http://www.w3.org/2000/svg">
<g clip-path="url(#clip0_109_5011)">
<path d="M386.104 147.538C377.597 137.239 365.507 129.851 352.522 127.165C341.104 124.702 329.015 125.373 318.493 120.224C309.09 115.523 302.373 106.344 298.567 96.4929C290.731 76.1198 293.642 55.9705 275.955 40.075C265.881 30.8959 252.224 26.866 238.567 25.7466C211.254 23.284 183.045 31.7914 161.328 48.5825C137.597 67.1645 129.09 89.7765 121.701 117.314C113.642 147.538 93.4925 134.776 69.5373 133.881C50.0597 133.209 29.9104 144.179 19.6119 160.523C8.41787 178.433 7.97011 201.269 13.791 221.642C19.1641 240.896 30.582 273.806 50.9552 280.075C61.2537 283.209 72.8955 284.105 82.5223 289.478C86.5522 291.717 89.4626 295.971 93.7164 297.314C97.9701 298.657 103.343 296.642 107.597 296.642C126.627 296.642 145.881 296.866 164.91 296.866C210.358 297.09 256.03 297.314 301.478 297.314C310.433 297.314 322.298 299.105 330.582 296.866C326.104 297.985 334.164 279.851 334.612 279.179C338.194 273.359 344.239 267.538 349.388 262.836C358.343 254.329 369.537 249.627 378.716 241.791C399.313 223.881 405.358 184.254 393.716 160.075C391.925 155.374 389.239 151.344 386.104 147.538Z" fill="#E3F0FF"/>
<path d="M330.358 196.201C330.358 196.649 330.134 196.873 329.687 196.873C329.239 196.873 329.015 196.649 328.791 196.201C328.791 195.753 329.015 195.529 329.463 195.529C329.91 195.305 330.358 195.753 330.358 196.201Z" fill="#0037A2"/>
<path d="M398.866 139.783C399.089 140.454 398.418 141.126 397.746 141.126C397.075 141.126 396.403 140.454 396.179 139.783C395.955 139.111 396.627 138.439 397.298 138.439C397.97 138.439 398.642 138.887 398.866 139.783Z" fill="#0037A2"/>
<path d="M429.761 217.246C429.761 217.694 429.537 217.917 429.089 217.917C428.642 217.917 428.418 217.694 428.194 217.246C428.194 216.798 428.418 216.574 428.866 216.574C429.313 216.574 429.537 217.022 429.761 217.246Z" fill="#0037A2"/>
<path d="M317.821 98.1413C317.821 98.5891 317.597 98.813 317.149 98.813C316.701 98.813 316.478 98.5891 316.254 98.1413C316.254 97.6936 316.478 97.4697 316.925 97.4697C317.373 97.2458 317.821 97.6936 317.821 98.1413Z" fill="#0037A2"/>
<path d="M315.358 172.246C315.582 172.917 314.91 173.589 314.239 173.589C313.567 173.589 312.895 172.917 312.672 172.246C312.448 171.574 313.119 170.902 313.791 170.902C314.687 171.126 315.358 171.574 315.358 172.246Z" fill="#1964F1"/>
<path d="M376.03 148.514C376.254 149.186 375.582 149.857 374.91 149.857C374.239 149.857 373.567 149.186 373.343 148.514C373.119 147.843 373.791 147.171 374.463 147.171C375.134 147.171 375.806 147.843 376.03 148.514Z" fill="#1964F1"/>
<path d="M361.03 112.022C361.254 112.694 360.582 113.365 359.91 113.365C359.239 113.365 358.567 112.694 358.343 112.022C358.119 111.35 358.791 110.679 359.463 110.679C360.134 110.679 361.03 111.35 361.03 112.022Z" fill="#1964F1"/>
<path d="M292.075 112.022C292.298 112.694 291.627 113.365 290.955 113.365C290.284 113.365 289.612 112.694 289.388 112.022C289.164 111.35 289.836 110.679 290.507 110.679C291.179 110.679 291.851 111.35 292.075 112.022Z" fill="#F46161"/>
<path d="M346.478 166.649C346.701 167.544 346.03 168.216 345.134 168.216C344.239 168.216 343.343 167.544 343.119 166.649C342.895 165.753 343.567 165.082 344.463 165.082C345.582 164.858 346.254 165.753 346.478 166.649Z" fill="#F46161"/>
<path d="M422.597 157.469C422.821 158.365 422.149 159.036 421.254 159.036C420.358 159.036 419.463 158.365 419.239 157.469C419.015 156.574 419.687 155.902 420.582 155.902C421.478 155.678 422.373 156.574 422.597 157.469Z" fill="#1964F1"/>
<path d="M330.358 96.574C330.358 97.0217 330.134 97.2456 329.687 97.2456C329.239 97.2456 329.015 97.0217 328.791 96.574C328.791 96.1262 329.015 95.9023 329.463 95.9023C329.91 95.6784 330.358 96.1262 330.358 96.574Z" fill="#0037A2"/>
<path d="M398.866 40.1558C399.089 40.8274 398.418 41.4991 397.746 41.4991C397.075 41.4991 396.403 40.8274 396.179 40.1558C395.955 39.4841 396.627 38.8125 397.298 38.8125C397.97 38.8125 398.642 39.2603 398.866 40.1558Z" fill="#0037A2"/>
<path d="M429.761 117.619C429.761 118.067 429.537 118.291 429.089 118.291C428.642 118.291 428.418 118.067 428.194 117.619C428.194 117.171 428.418 116.947 428.866 116.947C429.313 116.947 429.537 117.395 429.761 117.619Z" fill="#0037A2"/>
<path d="M315.358 72.6187C315.582 73.2903 314.91 73.962 314.239 73.962C313.567 73.962 312.895 73.2903 312.672 72.6187C312.448 71.947 313.119 71.2754 313.791 71.2754C314.687 71.4993 315.358 71.947 315.358 72.6187Z" fill="#1964F1"/>
<path d="M376.03 48.8872C376.254 49.5589 375.582 50.2305 374.91 50.2305C374.239 50.2305 373.567 49.5589 373.343 48.8872C373.119 48.2156 373.791 47.5439 374.463 47.5439C375.134 47.5439 375.806 48.2156 376.03 48.8872Z" fill="#1964F1"/>
<path d="M361.03 12.3951C361.254 13.0667 360.582 13.7383 359.91 13.7383C359.239 13.7383 358.567 13.0667 358.343 12.3951C358.119 11.7234 358.791 11.0518 359.463 11.0518C360.134 11.0518 361.03 11.7234 361.03 12.3951Z" fill="#1964F1"/>
<path d="M292.075 12.3951C292.298 13.0667 291.627 13.7383 290.955 13.7383C290.284 13.7383 289.612 13.0667 289.388 12.3951C289.164 11.7234 289.836 11.0518 290.507 11.0518C291.179 11.0518 291.851 11.7234 292.075 12.3951Z" fill="#F46161"/>
<path d="M346.478 67.0219C346.701 67.9174 346.03 68.5891 345.134 68.5891C344.239 68.5891 343.343 67.9174 343.119 67.0219C342.895 66.1264 343.567 65.4547 344.463 65.4547C345.582 65.2308 346.254 66.1264 346.478 67.0219Z" fill="#F46161"/>
<path d="M422.597 57.8432C422.821 58.7387 422.149 59.4103 421.254 59.4103C420.358 59.4103 419.463 58.7387 419.239 57.8432C419.015 56.9476 419.687 56.276 420.582 56.276C421.478 56.0521 422.373 56.9476 422.597 57.8432Z" fill="#1964F1"/>
<path d="M410.06 228.208C410.06 224.241 406.87 220.605 402.724 220.936C401.767 220.936 400.491 221.266 399.534 221.597C398.258 218.622 395.388 216.638 392.517 215.977C392.517 215.316 392.836 214.655 392.836 213.663C392.836 206.721 387.414 201.432 380.716 201.432C377.526 201.432 374.656 202.755 372.742 204.738C371.785 192.838 362.217 183.582 350.734 183.582C340.528 183.582 332.235 190.854 329.683 200.441C328.727 200.11 327.77 200.11 326.813 200.11C319.796 200.11 314.055 205.399 312.46 212.01C310.865 211.349 309.27 211.019 307.357 211.019C299.702 211.019 293.642 217.63 293.642 225.563C293.642 228.208 294.599 230.522 295.874 232.836L409.103 231.514C409.741 230.852 410.06 229.53 410.06 228.208Z" fill="#F7FAFF"/>
<path d="M296.522 232.835C296.201 232.835 295.881 232.556 295.881 232.276C295.881 231.996 296.201 231.716 296.522 231.716L411.657 230.597C411.978 230.597 412.298 230.877 412.298 231.156C412.298 231.436 411.978 231.716 411.657 231.716L296.522 232.835Z" fill="#82BBFF"/>
<path d="M390.787 216.593C387.237 218.744 382.267 218.129 379.781 215.056C379.426 214.442 379.071 213.827 378.716 212.905C378.716 214.135 379.426 215.671 380.136 216.593C382.622 219.665 387.592 220.28 391.143 218.129C393.983 216.285 395.048 213.213 393.983 210.447C393.983 212.905 392.918 215.056 390.787 216.593Z" fill="#B4D9FF"/>
<path d="M393.43 214.925C393.111 214.925 392.792 214.592 392.792 214.258C392.792 207.59 387.685 202.588 381.302 202.588C378.429 202.588 375.876 203.922 373.641 205.922L372.684 206.923V205.589C371.726 193.919 362.47 184.916 351.299 184.916C351.299 184.916 351.299 184.916 350.98 184.916C341.404 184.916 333.106 191.918 330.552 201.588C330.552 201.921 330.233 202.255 329.914 201.921C329.595 201.921 329.276 201.588 329.595 201.254C332.148 190.918 341.085 183.582 351.299 183.582H351.618C362.789 183.582 372.365 192.585 373.961 204.255C376.195 202.588 378.748 201.588 381.621 201.588C388.643 201.588 394.069 207.256 394.388 214.592C394.069 214.592 393.75 214.592 393.43 214.925Z" fill="#0037A2"/>
<path d="M380.073 172.085L358.523 172.388C355.487 172.388 353.059 169.657 353.666 166.621L357.309 144.161C357.916 141.429 360.04 139.304 363.076 139.304L384.626 139.001C387.661 139.001 390.089 141.733 389.482 144.768L385.84 167.229C385.233 169.96 382.804 172.085 380.073 172.085Z" fill="#F46161"/>
<path d="M375.52 158.427C374.609 158.427 373.699 158.73 373.092 159.337L369.146 156.302C369.45 155.998 369.45 155.695 369.45 155.088C369.45 154.784 369.45 154.481 369.45 154.177L374.306 151.446C374.913 152.053 375.52 152.356 376.431 152.356C378.252 152.356 380.073 150.839 380.376 149.017C380.68 147.196 379.466 145.679 377.341 145.679C375.52 145.679 373.699 147.196 373.395 149.017C373.395 149.321 373.395 149.928 373.395 150.232L368.539 152.963C367.932 152.356 367.325 152.053 366.414 152.053C364.593 152.053 362.772 153.57 362.469 155.391C362.165 157.213 363.379 158.73 365.504 158.73C366.414 158.73 367.325 158.427 367.932 157.82L371.878 160.855C371.878 161.158 371.574 161.462 371.574 161.765C371.271 163.587 372.485 165.104 374.609 165.104C376.431 165.104 378.252 163.587 378.555 161.765C378.555 159.944 377.341 158.427 375.52 158.427Z" fill="white"/>
<path d="M113.56 41.5897L90.8167 41.7792C87.5948 41.7792 84.9414 38.9363 85.51 35.7144L89.4901 12.0235C90.0586 9.18065 92.5225 6.90632 95.3654 6.90632L118.109 6.7168C121.331 6.7168 123.984 9.55971 123.415 12.7817L119.435 36.4725C119.056 39.5049 116.592 41.5897 113.56 41.5897Z" fill="#1964F1"/>
<path d="M103.326 27.9433C105.6 27.9433 107.685 26.048 108.064 23.7737L109.011 17.1403C109.39 14.866 107.685 12.9707 105.6 12.9707C103.326 12.9707 101.241 14.866 100.862 17.1403L99.9141 23.7737C99.535 26.048 101.051 27.9433 103.326 27.9433Z" fill="white"/>
<path d="M110.148 19.4146C109.769 19.4146 109.58 19.6041 109.58 19.9832L109.011 23.7737C108.632 26.4271 105.979 28.7014 103.326 28.7014C100.672 28.7014 98.7769 26.4271 99.156 23.7737L99.7245 19.9832C99.7245 19.6041 99.535 19.4146 99.156 19.4146C98.7769 19.4146 98.5874 19.6041 98.5874 19.9832L98.0188 23.7737C97.6397 26.9957 99.535 29.4595 102.567 29.8386L101.809 34.3872H98.9664C98.5874 34.3872 98.3978 34.5767 98.3978 34.9558C98.3978 35.3348 98.5874 35.5244 98.9664 35.5244H105.789C106.168 35.5244 106.358 35.3348 106.358 34.9558C106.358 34.5767 106.168 34.3872 105.789 34.3872H102.946L103.705 29.8386C106.737 29.4595 109.58 26.9957 110.148 23.7737L110.717 19.9832C110.717 19.7937 110.528 19.4146 110.148 19.4146Z" fill="white"/>
<path d="M66.7301 24.627L42.3272 24.8508C39.1929 24.8508 36.5063 27.0896 36.0585 30.224L31.8048 55.5225C31.1332 58.8807 33.8197 62.2389 37.4018 62.015L61.8048 61.7911C64.9391 61.7911 67.6257 59.5523 68.0734 56.418L72.3272 31.1195C72.9988 27.7613 70.3122 24.627 66.7301 24.627Z" fill="#0037A2"/>
<path d="M54.6406 32.4629C48.8197 32.4629 42.7749 37.1644 41.4316 42.9853C40.0884 48.8062 43.6705 53.5077 49.4914 53.5077C55.3123 53.5077 61.357 48.8062 62.7003 42.9853C64.0436 37.1644 60.4615 32.4629 54.6406 32.4629Z" fill="#0037A2"/>
<path d="M47.2525 50.2322C47.2525 52.0233 45.2376 53.8143 42.551 54.2621C39.8645 54.7098 37.8495 53.5904 37.6257 51.7994C37.6257 50.0083 39.6406 48.2173 42.3271 47.7695C45.0137 47.3218 47.2525 48.4412 47.2525 50.2322Z" fill="white"/>
<path d="M44.5659 49.5606C44.5659 50.4561 43.4465 51.5755 41.8794 51.7994C40.3122 52.0233 39.1928 51.3516 39.1928 50.4561C39.1928 49.5606 40.3122 48.4412 41.8794 48.2173C43.2227 47.9934 44.5659 48.6651 44.5659 49.5606Z" fill="white"/>
<path d="M59.1182 50.2322C59.1182 52.0233 57.1033 53.8143 54.4167 54.2621C51.7301 54.7098 49.7152 53.5904 49.4913 51.7994C49.4913 50.0083 51.5062 48.2173 54.1928 47.7695C57.1033 47.3218 59.1182 48.4412 59.1182 50.2322Z" fill="white"/>
<path d="M46.1331 51.3516C45.6853 51.3516 45.2376 50.9038 45.4615 50.4561L47.9242 35.2322C47.9242 34.7845 48.5958 34.3367 49.0436 34.3367C49.4913 34.3367 49.9391 34.7845 49.7152 35.2322L47.2525 50.4561C47.0286 50.9038 46.5809 51.3516 46.1331 51.3516Z" fill="white"/>
<path d="M58.2227 51.3516C57.7749 51.3516 57.3271 50.9038 57.551 50.4561L60.0137 35.2322C60.0137 34.7845 60.6854 34.3367 61.1331 34.3367C61.5809 34.3367 62.0286 34.7845 61.8047 35.2322L59.3421 50.4561C59.1182 50.9038 58.6704 51.3516 58.2227 51.3516Z" fill="white"/>
<path d="M61.357 37.471H47.4764L48.148 33.665H62.0286L61.357 37.471Z" fill="white"/>
<path d="M56.2077 50.0083C56.2077 50.9039 55.0883 52.0233 53.5212 52.2471C51.954 52.471 50.8346 51.7994 50.8346 50.9039C50.8346 50.0083 51.954 48.8889 53.5212 48.6651C55.0883 48.4412 56.2077 49.1128 56.2077 50.0083Z" fill="white"/>
<path d="M68.0734 27.0898C66.954 27.0898 65.8346 27.9854 65.6107 29.1048C65.3869 30.2242 66.0585 31.1197 67.1779 31.1197C68.2973 31.1197 69.4167 30.2242 69.6406 29.1048C70.0884 28.2093 69.4167 27.0898 68.0734 27.0898Z" fill="#F46161"/>
<path d="M301.925 296.641C311.552 296.641 319.164 288.806 319.164 279.403V259.701H284.686V279.403C284.686 289.03 292.298 296.641 301.925 296.641Z" fill="white"/>
<path d="M308.866 297.089H295.209C289.164 297.089 284.239 292.164 284.239 286.119V259.029H319.612V286.119C319.612 292.164 314.686 297.089 308.866 297.089ZM285.134 260.149V286.343C285.134 291.94 289.612 296.417 295.209 296.417H308.866C314.463 296.417 318.94 291.94 318.94 286.343V260.149H285.134Z" fill="#0040BC"/>
<path d="M296.776 236.418C297.672 231.94 301.03 228.134 305.06 225.896C309.089 223.657 313.567 222.761 318.269 222.313C317.373 225.672 319.164 229.254 320.283 232.612C321.627 236.418 321.851 240.672 320.507 244.478C319.836 246.716 318.269 248.731 316.478 250.075C314.686 251.642 312.448 251.866 310.433 252.537C309.313 252.985 308.194 253.657 307.075 253.657C305.283 253.657 303.94 252.313 303.045 250.97C302.373 249.851 301.701 248.507 300.806 247.388C299.91 246.269 299.015 245.597 298.343 244.254C296.552 241.791 296.104 239.105 296.776 236.418Z" fill="#82BBFF"/>
<path d="M273.716 240.895C274.164 237.313 275.507 233.955 276.179 230.373C276.851 226.791 277.075 222.985 276.851 219.179C281.104 224.104 288.492 224.104 293.866 227.462C297 229.477 299.239 232.612 300.358 236.194C301.701 240.223 301.701 244.253 300.134 248.059C300.134 248.283 299.91 248.507 299.91 248.507C299.463 249.626 299.015 250.746 298.343 251.865C298.119 252.313 297.895 252.985 297.224 253.209C297 253.209 296.776 253.209 296.328 253.209C294.313 253.209 292.522 254.104 290.731 254.328C288.94 254.552 287.149 254.552 285.358 254.552C282 254.552 278.418 253.656 276.179 250.97C273.94 248.283 273.269 244.477 273.716 240.895Z" fill="#004AD7"/>
<path d="M306.403 259.701H305.507C306.179 248.731 307.522 237.537 313.343 228.357L314.015 228.805C308.194 237.537 306.851 248.954 306.403 259.701Z" fill="#0040BC"/>
<path d="M298.343 259.701C295.881 248.955 290.283 238.881 282.448 231.045L283.119 230.373C291.179 238.209 296.776 248.507 299.239 259.478L298.343 259.701Z" fill="#0040BC"/>
<path d="M113.605 105.224H47.5153C44.5861 105.224 42.5723 102.901 42.9384 100.041L48.9799 58.3944C49.346 55.5346 52.0922 53.2109 55.0214 53.2109H121.111C124.041 53.2109 126.055 55.5346 125.688 58.3944L119.647 100.041C119.281 102.901 116.535 105.224 113.605 105.224Z" fill="#B4D9FF"/>
<path d="M110.898 99.8301H51.179C48.6747 99.8301 46.9409 97.7111 47.3262 95.2067L52.1422 61.4945C52.5275 58.9902 54.8392 56.8711 57.3435 56.8711H117.062C119.567 56.8711 121.301 58.9902 120.915 61.4945L116.099 95.2067C115.714 97.7111 113.402 99.8301 110.898 99.8301Z" fill="#3E85F4"/>
<path d="M48.482 88.079L47.3262 95.592C47.1335 98.0964 48.8673 100.023 51.179 100.023H73.9107L61.1964 72.8604L48.482 88.079Z" fill="#0040BC"/>
<path d="M61.7743 80.7589L62.5449 82.3L64.4713 79.7957L61.1964 72.668L55.2245 79.7957L56.3804 82.3L57.9215 80.5663L59.27 83.6485L61.7743 80.7589Z" fill="white"/>
<path d="M71.0211 93.8578L80.8458 81.9141L89.322 99.8297H73.9107L71.0211 93.8578Z" fill="#0040BC"/>
<path d="M106.66 71.512C106.082 75.7502 102.229 79.0251 97.9909 79.0251C93.7528 79.0251 90.8632 75.5575 91.4411 71.512C92.019 67.2739 95.8719 63.999 100.11 63.999C104.348 63.999 107.43 67.4666 106.66 71.512Z" fill="#F46161"/>
<path d="M81.4237 89.8124L82.1943 91.5461L84.3134 89.0418L80.8458 81.9141L75.0666 89.0418L76.2224 91.5461L77.5709 89.8124L78.9194 92.8946L81.4237 89.8124Z" fill="white"/>
<path d="M260.731 296.642H162.448C151.478 296.642 142.522 287.687 142.522 276.716L174.09 46.791C174.09 39.4029 179.91 33.582 187.298 33.582H283.343C295.657 33.582 305.731 43.6567 305.731 55.9701L274.164 283.657C272.821 290.821 267.895 296.642 260.731 296.642Z" fill="white"/>
<path d="M260.731 297.089H162.448C151.254 297.089 142.075 287.91 142.075 276.716L173.642 46.7905C173.642 39.1786 179.687 33.1338 187.298 33.1338H283.343C295.881 33.1338 306.179 43.4323 306.179 55.9696L274.612 283.656C273.269 291.492 267.672 297.089 260.731 297.089ZM142.746 276.492C142.746 287.238 151.478 295.97 162.224 295.97H260.507C267.224 295.97 272.149 290.82 273.269 283.208L304.836 55.5218C304.836 43.4323 294.985 33.5815 282.896 33.5815H186.851C179.91 33.5815 174.09 39.4024 174.09 46.3427L142.746 276.492Z" fill="#0040BC"/>
<path d="M255.806 291.269H155.507C148.119 291.269 142.298 285.448 142.298 278.06L173.866 46.5674C173.866 39.1793 179.687 33.3584 187.075 33.3584H287.373C294.761 33.3584 300.582 39.1793 300.582 46.5674L269.015 278.06C267.672 285.224 263.194 291.269 255.806 291.269Z" fill="#B4D9FF"/>
<path d="M255.806 291.716H155.507C147.895 291.716 141.851 285.671 141.851 278.059L173.418 46.5669C173.418 38.9549 179.463 32.9102 187.075 32.9102H287.373C294.985 32.9102 301.03 38.9549 301.03 46.5669L269.463 278.059C268.119 284.776 263.866 291.716 255.806 291.716ZM142.97 278.283C142.97 285.224 148.791 291.044 155.731 291.044H255.806C263.194 291.044 267.224 284.328 268.567 278.283L300.134 47.0146C300.134 40.0743 294.313 34.2535 287.373 34.2535H187.075C180.134 34.2535 174.313 40.0743 174.313 47.0146L142.97 278.283Z" fill="#0040BC"/>
<path d="M282.207 50.0668C284.641 50.5028 287.021 48.587 287.522 45.7878C288.023 42.9886 286.457 40.366 284.022 39.93C281.588 39.4941 279.209 41.4098 278.707 44.209C278.206 47.0082 279.773 49.6309 282.207 50.0668Z" fill="#0037A2"/>
<g opacity="0.3">
<path d="M187.075 33.3584C179.687 33.3584 173.866 39.1793 173.866 46.5674L143.418 268.881H235.881C243.045 268.881 246.851 262.388 248.194 256.567L278.642 33.3584H187.075V33.3584Z" fill="#0037A2"/>
</g>
<path d="M131.776 264.179C125.06 264.179 119.687 258.806 119.687 252.09L151.254 20.5974C151.254 13.8809 156.627 8.50781 163.343 8.50781H263.642C270.358 8.50781 275.731 13.8809 275.731 20.5974L244.164 251.866C242.821 257.687 239.015 264.179 231.851 264.179H131.776Z" fill="#3E85F4"/>
<path d="M129.761 261.717C123.045 261.717 117.672 256.343 117.672 249.627L149.239 18.1345C149.239 11.4181 154.612 6.04492 161.328 6.04492H261.627C268.343 6.04492 273.716 11.4181 273.716 18.1345L242.149 249.403C240.806 255.224 237 261.717 229.836 261.717H129.761V261.717Z" fill="white"/>
<path d="M189.985 119.329H185.507V118.433H189.985C190.209 118.433 190.657 118.433 190.881 118.433L191.104 119.329C190.657 119.329 190.433 119.329 189.985 119.329ZM180.134 119.329H174.761V118.433H180.134V119.329ZM169.388 119.329H164.015V118.433H169.388V119.329ZM158.642 119.329H153.269V118.433H158.642V119.329ZM147.895 119.329C145.881 119.329 144.089 118.209 142.97 116.418L143.642 115.971C144.537 117.314 146.104 118.433 147.672 118.433L147.895 119.329ZM195.134 115.299L194.239 115.075C194.463 114.627 194.463 114.18 194.687 113.732L195.134 109.926L196.03 110.15L195.582 113.956C195.358 114.404 195.358 114.851 195.134 115.299ZM143.642 111.045L142.746 110.821L143.418 105.448L144.313 105.672L143.642 111.045ZM196.925 104.553L196.03 104.329L196.701 98.9558L197.597 99.1797L196.925 104.553ZM144.985 100.523L144.089 100.299L144.761 94.9259L145.657 95.1498L144.985 100.523ZM198.269 94.0304L197.373 93.8065L198.045 88.4334L198.94 88.6573L198.269 94.0304ZM146.552 89.7767L145.657 89.5528L146.328 84.1796L147.224 84.4035L146.552 89.7767ZM199.836 83.2841L198.94 83.0602L199.612 77.6871L200.507 77.911L199.836 83.2841ZM147.895 79.0304L147 78.8065L147.672 73.4334L148.567 73.6573L147.895 79.0304ZM201.179 72.5379L200.284 72.314L200.955 66.9408L201.851 67.1647L201.179 72.5379ZM149.463 68.508L148.567 68.2841L149.239 62.911L150.134 63.1349L149.463 68.508ZM202.746 61.7916L201.851 61.5677L202.522 56.1946L203.418 56.4185L202.746 61.7916ZM150.806 57.7617L149.91 57.5379L150.582 52.1647L151.478 52.3886L150.806 57.7617ZM204.09 51.2692L203.194 51.0453L203.866 45.6722L204.761 45.8961L204.09 51.2692ZM152.373 47.0155L151.478 46.7916L152.149 41.4185L153.045 41.6423L152.373 47.0155ZM205.657 40.5229L204.761 40.2991L205.433 34.9259L206.328 35.1498L205.657 40.5229ZM153.716 36.2692L152.821 36.0453L153.492 30.6722L154.388 30.8961L153.716 36.2692ZM207 29.7767L206.104 29.5528L206.776 24.1797L207.672 24.4035L207 29.7767ZM155.284 25.7468L154.388 25.5229L155.06 20.1498L155.955 20.3737L155.284 25.7468ZM208.343 19.2543L207.448 19.0304L207.895 16.3438C207.895 15.4483 207.672 14.7767 207.224 13.8811L207.895 13.4334C208.343 14.3289 208.791 15.2244 208.791 16.3438L208.343 19.2543ZM156.627 15.0005L155.731 14.7767C156.403 12.7617 157.97 11.4185 159.761 10.9707L159.985 11.8662C158.418 12.314 157.075 13.4334 156.627 15.0005ZM203.194 11.8662H197.821V10.9707H203.194V11.8662ZM192.448 11.8662H187.075V10.9707H192.448V11.8662ZM181.478 11.8662H176.104V10.9707H181.478V11.8662ZM170.731 11.8662H165.358V10.9707H170.731V11.8662Z" fill="#0040BC"/>
<path d="M195.358 6.7168H156.851C152.373 8.50784 149.015 12.9855 149.015 18.1347L136.254 112.612C137.149 113.732 138.492 114.179 140.06 114.179H182.149C185.06 114.179 186.851 111.493 187.298 109.03L200.507 11.8661C200.507 8.95561 198.269 6.7168 195.358 6.7168Z" fill="#82BBFF"/>
<path d="M208.567 120.448C205.657 120.448 203.418 118.209 203.418 115.299L216.627 18.1346C216.627 15.2241 218.866 12.9854 221.776 12.9854H263.866C266.776 12.9854 269.015 15.2241 269.015 18.1346L255.806 115.299C255.358 117.761 253.567 120.448 250.657 120.448H208.567Z" fill="#00256D"/>
<path d="M207 118.881C204.09 118.881 201.851 116.642 201.851 113.731L215.06 16.5672C215.06 13.6568 217.298 11.418 220.209 11.418H262.298C265.209 11.418 267.448 13.6568 267.448 16.5672L254.239 113.731C253.791 116.194 252 118.881 249.09 118.881H207V118.881Z" fill="#0040BC"/>
<path d="M251.104 87.9849H213.492L213.94 85.7461H251.552L251.104 87.9849Z" fill="#5D9EF6"/>
<path d="M250.209 94.4774H212.597L212.821 92.2386H250.433L250.209 94.4774Z" fill="#5D9EF6"/>
<path d="M225.582 100.746H211.478L211.925 98.5073H226.03L225.582 100.746Z" fill="#5D9EF6"/>
<path d="M245.774 55.4104H248.499L247.891 59.0484C247.55 61.0615 245.628 62.6865 243.633 62.6865H221.735C219.716 62.6865 218.353 61.0615 218.694 59.0484L221.176 44.4962C221.516 42.4832 223.414 40.8582 225.433 40.8582H230.908L227.672 59.9701H238.621L239.399 55.4104H242.124L241.346 59.9701H244.071C244.582 59.9701 245.044 59.5578 245.141 59.0484L245.75 55.4104H245.774ZM227.696 43.5746H224.971C224.46 43.5746 223.998 43.9869 223.901 44.4962L223.438 47.2126H227.088L227.696 43.5746ZM226.626 49.929H222.976L222.368 53.5671H226.017L226.626 49.929ZM225.555 56.2835H221.906L221.443 58.9999C221.37 59.5093 221.711 59.9216 222.198 59.9216H224.923L225.531 56.2835H225.555ZM258.888 37.2201L256.723 49.9533C256.382 51.9664 254.46 53.5914 252.465 53.5914H234.217C232.197 53.5914 230.835 51.9664 231.176 49.9533L233.341 37.2201C233.682 35.207 235.604 33.582 237.599 33.582H255.847C257.866 33.582 259.229 35.207 258.888 37.2201ZM256.163 37.2201C256.236 36.7108 255.92 36.2984 255.409 36.2984H237.161C236.65 36.2984 236.188 36.7108 236.09 37.2201L233.925 49.9533C233.852 50.4626 234.193 50.8749 234.679 50.8749L239.74 45.3451C239.959 45.1026 240.251 44.9813 240.543 44.9813C240.883 44.9813 241.127 45.1268 241.273 45.3451L242.246 47.0914L246.723 41.7313C246.942 41.4887 247.234 41.319 247.55 41.319C247.866 41.319 248.11 41.4645 248.256 41.7313L252.927 50.8749C253.438 50.8749 253.9 50.4626 253.998 49.9533L256.163 37.2201V37.2201ZM241.054 39.9365C240.883 40.9309 239.935 41.7555 238.913 41.7555C237.891 41.7555 237.234 40.9309 237.404 39.9365C237.574 38.9421 238.523 38.1175 239.545 38.1175C240.616 38.1175 241.224 38.9421 241.054 39.9365V39.9365Z" fill="#B4D9FF"/>
<path d="M136.478 108.806C133.567 108.806 131.328 106.568 131.328 103.657L144.537 6.49301C144.537 3.58256 146.776 1.34375 149.687 1.34375H191.776C194.687 1.34375 196.925 3.58256 196.925 6.49301L183.716 103.657C183.269 106.12 181.478 108.806 178.567 108.806H136.478V108.806Z" fill="#AA2B29"/>
<path d="M135.134 107.463C132.224 107.463 129.985 105.224 129.985 102.313L143.194 5.14925C143.194 2.2388 145.433 0 148.343 0H190.433C193.343 0 195.582 2.2388 195.582 5.14925L182.373 102.313C181.925 104.776 180.134 107.463 177.224 107.463H135.134Z" fill="#F46161"/>
<path d="M143.642 63.8062C141.179 63.8062 139.164 61.7912 139.164 59.3285L146.552 7.83601C146.552 5.37332 148.567 3.3584 151.03 3.3584H187.746C190.209 3.3584 192.224 5.37332 192.224 7.83601L184.836 59.3285C184.388 61.5674 183.045 63.8062 180.358 63.8062H143.642Z" fill="#FB7F7F"/>
<path d="M178.414 57.5464L143.879 58.1969C142.6 58.221 141.666 57.1419 141.824 55.8594L147.994 14.6157C148.325 12.7816 149.762 11.475 151.59 11.4406L185.942 10.7936C187.221 10.7695 188.155 11.8486 187.996 13.1311L181.834 54.7402C181.496 56.2089 180.058 57.5155 178.414 57.5464Z" fill="white"/>
<path d="M161.939 17.4603C161.756 17.4637 161.57 17.2845 161.567 17.1017L161.725 15.8192C161.722 15.6365 161.901 15.4503 162.084 15.4469L183.645 15.0408C183.828 15.0374 184.014 15.2166 184.018 15.3994L183.859 16.6819C183.863 16.8646 183.683 17.0508 183.501 17.0542L161.939 17.4603Z" fill="#B4D9FF"/>
<path d="M161.46 21.1251C161.277 21.1285 161.091 20.9493 161.087 20.7665L161.246 19.484C161.243 19.3013 161.422 19.1151 161.605 19.1117L183.166 18.7056C183.349 18.7022 183.535 18.8814 183.538 19.0642L183.38 20.3467C183.383 20.5294 183.204 20.7156 183.021 20.719L161.46 21.1251Z" fill="#B4D9FF"/>
<path d="M160.798 24.7934C160.615 24.7968 160.429 24.6175 160.425 24.4348L160.767 23.1488C160.763 22.9661 160.943 22.7799 161.125 22.7765L182.687 22.3704C182.869 22.367 183.056 22.5462 183.059 22.729L182.9 24.0115C182.904 24.1942 182.725 24.3804 182.542 24.3838L160.798 24.7934Z" fill="#B4D9FF"/>
<path d="M149.355 28.6646C149.172 28.6681 148.986 28.4888 148.983 28.3061L149.141 27.0236C149.138 26.8408 149.317 26.6547 149.5 26.6512L182.025 26.0386C182.207 26.0352 182.394 26.2145 182.397 26.3972L182.238 27.6797C182.242 27.8624 182.062 28.0486 181.88 28.052L149.355 28.6646Z" fill="#B4D9FF"/>
<path d="M148.696 32.5156C148.514 32.5191 148.327 32.3398 148.324 32.1571L148.483 30.8745C148.479 30.6918 148.658 30.5057 148.841 30.5022L181.366 29.8896C181.549 29.8862 181.735 30.0654 181.738 30.2482L181.58 31.5307C181.583 31.7134 181.404 31.8996 181.221 31.903L148.696 32.5156Z" fill="#B4D9FF"/>
<path d="M148.217 36.1804C148.034 36.1839 147.848 36.0046 147.845 35.8219L148.003 34.5393C148 34.3566 148.179 34.1705 148.362 34.167L180.887 33.5544C181.069 33.551 181.256 33.7302 181.259 33.913L181.1 35.1955C181.104 35.3782 180.925 35.5644 180.742 35.5678L148.217 36.1804Z" fill="#B4D9FF"/>
<path d="M147.555 39.8487C147.372 39.8521 147.186 39.6728 147.183 39.4901L147.341 38.2076C147.338 38.0249 147.517 37.8387 147.7 37.8353L180.225 37.2227C180.407 37.2192 180.593 37.3985 180.597 37.5812L180.438 38.8637C180.442 39.0465 180.262 39.2326 180.08 39.2361L147.555 39.8487Z" fill="#B4D9FF"/>
<path d="M147.076 43.5135C146.893 43.5169 146.707 43.3376 146.703 43.1549L146.862 41.8724C146.858 41.6897 147.038 41.5035 147.22 41.5001L179.745 40.8875C179.928 40.884 180.114 41.0633 180.118 41.246L179.959 42.5285C179.962 42.7113 179.783 42.8974 179.6 42.9009L147.076 43.5135Z" fill="#B4D9FF"/>
<path d="M146.414 47.1817C146.231 47.1851 146.045 47.0059 146.041 46.8231L146.2 45.5406C146.196 45.3579 146.376 45.1717 146.558 45.1683L179.083 44.5557C179.266 44.5523 179.452 44.7315 179.456 44.9143L179.297 46.1968C179.3 46.3795 179.121 46.5657 178.938 46.5691L146.414 47.1817Z" fill="#B4D9FF"/>
<path d="M145.934 50.8465C145.751 50.8499 145.565 50.6707 145.562 50.4879L145.72 49.2054C145.717 49.0227 145.896 48.8365 146.079 48.8331L178.604 48.2205C178.787 48.2171 178.973 48.3963 178.976 48.5791L178.818 49.8616C178.821 50.0443 178.642 50.2305 178.459 50.2339L145.934 50.8465Z" fill="#B4D9FF"/>
<path d="M145.276 54.6975C145.093 54.7009 144.907 54.5216 144.903 54.3389L145.062 53.0564C145.058 52.8737 145.238 52.6875 145.42 52.6841L177.945 52.0715C178.128 52.068 178.314 52.2473 178.318 52.43L178.159 53.7125C178.162 53.8953 177.983 54.0814 177.8 54.0849L145.276 54.6975Z" fill="#B4D9FF"/>
<path d="M157.147 25.0455L156.743 23.0424L152.723 23.1182L151.3 25.1556L149.107 25.1969L155.689 15.568L157.699 15.5301L159.339 25.0042L157.147 25.0455ZM156.106 18.3019L154.147 21.0807L156.523 21.0359L156.106 18.3019Z" fill="#F46161"/>
<path d="M177.224 79.0298H139.612L140.06 76.791H177.672L177.224 79.0298Z" fill="white"/>
<path d="M176.328 85.5223H138.716L138.94 83.2835H176.552L176.328 85.5223Z" fill="white"/>
<path d="M151.701 91.791H137.597L138.045 89.5522H152.149L151.701 91.791Z" fill="white"/>
<path d="M136.478 257.911C130.433 257.911 125.507 252.985 125.507 246.94L141.851 137.015C141.851 130.97 146.776 126.045 152.821 126.045H243.045C249.09 126.045 254.015 130.97 254.015 137.015L237.895 246.94C236.776 252.314 233.194 258.134 226.925 258.134H136.478V257.911Z" fill="#5D9EF6"/>
<path d="M134.687 256.12C128.642 256.12 123.716 251.194 123.716 245.149L140.06 135.224C140.06 129.179 144.985 124.254 151.03 124.254H241.254C247.298 124.254 252.224 129.179 252.224 135.224L236.104 245.149C234.985 250.523 231.403 256.343 225.134 256.343H134.687V256.12Z" fill="#E3F0FF"/>
<path d="M212.821 171.717C210.582 185.374 197.821 196.568 184.164 196.568C170.507 196.568 161.104 185.374 163.119 171.717C165.358 158.06 178.119 146.866 191.776 146.866C205.433 146.866 214.836 158.06 212.821 171.717Z" fill="#3E85F4"/>
<path d="M203.116 185.206L192.895 181.68L193.382 179.161L189.489 181.176H187.055L184.135 178.658L183.648 181.176L172.454 184.702C171.481 185.206 170.994 185.71 170.994 186.717L170.507 189.236C173.914 192.762 178.294 194.777 184.135 194.777C191.435 194.777 198.249 191.251 204.089 186.214C204.089 186.214 204.089 185.206 203.116 185.206Z" fill="#82BBFF"/>
<path d="M184.135 175.635L187.542 178.154H189.975L193.869 176.139L194.356 175.635C195.816 175.131 196.302 173.62 196.789 172.613L199.223 162.538C199.709 158.005 196.789 154.479 192.409 154.479C188.028 154.479 183.648 158.005 183.161 162.538L182.675 172.613C182.675 173.62 183.161 174.628 184.135 175.635Z" fill="#82BBFF"/>
<path d="M212.597 212.911H152.821L153.492 209.329H213.045L212.597 212.911Z" fill="#82BBFF"/>
<path d="M210.806 222.986H151.254L151.701 219.628H211.478L210.806 222.986Z" fill="#82BBFF"/>
<path d="M172.075 233.284H149.686L150.134 229.702H172.522L172.075 233.284Z" fill="#82BBFF"/>
<path d="M92.1492 170.821C92.1492 170.821 81.179 173.732 80.9552 195.224H67.9701C67.9701 195.224 66.6268 160.747 64.6119 154.926L92.1492 170.821Z" fill="white"/>
<path d="M81.4029 195.448H67.7462V195C67.7462 194.552 66.4029 160.522 64.388 154.701L63.9402 153.582L93.2686 170.597L92.3731 171.269C92.1492 171.269 81.6268 174.403 81.6268 195.224L81.4029 195.448ZM68.4179 194.552H80.5074C80.7313 176.642 88.3432 171.716 91.0298 170.597L65.5074 155.821C67.0746 163.433 68.4179 190.746 68.4179 194.552Z" fill="#0040BC"/>
<path d="M88.5671 125.15C89.6865 125.597 94.1641 126.269 97.0746 138.583V141.493C97.0746 142.388 97.2985 143.06 97.7462 143.732L99.3134 147.538C99.7611 148.209 99.985 154.254 99.985 154.254L99.3134 163.209C99.0895 167.463 95.5074 170.821 91.2537 171.045C82.0746 171.493 67.9701 171.045 67.5223 163.881L58.1194 135.448C58.1194 135.672 61.7014 112.836 88.5671 125.15Z" fill="white"/>
<path d="M87.4477 171.94C87.2238 171.94 87 171.717 87 171.493C87 171.269 87.2238 171.045 87.4477 171.045C88.791 171.045 90.1343 171.045 91.4776 170.821C95.5074 170.597 98.8656 167.463 99.0895 163.433L99.7612 154.478C99.5373 151.567 99.3134 148.433 99.0895 147.985L97.5223 144.179C97.0746 143.508 96.8507 142.612 96.8507 141.717V138.806C94.1641 128.06 90.3582 126.493 89.0149 126.045C88.791 126.045 88.791 126.045 88.5671 125.821C79.6119 121.567 72.2238 121.12 66.8507 123.806C59.9104 127.388 58.5671 135.672 58.5671 135.672C58.5671 135.896 58.3432 136.12 58.1194 136.12C57.8955 136.12 57.6716 135.896 57.6716 135.672C57.6716 135.224 59.0149 126.94 66.4029 123.134C72 120 79.6119 120.672 88.791 124.925C88.791 124.925 89.0149 124.925 89.0149 125.149C90.582 125.821 94.8358 127.388 97.5223 138.582V141.493C97.5223 142.164 97.7462 142.836 98.194 143.508L99.7612 147.314C100.209 147.985 100.433 152.463 100.433 154.254L99.7612 163.433C99.5373 167.911 95.7313 171.493 91.2537 171.717C90.1343 171.717 88.791 171.94 87.4477 171.94Z" fill="#0040BC"/>
<g opacity="0.4">
<path d="M68.8656 141.941C67.0746 145.075 66.4029 148.881 65.5074 152.463C65.2835 153.359 65.0596 154.254 64.6119 155.15L65.2835 156.941C65.9552 161.418 66.6268 169.702 67.2985 177.538C67.7462 178.209 68.4178 178.881 69.0895 179.553C72.6716 183.135 77.1492 185.373 81.8507 186.941C82.7462 181.567 84.5373 177.985 86.3283 175.523C86.5522 171.717 87.6716 168.135 89.6865 165C91.0298 162.985 92.8208 160.747 92.3731 158.508C92.1492 156.941 91.0298 155.597 91.0298 153.806C91.0298 152.463 91.9253 151.344 92.1492 150C92.597 147.762 91.0298 145.747 90.3581 143.508C89.0149 139.702 90.3582 135 93.4925 132.314L89.4626 131.194C81.179 132.09 72.6716 135.224 68.8656 141.941Z" fill="#E3F0FF"/>
</g>
<path d="M157.97 133.209L167.149 118.209C167.597 117.537 167.821 116.642 167.597 115.746L166.925 108.358L166.254 100.074L168.045 92.2387H168.716C170.06 92.2387 170.955 93.3581 170.955 94.7014V99.4029L172.522 104.552L181.254 103.88L186.627 97.3879L185.731 87.985C185.507 85.97 186.851 83.9551 188.642 83.0596L191.552 97.3879L186.627 110.821C186.403 111.269 186.179 111.492 185.955 111.94L177.672 122.463L166.925 146.194C166.925 145.97 157.97 145.746 157.97 133.209Z" fill="white"/>
<path d="M167.149 146.418H166.925C166.925 146.418 157.522 145.97 157.522 132.985V132.761L166.701 117.537C167.149 116.866 167.373 116.194 167.149 115.299L166.478 107.911L165.806 99.627L167.597 91.3434H168.492C170.06 91.3434 171.179 92.6867 171.179 94.2539V98.7315L172.522 103.433L180.582 102.761L185.731 96.7165L184.836 87.5374C184.612 85.2986 185.955 83.0598 188.194 82.1643L188.642 81.9404L191.552 96.9404L186.403 110.597C186.179 111.045 185.955 111.493 185.731 111.717L177.672 122.239L167.149 146.418ZM158.418 133.209C158.418 144.179 165.134 145.299 166.701 145.523L177.224 122.015L185.507 111.269C185.731 111.045 185.955 110.597 185.955 110.373L190.881 96.9404L188.194 83.2837C186.627 84.1792 185.731 85.7464 185.955 87.5374L186.851 96.9404L181.254 103.657L172.075 104.328L170.507 98.7315V94.03C170.507 92.9106 169.612 92.0151 168.492 92.0151H168.269L166.701 99.4031L167.373 107.463L168.045 114.851C168.045 115.746 167.821 116.642 167.373 117.537L158.418 133.209Z" fill="#0040BC"/>
<path d="M100.881 297.314C99.985 286.12 99.985 271.344 99.985 267.538C99.985 267.09 99.985 266.642 99.985 265.971C99.5373 257.687 111.403 217.836 111.403 217.836L151.254 173.06C151.701 172.389 152.373 171.717 152.821 171.045L167.373 146.418C159.313 143.956 157.746 132.762 157.746 132.762L142.97 156.717C141.403 159.404 138.94 161.642 136.03 163.209L99.5373 182.687L44.6865 190.971C31.4776 192.986 21.4029 203.732 20.2835 216.941L16.9253 258.583L21.1791 297.314H24.3134L34.6119 276.941L33.9403 263.284L37.0746 232.612C37.5223 235.299 41.1044 246.941 42 249.851C42.2238 250.299 42.2238 250.747 42.2238 251.195C41.9999 263.508 30.1343 286.792 24.5373 297.314H100.881Z" fill="#0040BC"/>
<path d="M88.791 141.941C86.5522 145.97 87.2238 150 87.6716 154.478C88.1193 158.955 86.1044 161.866 84.985 166.12C83.6417 170.821 85.2089 175.747 86.3283 180.672C87.4477 185.373 87.8955 190.075 88.791 195C89.4626 198.806 89.4626 203.06 90.582 206.866C91.0298 208.657 95.7313 220.299 98.194 219.851C88.5671 222.09 78.7164 224.105 68.8656 223.209C63.4925 222.761 58.1193 221.418 52.7462 220.523C48.4925 219.851 44.4626 219.627 40.2089 219.627C39.0895 219.627 37.7462 219.627 36.8507 219.179C35.9552 218.732 35.5074 217.836 35.0597 216.941C29.9104 207.538 35.7313 192.09 39.985 183.135C43.1193 176.866 46.9253 170.373 47.3731 163.209C47.597 159.627 46.9253 156.045 46.7014 152.463C46.0298 138.135 51.8507 117.314 69.0895 116.194C76.2537 115.747 84.7611 117.761 91.9253 119.329C95.9552 120.224 100.433 121.791 102.224 125.597C103.791 129.179 102 133.881 98.4178 135.448C97.0746 135.896 95.7313 136.12 94.388 136.567C92.1492 137.463 89.9104 139.926 88.791 141.941Z" fill="#F46161"/>
<path d="M95.5074 135.671C87 138.582 86.3283 148.433 87.6716 156.045C88.3432 159.179 88.3432 161.865 87.2238 165C86.3283 167.239 85.2089 169.477 84.7611 171.716C83.8656 175.746 84.5373 180 86.3283 183.806C86.5522 184.03 87 183.806 86.7761 183.582C84.7611 179.328 84.3134 174.627 85.8805 170.149C87 166.567 89.0149 163.209 88.791 159.403C88.3432 154.701 87 150.448 87.8955 145.97C88.791 141.716 91.4776 137.91 95.7313 136.567C95.9552 136.119 95.7313 135.448 95.5074 135.671Z" fill="#F46161"/>
<path d="M59.6865 119.105C41.5522 131.194 49.8358 157.388 42.8955 174.851C42.6716 175.075 43.3432 175.299 43.3432 175.075C47.3731 165.224 46.4776 154.478 47.8208 144.179C48.9403 135 51.8507 125.149 59.9104 119.776C60.1343 119.552 59.9104 118.881 59.6865 119.105Z" fill="#FB7F7F"/>
<path d="M47.1492 157.835C47.597 163.88 46.7014 169.701 44.4626 175.298C42.4477 180.447 39.5373 185.373 36.8507 190.298C32.597 198.582 29.4626 208.656 33.7164 217.612C33.9402 217.835 34.388 217.612 34.1641 217.388C29.2387 207.089 34.388 195.895 39.5373 186.492C44.4626 177.313 48.4925 168.582 47.8208 158.059C47.8208 157.388 47.1492 157.388 47.1492 157.835Z" fill="#FDE7E7"/>
<path d="M85.4328 184.926C84.3134 190.523 86.7761 197.015 88.791 202.164C91.0298 207.537 93.9403 212.687 97.5223 217.164C97.7462 217.388 98.194 216.94 97.9701 216.717C94.388 212.239 91.4776 207.314 89.2388 201.94C87.2238 197.015 84.7612 190.523 85.8806 184.926C86.1044 184.702 85.6567 184.478 85.4328 184.926Z" fill="#F46161"/>
<path d="M72.4477 116.194C71.3283 116.194 70.2089 116.194 69.0895 116.194C51.8507 117.314 46.0298 138.135 46.7014 152.463C46.9253 156.045 47.597 159.627 47.3731 163.209C46.9253 170.373 43.1193 176.866 39.985 183.135C35.7313 192.09 29.6865 207.314 35.0597 216.941C35.5074 217.836 36.1791 218.732 36.8507 219.179C37.9701 219.851 39.0895 219.627 40.2089 219.627C42.8955 219.627 45.8059 219.627 48.4925 219.851C47.3731 218.508 46.2537 217.164 45.3582 215.821C42.4477 211.12 42.6716 205.075 44.2388 199.926C46.0298 194.776 48.9402 190.075 51.6268 185.15C54.985 178.657 57.8955 171.717 57.4477 164.329C57 157.164 53.6417 150.224 53.194 143.06C52.9701 137.911 54.0895 132.762 56.7761 128.508C60.3582 122.911 66.1791 118.657 72.4477 116.194Z" fill="#FB7F7F"/>
<g opacity="0.3">
<path d="M82.9701 297.314H100.881C99.985 286.12 99.985 271.344 99.985 267.538C99.985 267.09 99.985 266.642 99.985 265.971C99.5373 257.687 111.403 217.836 111.403 217.836L151.254 173.06C151.701 172.389 152.373 171.717 152.821 171.045L167.373 146.418C165.806 145.971 164.463 145.075 163.343 144.18C162.448 145.075 161.552 146.195 160.657 147.314C157.746 151.344 155.507 155.598 153.94 160.299C153.269 162.314 152.597 164.553 151.03 165.896C149.463 167.463 146.776 167.911 145.433 166.344C145.657 167.911 146.104 169.254 146.328 170.821C144.313 169.478 142.298 167.911 140.284 166.568C139.836 169.03 142.522 170.821 143.194 173.284C143.866 175.971 142.075 178.881 139.612 180.448C137.373 182.016 134.463 182.911 132.448 184.926C130.657 186.493 129.537 188.284 128.194 190.075C124.836 195.001 120.806 199.254 116.776 203.732C115.881 204.627 114.985 205.523 113.866 205.971C112.746 206.195 111.179 205.523 110.955 204.404C110.06 206.418 109.612 208.881 109.836 211.344C107.821 212.239 105.582 210.672 104.239 209.105C102.672 207.538 101.552 205.747 99.5372 205.075C99.7611 208.433 101.104 211.568 103.567 214.03C104.239 214.702 104.91 215.374 105.134 216.269C105.134 217.165 104.686 218.06 104.015 218.732C100.433 222.762 95.0596 226.12 94.1641 231.493C93.4925 235.747 95.7313 240.001 96.8507 244.478C98.6417 252.538 94.6119 261.493 87.4477 265.523C89.0149 267.762 91.9253 269.105 94.6119 268.433C94.388 270.224 92.8208 271.568 91.0298 271.792C89.2387 272.239 87.4477 271.792 85.8805 271.344C84.5372 272.463 85.6566 274.478 86.9999 275.598C88.3432 276.493 90.1343 276.941 91.2537 278.284C93.4925 280.971 91.0298 284.777 89.0149 287.687C86.1044 290.374 84.3134 293.732 82.9701 297.314Z" fill="#00256D"/>
</g>
<g opacity="0.3">
<path d="M24.7611 297.314H33.2686C35.5074 290.821 38.6417 284.776 43.1193 279.403C44.0149 278.508 44.9104 277.388 44.9104 276.269C44.9104 274.926 43.791 273.806 42.8955 272.687C41.9999 271.567 41.3283 270 42.2238 268.881C43.1193 267.985 44.6865 267.985 45.582 267.09C46.7014 265.747 45.8059 263.732 44.6865 262.388C43.791 261.045 42.8955 258.806 44.0149 257.687C44.4626 257.239 45.1343 257.015 45.8059 256.567C47.1492 255.448 46.4776 253.209 45.582 251.642C43.5671 248.06 41.5522 244.254 39.5373 240.672C40.6567 244.702 41.9999 248.955 42.4477 250.523C42.6716 250.97 42.6716 251.418 42.6716 251.866C42.4477 258.582 35.0597 277.612 35.0597 277.612C31.2537 285 27.4477 292.612 24.7611 297.314Z" fill="#00256D"/>
</g>
<g opacity="0.4">
<path d="M186.627 104.777C183.269 110.15 177.448 113.508 174.089 119.105C171.403 123.583 170.955 128.732 169.388 133.433C168.045 137.687 165.806 141.493 162.895 144.851C164.91 146.194 166.925 146.195 166.925 146.195L177.672 122.463L185.955 111.941C186.179 111.717 186.403 111.269 186.627 110.821L191.552 97.3885L190.209 90.4482C189.985 95.3736 189.313 100.299 186.627 104.777Z" fill="#E3F0FF"/>
</g>
<g opacity="0.4">
<path d="M241.03 145.522C235.881 145.522 232.97 150.224 232.075 154.478L225.582 197.239C225.582 202.164 229.612 206.194 234.537 206.194H247.97L256.254 145.522H241.03Z" fill="#B4D9FF"/>
</g>
<path d="M232.075 198.358C227.149 198.358 223.119 194.329 223.119 189.403L229.612 146.418C229.612 141.493 233.642 137.463 238.567 137.463H324.761C329.687 137.463 333.716 141.493 333.716 146.418L327.224 189.179C326.328 193.433 323.418 198.135 318.269 198.135H232.075V198.358Z" fill="white"/>
<path d="M270.806 161.194C270.582 161.194 270.134 160.97 270.134 160.523L270.582 157.612C270.582 157.164 270.806 156.94 271.254 156.94H320.507C320.731 156.94 321.179 157.164 321.179 157.612L320.731 160.523C320.731 160.746 320.507 161.194 320.06 161.194H270.806Z" fill="#004AD7"/>
<path d="M269.686 169.254C269.463 169.254 269.015 169.03 269.015 168.582L269.463 165.672C269.463 165.224 269.686 165 270.134 165H319.388C319.612 165 320.06 165.224 320.06 165.672L319.612 168.582C319.612 168.806 319.388 169.254 318.94 169.254H269.686Z" fill="#004AD7"/>
<path d="M268.791 177.09C268.567 177.09 268.119 176.866 268.119 176.418L268.567 173.508C268.567 173.06 268.791 172.836 269.239 172.836H296.776C297 172.836 297.448 173.06 297.448 173.508L297 176.418C297 176.642 296.776 177.09 296.328 177.09H268.791Z" fill="#004AD7"/>
<path d="M263.642 165.671C262.075 173.283 254.91 179.328 247.522 179.328C240.134 179.328 235.433 173.283 237 165.671C238.567 158.059 245.731 152.015 253.119 152.015C260.507 152.015 265.209 158.283 263.642 165.671Z" fill="#F46161"/>
<path d="M255.134 166.567L245.507 171.716C244.836 172.164 244.164 171.716 244.388 171.045L246.403 160.97C246.627 160.298 247.298 159.851 247.97 160.298L255.582 165.448C255.806 165.224 255.806 166.119 255.134 166.567Z" fill="white"/>
<path d="M416.776 297.762H0.805924C0.582043 297.762 0.35817 297.538 0.35817 297.314C0.35817 297.09 0.582043 296.866 0.805924 296.866H416.776C417 296.866 417.224 297.09 417.224 297.314C417.224 297.538 417 297.762 416.776 297.762Z" fill="#0040BC"/>
<path d="M399.089 124.477H279.761C277.298 124.477 275.507 122.239 275.955 119.776L282.224 85.5223C282.448 83.7312 284.239 82.1641 286.03 82.1641H405.358C407.821 82.1641 409.612 84.4029 409.164 86.8656L402.895 121.119C402.672 123.134 400.88 124.477 399.089 124.477Z" fill="#004AD7"/>
<path d="M394.512 97.3529H336.005C335.806 97.3529 335.607 97.1682 335.607 96.9836L336.204 94.2139C336.204 94.0293 336.403 94.0293 336.602 94.0293H395.109C395.308 94.0293 395.507 94.2139 395.507 94.3986L394.91 97.1682C394.91 97.1682 394.711 97.3529 394.512 97.3529Z" fill="#E3F0FF"/>
<path d="M393.119 104.739H334.612C334.413 104.739 334.214 104.554 334.214 104.369L334.811 101.6C334.811 101.415 335.01 101.415 335.209 101.415H393.517C393.716 101.415 393.915 101.6 393.915 101.784L393.318 104.554C393.318 104.554 393.318 104.739 393.119 104.739Z" fill="#E3F0FF"/>
<path d="M371.826 111.94H333.219C333.02 111.94 332.821 111.755 332.821 111.57L333.418 108.801C333.418 108.616 333.617 108.616 333.816 108.616H372.423C372.622 108.616 372.821 108.801 372.821 108.985L372.224 111.755C372.224 111.94 372.025 111.94 371.826 111.94Z" fill="#E3F0FF"/>
<path d="M322.746 97.4941L314.658 101.736L315.524 97.4941H313.502C314.369 96.3629 315.235 95.2317 315.235 93.8178C315.813 90.1414 313.502 87.3135 309.747 87.3135C305.991 87.3135 302.525 90.1414 301.947 93.8178C301.658 95.2317 301.947 96.3629 302.525 97.4941H300.503C300.791 96.9285 301.08 96.3629 301.08 96.0801C301.369 93.8178 299.925 91.8382 297.325 91.8382C295.014 91.8382 292.703 93.8178 292.125 96.0801C292.125 96.6457 292.125 97.2113 292.125 97.4941H289.814L286.925 114.179H312.058L312.924 109.937L319.569 114.179L322.746 97.4941Z" fill="#5D9EF6"/>
<path d="M285.358 77.2393C282.224 77.2393 279.313 79.7019 278.642 83.0602C277.97 86.1945 279.985 88.881 283.119 88.881C286.254 88.881 289.164 86.4184 289.836 83.0602C290.507 79.7019 288.492 77.2393 285.358 77.2393Z" fill="#F46161"/>
<path d="M346.478 75.8954H315.806C314.015 75.8954 312.448 74.3283 312.448 72.5372L317.597 39.6268C317.597 37.8357 319.164 36.2686 320.955 36.2686H351.627C353.418 36.2686 354.985 37.8357 354.985 39.6268L349.836 72.7611C349.836 74.5521 348.269 75.8954 346.478 75.8954Z" fill="#F46161"/>
<path d="M343.567 66.4926H332.597V66.0448C333.716 66.0448 334.388 65.8209 334.836 65.597C335.731 65.1493 336.179 64.4776 336.179 63.806C336.179 63.3582 336.179 62.6866 336.179 62.0149L335.955 61.3433L335.283 57.3135H327.895L326.552 59.5523L325.88 60.6717C325.209 61.7911 324.537 62.9105 324.537 63.5821C324.537 64.0299 324.537 64.4776 324.537 64.7015C324.537 65.1493 324.761 65.3732 324.985 65.597C325.433 65.8209 325.881 66.0448 326.552 66.0448V66.4926H318.94V66.0448C319.612 66.0448 320.06 65.8209 320.507 65.597C320.955 65.3732 321.627 64.9254 322.075 64.2537C322.522 63.806 322.97 63.1344 323.418 62.4627C323.866 61.7911 324.537 60.6717 325.433 59.1045L335.06 43.209H335.955L339.313 60.8955C339.537 62.2388 339.761 63.1344 339.985 63.806C340.209 64.4776 340.433 64.7015 340.657 65.1493C340.88 65.3732 341.104 65.597 341.552 65.597C341.776 65.597 342.448 65.8209 343.119 65.8209L343.567 66.4926ZM335.06 56.6418L333.492 47.9105L328.343 56.6418H335.06Z" fill="white"/>
</g>
<defs>
<clipPath id="clip0_109_5011">
<rect width="443.284" height="300" fill="white" transform="translate(0.35817)"/>
</clipPath>
</defs>
</svg>
