<svg width="444" height="300" viewBox="0 0 444 300" fill="none" xmlns="http://www.w3.org/2000/svg">
<g clip-path="url(#clip0_109_5336)">
<path d="M434.262 139.504C434.262 111.412 424.501 83.3195 406.884 61.6553C396.647 49.0377 382.601 38.0865 366.412 38.3246C353.08 38.5626 341.177 46.895 328.559 50.9422C312.609 55.9416 294.754 54.5132 279.993 47.1331C267.852 40.9433 257.853 30.9445 245.711 24.5166C227.142 14.7558 205.002 14.0416 183.814 15.47C168.101 16.4223 152.151 18.5649 137.866 25.2308C123.582 31.8967 110.965 43.8002 106.918 59.0365C103.585 71.6542 106.203 84.986 104.061 97.8417C101.68 112.364 93.3476 125.458 81.2061 133.79C65.7317 144.265 45.4959 146.17 30.2595 157.359C10.9759 171.405 4.54809 198.783 10.9759 221.875C16.4515 240.921 29.0691 255.443 44.0675 267.823C49.7811 272.346 54.3044 279.25 61.2084 282.107C70.4931 286.154 80.9681 284.964 90.0147 289.963C94.2999 292.344 97.3948 296.867 101.918 298.295C106.441 299.724 112.155 297.581 116.678 297.581C136.914 297.581 157.388 297.819 177.624 297.819C225.952 298.057 274.518 298.295 322.846 298.295C332.368 298.295 344.986 300.2 353.795 297.819C351.176 298.533 356.413 277.107 357.127 274.965C360.46 266.394 366.174 258.776 372.126 251.872C381.887 240.921 393.552 231.874 403.075 220.923C422.12 199.259 433.309 170.691 434.024 141.884C434.262 141.17 434.262 140.456 434.262 139.504Z" fill="#E3F0FF"/>
<path d="M386.674 198.385L355.588 198.771C353.271 198.771 351.34 196.647 351.726 194.33L357.132 162.279C357.326 160.734 358.677 159.769 360.222 159.769L391.307 159.383C393.624 159.383 395.555 161.507 395.169 163.824L389.763 195.875C389.377 197.226 388.218 198.385 386.674 198.385Z" fill="#6663FB"/>
<g opacity="0.3">
<path d="M355.009 175.409C356.553 172.706 358.677 170.196 361.187 168.265C364.856 165.369 369.296 163.631 373.737 163.631C382.426 163.631 387.446 170.775 384.936 179.463C383.584 183.904 380.688 187.766 377.02 190.662C373.351 193.558 368.91 195.296 364.469 195.296C358.484 195.296 354.236 192.013 353.078 186.993L355.009 175.409ZM365.821 190.662C368.91 190.662 372.193 189.31 374.896 187.38C377.599 185.256 379.723 182.553 380.495 179.463C382.426 173.285 378.757 168.072 372.579 168.072C369.49 168.072 366.207 169.423 363.504 171.354C360.801 173.478 358.677 176.181 357.905 179.27C355.974 185.642 359.449 190.662 365.821 190.662Z" fill="#0037A2"/>
</g>
<path d="M368.331 164.596L369.683 160.155C365.242 160.155 360.801 161.893 357.132 164.789L359.449 168.072C361.959 165.948 365.242 164.596 368.331 164.596Z" fill="#0037A2"/>
<path d="M369.683 160.155L368.331 164.596C374.51 164.596 378.178 169.616 376.247 175.988C375.282 179.077 373.158 181.973 370.648 183.904L372.965 187.186C376.633 184.29 379.53 180.429 380.881 175.988C383.391 167.299 378.371 160.155 369.683 160.155Z" fill="white"/>
<path d="M353.657 175.988C354.622 172.898 356.746 170.002 359.256 168.071L356.939 164.789C353.271 167.685 350.375 171.547 349.023 175.988H353.657V175.988Z" fill="#0037A2"/>
<path d="M370.648 184.097C367.945 186.22 364.856 187.379 361.573 187.379C355.395 187.379 351.726 182.359 353.657 175.987H349.216C346.706 184.676 351.726 191.82 360.415 191.82C364.856 191.82 369.296 190.082 372.965 187.186L370.648 184.097Z" fill="#869AFD"/>
<path d="M235.243 111.324H140.08C138.837 111.324 137.95 110.259 138.127 109.016L144.874 61.2573C145.051 60.0145 146.117 58.9492 147.359 58.9492H242.522C243.765 58.9492 244.653 60.0145 244.475 61.2573L237.729 109.016C237.729 110.437 236.486 111.324 235.243 111.324Z" fill="#6663FB"/>
<path d="M237.018 71.0221H192.455L192.988 68.0039H237.373L237.018 71.0221Z" fill="white"/>
<path d="M235.776 79.3666H191.39L191.745 76.3484H236.308L235.776 79.3666Z" fill="white"/>
<path d="M234.71 87.5336H190.147L190.502 84.6929H235.065L234.71 87.5336Z" fill="white"/>
<path d="M214.471 95.8781H189.082L189.437 92.8599H214.826L214.471 95.8781Z" fill="white"/>
<path d="M155.171 66.2284H149.312L149.668 63.3877H155.526L155.171 66.2284Z" fill="white"/>
<path d="M153.929 74.3953H148.247L148.602 71.5546H154.461L153.929 74.3953Z" fill="white"/>
<path d="M152.863 82.5623H147.004L147.359 79.5441H153.218L152.863 82.5623Z" fill="white"/>
<path d="M151.621 90.7292H145.939L146.294 87.711H152.153L151.621 90.7292Z" fill="white"/>
<path d="M150.555 98.7187H144.696L145.229 95.878H150.91L150.555 98.7187Z" fill="white"/>
<path d="M149.312 106.886H143.631L143.986 103.867H149.845L149.312 106.886Z" fill="white"/>
<path d="M174.346 68.7139L172.393 82.3846L180.56 91.9719C183.401 89.4863 185.354 86.113 185.886 82.3846C187.129 74.7503 181.803 68.7139 174.346 68.7139Z" fill="white"/>
<path d="M163.516 72.6196C160.675 75.1052 158.722 78.4785 158.19 82.2069H171.86L173.813 68.5361C169.907 68.7137 166.357 70.3116 163.516 72.6196Z" fill="#869AFD"/>
<path d="M171.683 83.0947H158.012C156.947 90.5515 162.273 96.7655 169.73 96.7655C173.458 96.7655 177.187 95.1676 179.85 92.8596L171.683 83.0947Z" fill="#4A47C4"/>
<path d="M405.39 127.724H338.443C336.74 127.724 335.547 126.361 335.718 124.657L340.998 88.203C341.169 86.4995 342.872 85.1367 344.576 85.1367H411.522C413.226 85.1367 414.418 86.4995 414.248 88.203L408.967 124.657C408.626 126.361 407.093 127.724 405.39 127.724Z" fill="#5D9EF6"/>
<path d="M376.19 95.9615H346.89L347.231 93.4062H376.531L376.19 95.9615Z" fill="#E3F0FF"/>
<path d="M360.688 101.583H346.039L346.379 98.8574H361.029L360.688 101.583Z" fill="#E3F0FF"/>
<path d="M337.769 122.35C340.667 119.043 344.11 114.634 347.371 111.51C348.458 110.408 349.907 109.306 351.356 109.122C353.53 108.755 354.98 110.408 356.429 111.878C358.06 113.531 359.69 115.369 362.226 115.736C365.125 116.287 368.386 114.817 371.285 113.348C373.821 112.062 376.357 110.592 378.35 108.571C380.162 106.55 381.611 103.978 383.785 102.324C384.148 102.141 384.691 101.773 385.053 101.773C385.778 101.589 386.503 102.141 387.046 102.692C388.314 104.162 388.496 106.366 389.039 108.203C389.583 110.041 390.488 112.062 392.481 112.613C395.018 113.164 397.735 110.959 399.366 108.571C400.996 106.182 402.445 103.427 404.982 102.141C405.706 101.773 406.793 101.406 407.337 101.957C408.062 102.508 408.062 103.427 408.062 104.345C407.88 108.203 407.699 111.878 407.518 115.736C407.518 117.39 406.975 121.064 405.888 122.35H337.769Z" fill="#1964F1"/>
<path d="M57.8754 214.408C57.8754 214.408 21.2129 205.6 20.0225 173.937C20.0225 173.937 26.9265 182.745 36.9254 184.888C36.6873 184.888 58.8277 195.363 57.8754 214.408Z" fill="#1964F1"/>
<path d="M99.0613 202.98C99.0613 202.98 103.585 224.169 74.0641 227.978C74.0641 227.978 69.5408 221.312 81.9203 213.694C83.8249 212.503 85.9675 211.789 88.3482 211.313C91.4431 210.837 95.9664 209.17 99.0613 202.98Z" fill="#1964F1"/>
<path d="M82.1584 214.646C84.063 213.456 86.2056 212.741 88.5863 212.265C91.4431 211.789 96.2045 210.123 99.0613 203.933C99.0613 203.933 99.2994 204.885 99.2994 206.551C99.2994 204.409 99.0613 202.98 99.0613 202.98C96.2045 209.17 91.4431 210.837 88.5863 211.313C86.2056 211.789 84.063 212.265 82.1584 213.694C74.5402 218.455 73.3499 222.978 73.588 225.597C73.588 222.74 75.2544 218.931 82.1584 214.646Z" fill="#5D9EF6"/>
<path d="M75.7305 163.699C75.7305 163.699 44.0674 195.362 66.4459 222.502C66.4459 222.502 73.3499 218.931 77.397 207.504C80.2538 199.886 80.2538 191.553 78.1112 183.697C76.6828 179.174 75.4925 172.508 75.7305 163.699Z" fill="#1964F1"/>
<path d="M78.1112 183.697C76.9209 179.174 75.7305 172.508 75.7305 163.699C75.7305 163.699 75.7305 163.461 74.5402 164.89C74.7783 172.27 75.7305 177.746 76.6828 181.793C78.8254 189.649 79.3016 199.886 76.6828 207.504C73.5879 216.075 68.5885 220.836 66.4459 222.264C66.6839 222.74 66.2078 221.788 66.4459 222.264C66.4459 222.264 73.3499 218.693 77.397 207.266C80.0158 199.886 80.2538 191.553 78.1112 183.697Z" fill="#5D9EF6"/>
<path d="M42.401 210.837C42.401 210.837 30.0214 204.885 20.7368 221.55C20.7368 221.55 37.4016 214.17 38.1158 223.693C38.1158 223.693 42.1629 235.596 52.3999 237.501C52.3999 237.501 58.3516 215.36 42.401 210.837Z" fill="#1964F1"/>
<path d="M42.1629 211.789C55.9709 215.598 53.3521 232.977 52.3999 237.262C52.3999 237.262 58.3516 215.122 42.401 210.599C42.401 210.599 30.0214 204.647 20.7368 221.312C20.7368 221.312 20.9748 221.312 21.2129 221.074C30.4976 206.075 42.1629 211.789 42.1629 211.789Z" fill="#5D9EF6"/>
<path d="M56.2089 260.831C55.9709 260.831 55.9709 260.831 56.2089 260.831C55.4947 252.975 58.5896 245.595 61.4465 238.453C63.5891 233.215 65.7317 227.978 66.684 222.502C67.1601 219.407 67.1601 216.313 67.3982 213.218V212.027C67.8743 199.648 68.8266 187.268 70.7311 175.127C70.7311 174.889 70.9692 174.889 70.9692 174.889C71.2073 174.889 71.2073 175.127 71.2073 175.127C69.3027 187.268 68.1124 199.648 67.8743 211.789V212.98C67.8743 216.075 67.6362 219.169 67.1601 222.264C66.2078 227.74 64.0652 233.215 61.9226 238.453C59.0658 245.595 55.9709 252.737 56.447 260.355C56.447 260.831 56.2089 260.831 56.2089 260.831Z" fill="#0037A2"/>
<path d="M63.1129 256.07C62.8749 256.07 62.8749 255.832 63.1129 256.07C61.4465 245.357 63.8271 236.072 69.7788 230.359C72.6357 227.502 76.2067 225.597 79.5397 223.693C83.8249 221.312 88.3482 218.931 90.9669 214.884C90.9669 214.884 91.205 214.646 91.205 214.884C91.205 214.884 91.4431 215.122 91.205 215.122C88.3482 219.169 83.8249 221.788 79.5397 224.169C76.2067 226.073 72.6357 227.978 69.7788 230.597C64.0652 236.31 61.6845 245.357 63.1129 255.832C63.351 255.832 63.1129 256.07 63.1129 256.07Z" fill="#0037A2"/>
<path d="M58.5896 248.928C55.9709 244.167 56.2089 238.453 56.6851 234.168C56.6851 232.978 56.9231 232.026 57.1612 230.835C57.6373 227.026 58.1135 223.217 57.6373 219.408C56.9231 213.456 54.0663 207.743 49.543 203.934C46.6862 201.315 43.1152 199.648 39.5441 197.744C38.3538 197.03 36.9254 196.315 35.735 195.601C29.5453 192.268 25.9742 188.697 24.3077 184.412C24.3077 184.174 24.3077 184.174 24.5458 184.174C24.7839 184.174 24.7839 184.174 24.7839 184.412C26.4504 188.459 30.0214 192.03 35.9731 195.363C37.1634 196.077 38.5918 196.791 39.7822 197.506C43.1151 199.172 46.6862 201.077 49.7811 203.695C54.3044 207.743 57.3993 213.456 58.1135 219.408C58.5896 223.217 58.1135 227.264 57.6373 230.835C57.3993 232.026 57.3993 232.978 57.1612 234.168C56.6851 238.453 56.447 243.929 58.8277 248.452C58.8277 248.69 58.8277 248.928 58.5896 248.928C58.5896 248.928 58.8277 248.928 58.5896 248.928Z" fill="#0037A2"/>
<path d="M62.1606 258.927C62.1606 258.927 61.9226 258.689 62.1606 258.927C61.2084 253.451 58.3516 248.69 55.9709 244.643L41.6868 220.598C40.9726 219.645 40.4964 218.455 39.3061 217.741C37.8777 216.789 36.2112 216.551 34.7828 216.312C32.164 216.074 29.5453 216.312 27.1646 217.027C26.9265 217.027 26.9265 217.027 26.9265 216.789C26.9265 216.551 26.9265 216.551 27.1646 216.551C29.7833 215.836 32.4021 215.598 35.0208 215.836C36.4492 215.836 38.3538 216.074 39.7822 217.265C40.9725 217.979 41.6868 219.169 42.1629 220.36L56.447 244.405C59.0658 248.69 61.9226 253.451 62.3987 258.689C62.3987 258.689 62.3987 258.689 62.1606 258.927Z" fill="#0037A2"/>
<path d="M75.4924 297.732H50.9714C48.1146 297.732 45.7339 295.59 45.2577 292.733L38.8299 247.5H86.2055L81.2061 292.733C80.968 295.59 78.5873 297.732 75.4924 297.732Z" fill="white"/>
<g opacity="0.57">
<path d="M82.3965 283.686L85.9675 252.022H39.5442L40.0203 255.355L82.3965 283.686Z" fill="#B4D9FF"/>
</g>
<path d="M75.4925 298.208H50.9714C47.8766 298.208 45.2578 295.828 44.7817 292.971L38.3538 247.262H86.9198L81.9204 292.733C81.4442 295.828 78.8255 298.208 75.4925 298.208ZM39.3061 248.214L45.7339 292.733C46.2101 295.352 48.3527 297.256 50.9714 297.256H75.4925C78.1113 297.256 80.492 295.352 80.73 292.495L85.7295 247.976H39.3061V248.214Z" fill="#0037A2"/>
<path d="M89.5385 245.595H35.735V252.975H89.5385V245.595Z" fill="white"/>
<path d="M90.0147 253.452H35.2589V245.119H90.0147V253.452ZM36.2112 252.499H89.0624V246.071H36.2112V252.499Z" fill="#0037A2"/>
<path d="M362.603 90.375C362.127 90.375 361.413 90.8511 361.413 91.3273C361.175 91.8034 361.651 92.2795 362.127 92.2795C362.603 92.2795 363.317 91.8034 363.317 91.3273C363.555 90.8511 363.317 90.375 362.603 90.375Z" fill="#0037A2"/>
<path d="M335.701 39.1895C334.987 39.1895 334.035 39.9037 334.035 40.6179C333.797 41.3321 334.273 42.0463 334.987 42.0463C335.701 42.0463 336.654 41.3321 336.654 40.6179C337.13 39.9037 336.654 39.1895 335.701 39.1895Z" fill="#0037A2"/>
<path d="M52.1618 72.2812C51.4476 72.2812 50.4953 72.9955 50.4953 73.7097C50.2572 74.4239 50.7333 75.1381 51.4476 75.1381C52.1618 75.1381 53.114 74.4239 53.114 73.7097C53.3521 72.7574 52.876 72.2812 52.1618 72.2812Z" fill="#0037A2"/>
<path d="M151.736 63.7109C151.022 63.7109 150.07 64.4251 150.07 65.1393C149.832 65.8536 150.308 66.5678 151.022 66.5678C151.736 66.5678 152.689 65.8536 152.689 65.1393C152.927 64.1871 152.451 63.7109 151.736 63.7109Z" fill="#0037A2"/>
<path d="M149.356 13.7168C148.641 13.7168 147.689 14.431 147.689 15.1452C147.451 15.8594 147.927 16.5736 148.641 16.5736C149.356 16.5736 150.308 15.8594 150.308 15.1452C150.546 14.1929 150.07 13.7168 149.356 13.7168Z" fill="#0037A2"/>
<path d="M371.888 246.31C371.174 246.31 370.221 247.024 370.221 247.738C369.983 248.452 370.459 249.166 371.174 249.166C371.888 249.166 372.84 248.452 372.84 247.738C373.078 246.786 372.602 246.31 371.888 246.31Z" fill="#0037A2"/>
<path d="M393.076 67.2822C391.886 67.2822 390.933 68.2345 390.457 69.4248C390.219 70.6152 390.933 71.5675 392.124 71.5675C393.314 71.5675 394.266 70.6152 394.742 69.4248C394.742 68.2345 394.266 67.2822 393.076 67.2822Z" fill="#6663FB"/>
<path d="M20.2606 83.2324C19.3083 83.2324 18.356 83.9466 18.118 84.8989C17.8799 85.8512 18.5941 86.5654 19.5464 86.5654C20.4987 86.5654 21.4509 85.8512 21.689 84.8989C21.9271 83.9466 21.2129 83.2324 20.2606 83.2324Z" fill="#6663FB"/>
<path d="M54.5886 25.6201C53.6363 25.6201 52.6841 26.3343 52.446 27.2866C52.2079 28.2389 52.9221 28.9531 53.8744 28.9531C54.8267 28.9531 55.7789 28.2389 56.017 27.2866C56.2551 26.3343 55.5409 25.6201 54.5886 25.6201Z" fill="#6663FB"/>
<path d="M204.572 13.7168C203.619 13.7168 202.667 14.431 202.429 15.3833C202.191 16.3355 202.905 17.0498 203.858 17.0498C204.81 17.0498 205.762 16.3355 206 15.3833C206.238 14.431 205.524 13.7168 204.572 13.7168Z" fill="#6663FB"/>
<path d="M183.146 8.95508C182.193 8.95508 181.241 9.66928 181.003 10.6216C180.765 11.5738 181.479 12.288 182.431 12.288C183.384 12.288 184.336 11.5738 184.574 10.6216C184.812 9.66928 184.098 8.95508 183.146 8.95508Z" fill="#6663FB"/>
<path d="M347.843 266.307C346.891 266.307 346.176 267.021 345.938 267.973C345.7 268.925 346.176 269.64 347.129 269.64C348.081 269.64 348.795 268.925 349.033 267.973C349.271 267.021 348.557 266.307 347.843 266.307Z" fill="#1964F1"/>
<path d="M431.167 101.802C430.215 101.802 429.5 102.516 429.262 103.468C429.024 104.421 429.5 105.135 430.453 105.135C431.405 105.135 432.119 104.421 432.357 103.468C432.595 102.516 431.881 101.802 431.167 101.802Z" fill="#1964F1"/>
<path d="M125.963 41.8086C125.487 41.8086 125.011 42.2847 125.011 42.5228C125.011 42.9989 125.249 43.237 125.725 43.237C126.201 43.237 126.677 42.7609 126.677 42.5228C126.677 42.2847 126.201 41.8086 125.963 41.8086Z" fill="#6663FB"/>
<path d="M27.6407 136.798C26.4504 136.798 25.022 137.75 24.7839 139.179C24.5458 140.369 25.26 141.559 26.4504 141.559C27.6407 141.559 29.0691 140.607 29.3072 139.179C29.5453 137.75 28.8311 136.798 27.6407 136.798Z" fill="#1964F1"/>
<path d="M190.241 26.8105C189.527 26.8105 188.575 27.5248 188.575 28.239C188.337 28.9532 188.813 29.6674 189.527 29.6674C190.241 29.6674 191.194 28.9532 191.194 28.239C191.432 27.5248 190.956 26.8105 190.241 26.8105Z" fill="#0037A2"/>
<path d="M254.044 40.3799C253.33 40.3799 252.377 41.0941 252.377 41.8083C252.139 42.5225 252.615 43.2367 253.33 43.2367C254.044 43.2367 254.996 42.5225 254.996 41.8083C255.234 41.0941 254.758 40.3799 254.044 40.3799Z" fill="#0037A2"/>
<path d="M235.236 14.9072C234.284 14.9072 233.57 15.6214 233.332 16.5737C233.094 17.526 233.57 18.2402 234.522 18.2402C235.475 18.2402 236.189 17.526 236.427 16.5737C236.665 15.6214 236.189 14.9072 235.236 14.9072Z" fill="#1964F1"/>
<path d="M123.106 18.002C121.916 18.002 120.487 18.9542 120.249 20.3826C120.011 21.573 120.725 22.7633 121.916 22.7633C123.106 22.7633 124.535 21.8111 124.773 20.3826C125.011 19.1923 124.297 18.002 123.106 18.002Z" fill="#1964F1"/>
<path d="M330.94 248.452C330.464 248.452 329.988 248.928 329.988 249.166C329.988 249.642 330.226 249.881 330.702 249.881C331.178 249.881 331.654 249.404 331.654 249.166C331.654 248.928 331.416 248.452 330.94 248.452Z" fill="#6663FB"/>
<path d="M329.512 134.178L324.036 128.465C324.036 128.465 323.56 129.655 322.846 131.322C322.846 131.322 322.846 131.322 322.608 131.322H125.011C120.249 131.322 116.202 134.655 115.488 139.416L90.7289 246.071C90.0147 256.784 96.6806 261.307 102.632 261.307H304.038C308.8 261.307 312.847 257.974 313.561 253.213L332.368 142.987C333.083 139.654 331.654 136.321 329.512 134.178Z" fill="white"/>
<path d="M304.038 261.783H102.632C99.2994 261.783 95.9664 260.355 93.8238 257.974C91.2051 255.117 90.0147 251.07 90.2528 245.833L115.012 139.416C115.964 134.417 120.011 130.846 125.011 130.846H322.37C322.846 129.417 323.322 128.227 323.322 128.227L323.56 127.513L329.512 133.702C331.892 136.083 333.083 139.416 332.606 142.749L313.799 252.975C313.323 258.212 309.038 261.783 304.038 261.783ZM91.205 246.071C90.967 250.832 91.9192 254.641 94.538 257.26C96.6806 259.403 99.5374 260.831 102.632 260.831H304.038C308.562 260.831 312.371 257.498 313.323 253.213L332.13 142.987C332.606 139.892 331.654 136.797 329.274 134.655L324.274 129.655C324.036 130.131 323.798 131.084 323.322 132.036V132.274H322.846H125.249C120.726 132.274 116.916 135.607 115.964 139.892L91.205 246.071Z" fill="#0037A2"/>
<path d="M298.087 255.117H100.49C94.538 255.117 89.7766 249.642 90.9669 243.69L109.774 133.464C110.489 128.703 114.536 125.37 119.297 125.37H316.894C322.846 125.37 327.607 130.846 326.417 136.797L307.609 247.023C306.895 251.784 302.848 255.117 298.087 255.117Z" fill="#004AD7"/>
<path d="M442.832 298.208H0.50091C0.262841 298.208 0.0247803 297.97 0.0247803 297.732C0.0247803 297.494 0.262841 297.256 0.50091 297.256H442.832C443.07 297.256 443.308 297.494 443.308 297.732C443.308 297.97 443.07 298.208 442.832 298.208Z" fill="#0037A2"/>
<path d="M105.727 254.88L116.678 177.746C117.63 177.746 118.345 177.032 118.583 176.079C118.821 175.127 118.107 174.175 117.154 174.175C116.202 174.175 115.25 174.889 115.012 176.079C114.774 177.032 115.488 177.746 116.44 177.746L105.489 254.88H105.727Z" fill="#5D9EF6"/>
<path d="M142.628 254.88L152.388 185.84C153.341 185.84 154.055 185.126 154.293 184.174C154.531 183.221 153.817 182.269 152.865 182.269C151.912 182.269 150.96 182.983 150.722 184.174C150.484 185.126 151.198 185.84 152.15 185.84L142.39 254.88H142.628Z" fill="#5D9EF6"/>
<path d="M304.276 152.034C303.324 152.034 302.372 152.749 302.133 153.939C301.895 154.891 302.61 155.606 303.562 155.606L289.278 255.118H289.754L304.038 155.606C304.99 155.606 305.705 154.891 305.943 153.939C305.943 152.749 305.228 152.034 304.276 152.034Z" fill="#5D9EF6"/>
<path d="M253.091 254.88L266.185 163.938C267.137 163.938 267.852 163.224 268.09 162.271C268.328 161.319 267.614 160.367 266.661 160.367C265.709 160.367 264.757 161.081 264.519 162.271C264.281 163.224 264.995 163.938 265.947 163.938L252.853 254.88H253.091Z" fill="#5D9EF6"/>
<path d="M216.191 254.88L232.856 138.465C233.808 138.465 234.522 137.75 234.76 136.798C234.998 135.846 234.284 134.894 233.332 134.894C232.379 134.894 231.427 135.608 231.189 136.798C230.951 137.75 231.665 138.465 232.617 138.465L215.953 254.88H216.191Z" fill="#5D9EF6"/>
<path d="M179.29 254.88L194.05 151.32C195.003 151.32 195.717 150.606 195.955 149.654C196.193 148.702 195.479 147.749 194.527 147.749C193.574 147.749 192.622 148.463 192.384 149.654C192.146 150.606 192.86 151.32 193.812 151.32L179.052 254.88H179.29Z" fill="#5D9EF6"/>
<path d="M321.417 165.843L321.655 163.462C316.418 165.843 311.418 168.938 306.419 172.271C301.658 175.604 297.372 179.889 292.849 183.222C283.564 190.126 274.042 190.602 265.471 185.364C247.854 174.889 240.236 147.511 212.858 157.51C185.956 167.271 175.005 199.887 147.865 209.171C132.391 214.409 124.296 206.314 114.06 198.696C109.536 195.363 104.775 193.697 99.7754 193.697L99.5374 195.839C109.298 195.839 115.488 203.696 123.82 208.933C131.677 213.933 140.961 213.933 150.484 210.123C176.91 199.41 188.099 166.557 215.715 158.463C245.949 149.416 249.997 188.697 275.708 190.84C285.469 191.554 293.325 185.364 300.705 178.937C307.133 173.937 314.037 169.414 321.417 165.843Z" fill="#00256D"/>
<path d="M328.559 153.225C321.179 156.082 314.275 159.891 307.609 164.652C302.848 167.985 298.563 172.271 294.039 175.604C284.755 182.508 275.232 182.984 266.661 177.746C249.044 167.271 241.426 139.893 214.048 149.892C187.147 159.653 176.195 192.268 149.056 201.553C133.581 206.791 125.487 198.696 115.25 191.078C107.632 185.364 100.014 184.412 90.0146 188.697C88.8243 189.173 89.5385 190.84 90.7288 190.364C106.917 183.222 113.821 194.173 124.773 201.315C132.629 206.314 141.914 206.314 151.436 202.505C177.862 191.792 189.051 158.939 216.667 150.844C246.902 141.798 250.949 181.079 276.66 183.222C286.421 183.936 294.277 177.746 301.658 171.318C309.752 164.414 318.56 159.177 327.845 155.13C332.368 153.701 332.606 151.559 328.559 153.225Z" fill="#727DFB"/>
<path d="M308.64 143.835C310.97 144.252 313.234 142.492 313.697 139.904C314.161 137.315 312.648 134.879 310.319 134.462C307.989 134.044 305.725 135.804 305.262 138.393C304.798 140.981 306.311 143.418 308.64 143.835Z" fill="#82BBFF"/>
<path d="M92.6334 173.937H94.5379C98.8232 173.937 102.394 177.508 102.394 181.793V198.696L114.774 224.169L125.011 245.119C125.963 247.024 125.963 249.166 125.487 251.309L120.964 264.164C120.964 266.545 119.773 295.59 118.345 297.732H117.154L74.3021 297.97L91.6811 255.118C92.8715 251.547 92.8715 247.738 91.6811 244.167L83.5868 216.075C82.8726 213.218 83.1107 210.123 84.5391 207.504L89.5385 198.696L89.0624 191.792L92.6334 173.937Z" fill="white"/>
<path d="M83.5868 216.074L91.6812 243.69C91.9192 244.642 92.1573 245.594 92.1573 246.547C92.1573 247.023 92.1573 247.499 92.3954 247.975C92.6334 250.356 92.3954 252.498 91.6812 254.879L76.2067 297.731H85.2533C85.7295 294.16 86.6817 290.827 88.1102 287.495C91.6812 279.162 98.5852 272.258 99.5374 263.212C100.014 259.879 99.2994 256.308 98.8232 252.975C97.3948 243.452 95.9664 233.929 92.1573 224.882C90.2528 220.121 87.634 215.36 87.634 210.122C87.634 206.551 88.8244 202.98 89.3005 199.409L88.5863 200.6L84.5391 207.742C83.3488 209.884 82.8726 212.265 83.3488 214.646C83.3488 214.884 83.3488 215.598 83.5868 216.074Z" fill="#B4D9FF"/>
<path d="M73.588 297.97L91.205 254.403C92.1573 250.832 92.1573 247.261 91.205 243.69L83.1107 216.074C82.1584 213.217 82.6345 209.884 84.063 207.266L88.8243 198.695L88.3482 192.029L92.1573 173.46H94.538C99.0613 173.46 102.87 177.269 102.87 181.792V198.457L115.25 223.93L125.487 244.642C126.439 246.785 126.677 249.166 125.725 251.308L121.202 263.926C121.202 266.069 120.249 295.351 118.821 297.494L118.583 297.732H117.154L73.588 297.97ZM89.5385 192.029L90.0147 198.933L85.0152 207.742C83.5868 210.122 83.3487 213.217 84.063 215.836L92.1573 243.452C93.3476 247.261 93.1096 251.07 92.1573 254.641L75.0164 297.017L118.107 296.779C119.059 293.685 120.249 266.783 120.249 263.688L125.011 250.832C125.725 248.928 125.487 246.785 124.773 244.881L114.536 224.169L102.156 198.457V181.554C102.156 177.507 98.8232 174.174 94.776 174.174H93.1096L89.5385 192.029Z" fill="#0037A2"/>
<path d="M123.582 270.116C123.582 272.496 119.535 295.113 118.345 297.255H117.154L74.3021 297.493L85.7294 260.593L123.582 270.116Z" fill="#0040BC"/>
<path d="M73.588 297.97L85.2533 259.879L124.058 269.878V270.354C124.058 272.973 120.011 295.589 118.821 297.732L118.583 297.97H117.154H73.588ZM85.7294 261.069L74.7783 297.018L117.869 296.78C119.059 293.923 122.63 273.925 122.868 270.592L85.7294 261.069Z" fill="#0037A2"/>
<path d="M93.1095 223.454C92.8715 223.454 92.6334 223.216 92.6334 222.978V214.645L89.0624 198.695C89.0624 198.457 89.0624 198.219 89.5385 198.219C89.7766 198.219 90.0146 198.219 90.0146 198.695L93.5857 214.884V223.216C93.5857 223.454 93.3476 223.454 93.1095 223.454Z" fill="#0037A2"/>
<path d="M85.4913 260.593L74.064 297.493H85.0152C85.4913 293.922 86.4436 290.589 87.872 287.256C91.443 279.4 97.8709 272.496 99.2993 263.926L85.4913 260.593Z" fill="#00256D"/>
<path d="M200.955 204.648V229.407L195.717 219.408L194.051 210.124C193.336 205.839 189.527 202.982 185.242 202.982H184.052V222.503L195.717 244.168L210.715 261.07L215.239 265.118C216.905 266.546 218.095 268.451 218.572 270.593L224.047 297.971L268.566 297.733L253.33 257.737C253.092 256.785 252.854 255.833 252.854 254.881L252.615 220.837C252.615 217.028 250.711 213.695 247.616 211.552L245.235 209.886C244.521 209.41 243.807 209.171 243.093 208.933L229.047 205.6L223.809 195.125C222.619 192.745 220 191.316 217.381 191.316H211.668L202.621 161.558C202.145 159.653 200.478 158.463 198.574 158.463C195.955 158.463 193.813 160.844 194.289 163.462L200.955 204.648Z" fill="white"/>
<path d="M232.38 207.981C234.046 209.885 236.189 211.313 237.855 212.98C241.188 216.075 243.331 220.122 244.283 224.407C245.711 232.025 242.855 239.882 244.759 247.5C245.711 251.309 247.854 254.88 249.044 258.927C251.663 268.45 247.854 278.687 250.949 287.972C252.139 291.304 254.044 294.399 255.948 297.732H268.328L253.092 257.737C253.092 257.499 252.853 257.261 252.853 257.023C252.615 256.308 252.615 255.594 252.615 254.88L252.377 220.836C252.377 220.598 252.377 220.36 252.377 220.122C252.377 219.646 252.377 219.17 252.139 218.694C252.139 218.217 251.901 217.741 251.901 217.265C251.901 216.789 251.663 216.313 251.425 216.075C250.949 215.123 250.235 214.17 249.521 213.218C248.806 212.504 248.33 211.79 247.378 211.313L245.949 210.361L244.997 209.647C244.759 209.647 244.759 209.409 244.521 209.409C244.045 209.171 243.569 208.933 242.855 208.695L230.951 205.838C231.189 206.552 231.665 207.266 232.38 207.981Z" fill="#B4D9FF"/>
<path d="M224.285 298.209L217.857 270.593C217.381 268.688 216.429 266.784 214.763 265.355L210.239 261.308L195.003 244.405L183.338 222.741V202.505H185.004C189.527 202.267 193.574 205.6 194.289 209.885L195.955 219.17L200.24 227.502V204.648L193.098 163.462C192.86 162.033 193.336 160.605 194.051 159.653C195.003 158.701 196.193 157.986 197.622 157.986C199.764 157.986 201.431 159.415 202.145 161.319L211.192 190.84H216.667C219.524 190.84 222.143 192.506 223.571 194.887L228.809 205.124L242.617 208.457C243.569 208.695 244.283 208.933 244.997 209.409L247.378 211.076C250.473 213.218 252.377 217.027 252.377 220.836L252.615 254.88C252.615 255.832 252.854 256.785 253.092 257.499L270.233 298.447L224.285 298.209ZM210.953 260.832L215.477 264.879C217.143 266.307 218.334 268.45 218.81 270.593L225.238 297.494H269.042L252.615 257.975C252.139 257.023 252.139 256.071 252.139 254.88L251.901 220.836C251.901 217.265 250.235 213.932 247.14 211.79L244.759 210.123C244.045 209.647 243.569 209.409 242.855 209.171L228.809 205.838L223.333 195.125C222.143 192.982 219.762 191.554 217.381 191.554H211.192L201.907 161.319C201.431 159.653 200.002 158.701 198.336 158.701C197.146 158.701 196.193 159.177 195.479 160.129C194.765 161.081 194.527 162.033 194.765 163.224L201.907 204.41V231.311L195.717 219.408L194.051 210.123C193.336 206.076 189.765 203.219 185.718 203.457H185.004V222.503L196.431 243.929L210.953 260.832Z" fill="#0037A2"/>
<path d="M259.043 267.498L269.756 298.447L223.809 297.733L218.334 276.783L259.043 267.498Z" fill="#0040BC"/>
<path d="M223.333 298.208L217.619 276.544L259.281 266.783L270.471 298.208H223.333ZM218.81 277.258L224.047 297.256H269.042L258.567 267.974L218.81 277.258Z" fill="#0037A2"/>
<path d="M198.574 190.84L196.193 195.601C195.717 196.553 195.479 197.506 195.717 198.458L196.669 207.743C196.907 209.647 198.574 211.314 200.716 211.314H201.193V204.886L198.574 190.84Z" fill="white"/>
<path d="M201.431 211.551H200.478C198.098 211.551 196.193 209.885 195.955 207.504L195.003 198.219C194.765 197.029 195.003 196.077 195.717 195.125L198.812 189.173L201.431 204.409V211.551ZM198.336 192.268L196.431 195.839C195.955 196.553 195.955 197.505 195.955 198.458L196.907 207.742C197.145 209.409 198.574 210.837 200.24 210.837V204.885L198.336 192.268Z" fill="#0037A2"/>
<path d="M214.286 203.219C214.048 203.219 213.81 202.981 213.81 202.743L210.715 191.078C210.715 190.84 210.715 190.602 210.953 190.602C211.192 190.602 211.43 190.602 211.43 190.84L214.525 202.505C214.763 202.743 214.525 203.219 214.286 203.219Z" fill="#0037A2"/>
<path d="M259.043 267.498L249.997 269.641C249.759 275.83 249.045 282.258 250.949 287.972C252.139 291.543 254.52 294.876 256.187 298.209L269.756 298.447L259.043 267.498Z" fill="#00256D"/>
<path d="M281.418 81.7098H317.317C319.417 81.7098 321.136 80.3731 321.327 78.2727L326.101 50.5846C326.674 47.5293 324 44.665 320.945 44.665H285.046C282.945 44.665 281.227 46.0017 281.036 48.1022L276.262 75.7903C275.689 78.8455 278.363 81.7098 281.418 81.7098Z" fill="#0040BC"/>
<path d="M284.777 75.5543H314.776L315.191 73.4243H285.192L284.777 75.5543Z" fill="white"/>
<path d="M310.214 71.9599H314.223L315.329 64.7711H311.459L310.214 71.9599Z" fill="white"/>
<path d="M304.408 71.9599H308.279L310.629 58.6474H306.62L304.408 71.9599Z" fill="white"/>
<path d="M298.463 71.9599H302.473L306.205 50.3936H302.196L298.463 71.9599Z" fill="white"/>
<path d="M292.657 71.9599H296.666L299.431 55.7186H295.422L292.657 71.9599Z" fill="white"/>
<path d="M286.851 71.9599H290.722L294.454 50.3936H290.583L286.851 71.9599Z" fill="white"/>
<path d="M72.0384 85.4404L109.392 85.1367C112.125 85.1367 114.555 87.8699 113.948 90.6031L107.57 129.172C107.266 130.994 105.748 132.209 103.926 132.209L66.572 132.512C63.8388 132.512 61.4093 129.779 62.0167 127.046L68.6978 88.4773C68.6978 86.6552 70.2163 85.4404 72.0384 85.4404Z" fill="#6663FB"/>
<path d="M91.0933 115.24L80.3558 117.07C79.3796 117.299 78.6475 116.613 78.8915 115.697C79.1356 115.011 79.6237 114.553 80.3558 114.325L91.0933 112.494C92.0694 112.265 92.8015 112.952 92.5575 113.867C92.5575 114.553 91.8254 115.24 91.0933 115.24Z" fill="white"/>
<path d="M90.3611 119.587L79.6237 121.418C78.6475 121.646 77.9154 120.96 78.1594 120.045C78.4035 119.358 78.8916 118.901 79.6237 118.672L90.3611 116.841C91.3373 116.613 92.0694 117.299 91.8254 118.214C91.5813 118.901 91.0933 119.358 90.3611 119.587Z" fill="white"/>
<path d="M99.1464 99.9097C100.367 94.6471 96.462 90.2998 90.8492 90.2998C85.2364 90.2998 79.6236 94.6471 78.6475 99.9097C77.9154 102.884 78.8915 105.401 80.8438 107.232L79.6237 113.181L93.5336 110.892L94.2657 107.232C96.7061 105.401 98.6583 102.655 99.1464 99.9097Z" fill="white"/>
<path d="M82.7961 122.104C82.7961 123.019 83.5282 123.706 84.5043 123.706C85.7245 123.706 86.9447 122.79 87.1887 121.646C87.1887 121.418 87.1887 121.418 87.1887 121.189L82.7961 122.104Z" fill="white"/>
<path d="M321.161 206.749H303.999V297.732H321.161V206.749Z" fill="#6663FB"/>
<path d="M312.171 206.749H303.999V297.732H312.171V206.749Z" fill="#6663FB"/>
<path d="M314.351 213.832H309.72V218.463H314.351V213.832Z" fill="white"/>
<path d="M314.351 222.821H309.72V227.452H314.351V222.821Z" fill="white"/>
<path d="M314.351 231.811H309.72V236.441H314.351V231.811Z" fill="white"/>
<path d="M314.351 240.8H309.72V245.431H314.351V240.8Z" fill="white"/>
<path d="M314.351 249.789H309.72V254.42H314.351V249.789Z" fill="white"/>
<path d="M314.351 258.778H309.72V263.409H314.351V258.778Z" fill="white"/>
<path d="M314.351 268.04H309.72V272.671H314.351V268.04Z" fill="white"/>
<path d="M314.351 277.029H309.72V281.66H314.351V277.029Z" fill="white"/>
<path d="M314.351 286.019H309.72V290.649H314.351V286.019Z" fill="white"/>
<path d="M338.05 200.211H320.888V297.46H338.05V200.211Z" fill="#B4D9FF"/>
<path d="M338.05 212.197H320.888V225.818H338.05V212.197Z" fill="#1964F1"/>
<path d="M338.05 272.398H320.888V286.019H338.05V272.398Z" fill="#1964F1"/>
<path opacity="0.3" d="M308.358 206.749H303.999V297.732H308.358V206.749Z" fill="#00256D"/>
<path opacity="0.3" d="M323.068 206.749H320.888V297.732H323.068V206.749Z" fill="#0040BC"/>
<path d="M303.999 194.763H279.755V297.46H303.999V194.763Z" fill="#0037A2"/>
<path d="M291.741 194.763H279.755V297.46H291.741V194.763Z" fill="#727DFB"/>
<path d="M295.555 206.749H288.2V290.65H295.555V206.749Z" fill="white"/>
<path d="M314.623 278.119C309.72 278.119 305.634 282.205 305.634 287.108C305.634 292.012 309.72 296.098 314.623 296.098H351.67V278.392H314.623V278.119Z" fill="url(#paint0_linear_109_5336)"/>
<path d="M349.763 295.825C348.674 293.101 348.129 290.105 348.129 286.836C348.129 283.84 348.674 280.843 349.763 277.847H418.954C417.865 280.571 417.32 283.567 417.32 286.836C417.32 289.833 417.865 292.829 418.954 295.825H349.763Z" fill="url(#paint1_linear_109_5336)"/>
<path d="M419.771 296.37H349.491L349.219 296.098C348.129 293.101 347.584 290.105 347.584 287.108C347.584 284.112 348.129 280.843 349.219 278.119L349.491 277.847H419.771L419.499 278.664C418.409 281.388 417.865 284.384 417.865 287.381C417.865 290.377 418.409 293.374 419.499 296.098L419.771 296.37ZM350.308 295.281H418.137C417.047 292.557 416.775 289.833 416.775 286.836C416.775 283.84 417.32 281.116 418.137 278.392H350.308C349.219 281.116 348.674 283.84 348.674 286.836C348.674 289.833 349.219 292.829 350.308 295.281Z" fill="#0037A2"/>
<path d="M421.406 277.302H340.502V279.209H421.406V277.302Z" fill="#004AD7"/>
<path d="M421.406 295.008H340.502V296.915H421.406V295.008Z" fill="#004AD7"/>
<path d="M356.029 296.915H314.895C309.447 296.915 305.089 292.556 305.089 287.108C305.089 281.66 309.447 277.302 314.895 277.302H356.029V279.209H314.895C310.537 279.209 306.996 282.75 306.996 287.108C306.996 291.467 310.537 295.008 314.895 295.008H356.029V296.915Z" fill="#0037A2"/>
<path d="M318.709 251.968C312.171 251.968 306.723 257.416 306.723 263.954C306.723 270.491 312.171 275.939 318.709 275.939H356.029V251.968H318.709V251.968Z" fill="url(#paint2_linear_109_5336)"/>
<path d="M344.315 275.939C342.953 272.126 342.136 268.04 342.136 263.954C342.136 259.595 342.953 255.781 344.315 251.968H402.61C401.248 255.781 400.431 259.868 400.431 263.954C400.431 268.312 401.248 272.126 402.61 275.939H344.315Z" fill="url(#paint3_linear_109_5336)"/>
<path d="M403.7 276.484H344.043L343.771 276.212C342.136 272.398 341.319 268.312 341.319 263.953C341.319 259.867 342.136 255.509 343.771 251.695L344.043 251.423H403.7L403.427 252.24C401.793 256.054 401.248 259.867 401.248 263.953C401.248 268.04 402.065 272.126 403.427 275.667L403.7 276.484ZM344.86 275.395H402.065C400.703 271.853 399.886 267.767 399.886 263.953C399.886 259.867 400.703 256.054 402.065 252.512H344.86C343.498 256.054 342.681 260.14 342.681 263.953C342.681 268.04 343.498 271.853 344.86 275.395Z" fill="#0037A2"/>
<path d="M356.301 277.301H318.982C311.627 277.301 305.634 271.308 305.634 263.953C305.634 256.598 311.627 250.605 318.982 250.605H356.301V253.057H318.982C312.989 253.057 308.358 257.96 308.358 263.681C308.358 269.674 313.261 274.305 318.982 274.305H356.301V277.301Z" fill="#1964F1"/>
<path d="M406.424 250.605H353.849V253.057H406.424V250.605Z" fill="#1964F1"/>
<path d="M406.424 274.577H353.849V277.029H406.424V274.577Z" fill="#1964F1"/>
<path d="M338.322 272.671L332.874 270.219L327.426 272.671V262.319H338.322V272.671Z" fill="#6663FB"/>
<path d="M323.34 231.81C318.437 231.81 314.351 235.896 314.351 240.799C314.351 245.702 318.437 249.788 323.34 249.788H360.387V232.082H323.34V231.81Z" fill="url(#paint4_linear_109_5336)"/>
<path d="M358.48 249.516C357.391 246.792 356.846 243.795 356.846 240.526C356.846 237.53 357.391 234.534 358.48 231.537H399.886C398.796 234.261 398.252 237.258 398.252 240.526C398.252 243.523 398.796 246.519 399.886 249.516H358.48Z" fill="url(#paint5_linear_109_5336)"/>
<path d="M400.703 250.061H358.208L357.936 249.788C356.846 246.792 356.301 243.795 356.301 240.799C356.301 237.53 356.846 234.534 357.936 231.81L358.208 231.537H400.703L400.431 232.354C399.341 235.078 398.796 238.075 398.796 241.071C398.796 244.068 399.341 247.064 400.431 249.788L400.703 250.061ZM359.025 248.971H399.341C398.252 246.247 397.979 243.523 397.979 240.526C397.979 237.53 398.524 234.806 399.341 232.082H359.025C357.936 234.806 357.391 237.53 357.391 240.526C357.391 243.523 357.936 246.247 359.025 248.971Z" fill="#0037A2"/>
<path d="M402.882 230.992H349.491V232.899H402.882V230.992Z" fill="#869AFD"/>
<path d="M402.882 248.698H349.491V250.605H402.882V248.698Z" fill="#869AFD"/>
<path d="M364.746 250.605H323.612C318.164 250.605 313.806 246.247 313.806 240.799C313.806 235.351 318.164 230.992 323.612 230.992H364.746V232.899H323.612C319.254 232.899 315.713 236.44 315.713 240.799C315.713 245.157 319.254 248.699 323.612 248.699H364.746V250.605Z" fill="#6663FB"/>
</g>
<defs>
<linearGradient id="paint0_linear_109_5336" x1="305.634" y1="285.91" x2="351.67" y2="285.91" gradientUnits="userSpaceOnUse">
<stop stop-color="#F1F7FF"/>
<stop offset="0.385417" stop-color="#E3F0FF"/>
<stop offset="0.755208" stop-color="#B4D9FF"/>
<stop offset="1" stop-color="#82BBFF" stop-opacity="0.8"/>
</linearGradient>
<linearGradient id="paint1_linear_109_5336" x1="379.573" y1="277.847" x2="379.573" y2="295.825" gradientUnits="userSpaceOnUse">
<stop stop-color="#F1F7FF"/>
<stop offset="0.318849" stop-color="#E3F0FF"/>
<stop offset="0.662859" stop-color="#B4D9FF"/>
<stop offset="0.975595" stop-color="#82BBFF" stop-opacity="0.8"/>
</linearGradient>
<linearGradient id="paint2_linear_109_5336" x1="306.723" y1="262.356" x2="356.029" y2="262.356" gradientUnits="userSpaceOnUse">
<stop stop-color="#F1F7FF"/>
<stop offset="0.385417" stop-color="#E3F0FF"/>
<stop offset="0.755208" stop-color="#B4D9FF"/>
<stop offset="1" stop-color="#82BBFF" stop-opacity="0.8"/>
</linearGradient>
<linearGradient id="paint3_linear_109_5336" x1="368.984" y1="251.968" x2="368.984" y2="275.939" gradientUnits="userSpaceOnUse">
<stop stop-color="#F1F7FF"/>
<stop offset="0.318849" stop-color="#E3F0FF"/>
<stop offset="0.662859" stop-color="#B4D9FF"/>
<stop offset="0.975595" stop-color="#82BBFF" stop-opacity="0.8"/>
</linearGradient>
<linearGradient id="paint4_linear_109_5336" x1="314.351" y1="239.6" x2="360.387" y2="239.6" gradientUnits="userSpaceOnUse">
<stop stop-color="#F1F7FF"/>
<stop offset="0.385417" stop-color="#E3F0FF"/>
<stop offset="0.755208" stop-color="#B4D9FF"/>
<stop offset="1" stop-color="#82BBFF" stop-opacity="0.8"/>
</linearGradient>
<linearGradient id="paint5_linear_109_5336" x1="375.954" y1="231.537" x2="375.954" y2="249.516" gradientUnits="userSpaceOnUse">
<stop stop-color="#F1F7FF"/>
<stop offset="0.318849" stop-color="#E3F0FF"/>
<stop offset="0.662859" stop-color="#B4D9FF"/>
<stop offset="0.975595" stop-color="#82BBFF" stop-opacity="0.8"/>
</linearGradient>
<clipPath id="clip0_109_5336">
<rect width="443.284" height="300" fill="white" transform="translate(0.0247803)"/>
</clipPath>
</defs>
</svg>
